<svg width="28" height="29" viewBox="0 0 28 29" fill="none" xmlns="http://www.w3.org/2000/svg">
<path fill-rule="evenodd" clip-rule="evenodd" d="M16.4497 17.0567C14.489 19.0012 11.3101 19.0012 9.34936 17.0567C7.38866 15.1122 7.38866 11.9595 9.34936 10.015C11.3101 8.07051 14.489 8.07051 16.4497 10.015C18.4104 11.9595 18.4104 15.1122 16.4497 17.0567ZM17.0751 19.1446C14.3237 21.1645 10.4228 20.9379 7.92929 18.465C5.1843 15.7427 5.1843 11.329 7.92929 8.60668C10.6743 5.88438 15.1248 5.88438 17.8698 8.60668C20.3841 11.1002 20.5954 15.0127 18.5038 17.7448L20.9235 20.1445C21.3156 20.5334 21.3156 21.1639 20.9235 21.5528C20.5313 21.9417 19.8956 21.9417 19.5034 21.5528L17.0751 19.1446Z" fill="white"/>
</svg>
