<?xml version="1.0" encoding="UTF-8"?>
<svg id="Layer_1" xmlns="http://www.w3.org/2000/svg" version="1.1" viewBox="0 0 514 790">
  <!-- Generator: Adobe Illustrator 29.4.0, SVG Export Plug-In . SVG Version: 2.1.0 Build 152)  -->
  <path d="M129.78,642.85c.02,4.18-1.04,9.14-1.01,13.72-.02,1.4.53,2.35.61,4.52.09,5.16.67,11.07.81,16.42.25,5.41.26,10.29-.06,13.16-.15,2.03-.51,3.32-.86,4.61-.28,1.17-.59,2.25-.83,3.61-.12,1.03-.12,2.92-.18,3.43-.55,4.63.99,6.31,1.64,10.22.47,2.86.5,6.34.59,10,.11,3.76.48,7.74,1.06,11.77.26,1.72,1.16,3.97,1.49,5.58.82,4.16.69,9.28,1.58,13.72.55,2.04,1.14,2.39,1.47,4.39.23,1.23,0,2.99.13,3.45.79,2.58,1.7,2.23,2.06,4.33.07.28-.56,2.74-.43,3.6.46,5.06,1.94,7.25,2.95,8.77.31.41,1.25.56,1.32.84.38.69.49,2.56.9,3.35.63,1.23,1.57,1.77,2.01,3.05.35,1.3.79,5.17.3,8.19-2.38-2.95-1.3-6.72-2.01-10.12-1.23.63-1.43-3.1-2.57-2.9-.36,4.98,2.97,10.36,3.97,15.57.61,3.02-.18,4.93.86,8.04.56-.15.9.76,1.41.82,3.57-.46.42-8.48,3.7-9.26-1.19-1.08-2.76-.26-3.43-3.86,1.13-3.59-.71-4.89-1.42-7.89-.37-1.39.25-1.66-.31-3.4-.37-1.39-1.05-1.31-1.36-3.22-.72-5.28.21-11.51-.92-16.09-.58-2.53-2.75-3.94-2.54-6.49-.16-2.84,2.77,3.64,2.08-1.55-1.35-3.92-2.81-6.02-4.37-8.49,2.06-2.35-.05-8.75-.19-12.6-.08-1.77.65-2.77.46-4.61-.15-1.65-.38-3.28-.62-4.91-.14-1.65-.41-3.38-.55-5.03-.5-3.35-.93-6.82-1.43-10.17-.52-3.45-1.02-6.8-1.34-10.2-.41-3.38-.23-6.81-.12-10.13,3.14-2.04.7,8.58,3.35,7.67-.95-3.53-1.02-9.39-1.41-14.56.1-2.22,2.23-.99,1.47-4.58-2.17.08-5-8.62-2.29-11.14.97.64.14,5.34,1.4,5.6,1.64.16,3.2.04,2.74-3.52-1.29.75-2.95,2.38-2.95-2.1.79-4.49,2.76,3.24,2.87-.07v-5.58s-2.29.02-2.29.02c-.75-2.79.9-4.82,1.08-7.86.12-1.42-.58-4.03-.61-5.61,0-2.19.29-4.86.79-7.48.47-2.72,1.12-5.48,1.31-8.12.29-3.37.1-6.7.39-8.97.29-2.27,4.18-4.11.8-6.69-1.23.63-.59,5.24-1.92,5.49-.47-2.86-.01-6.37.63-9.93.67-3.47,1.28-7.12.74-10.26,1.04-2.07,2.28,2.18,3.07-1.92.2-4.83,1.68-8.62,2.35-13.18,1.57-8.29,2.08-17.89,3.9-24.15.75-2.39,2.01-2.93,2.48-5.25.7-2.58-.25-5.01.29-7.85.32-1.78,1.7-3.34,2.18-5.26,1.01-3.66.78-7.88,2.6-10.76.47,1.77-.45,5,1.48,4.78.46-3.11,1.91-7.38.29-7.85-1.19-1.47-3.15,4.63-2.32-.47.28-1.57.99-2.26,1.35-3.15.67-1.58.31-2.17.83-3.21,1.55-3.9,4.36-7.54,5.12-13.62,1.54-.21,2.5-1.47,3.21-3.25.36-.89.69-1.88.91-2.93.31-1.08.62-2.16.9-3.33,1.07-4.57,1.94-9.48,4.28-10.81-2.38-1.06-.89-5.94.86-11.29,1.61-.33.93,5.33,3.05,2.07,1.23-3.22.42-4.39.92-6.62-1.08-.31-1.68,2.64-2.92,1.38,1.43-2.47,2.09-9.32,4.05-7.96,2.59,1.1-2.97,5.28-.16,5.72,4.53-2.81,3.06-11.28,3.67-13.83.57-2.34,2.33-4.71,3.51-8.11,1.27-3.83,1.5-6.68,3.84-8,.82-2.51-1.12-2.69.44-5.8,2.8,1.54,3.49-6.31,4.83-8.76.41-.71,1.94-.22,2.43-1.35.45-.92.83-2.11,1.09-3.38.35-1.29.89-2.63,1.45-3.88.9-1.84,1.58-1.92,2.39-3.73,1.99-4.12.58-3.04,2.91-4.76s3.32-6.57,5.19-9.66c1.2.77,2.45,1.33,3.63.52-.1-1.47-.05-2.78.33-3.97.38-1.2.9-2.23,1.53-3.2,1.28-1.93,2.9-3.67,4.25-5.72,2.25-3.49,6.19-9.63,6.65-11.25.4-1.5-2.03.24-.54-2.74,1.42-2.87,3.7-5.17,5.64-7.59,2.04-2.44,3.86-4.92,4.8-7.76,1.49-.4.02,3.78,2,1.16,2.67-4.9,5.18-8.96,7.85-12.36,2.77-3.43,5.48-6.35,8.2-9.57-1.86-2.09,1.68-7.12,4.27-11.6,1.45-.19-.17,3.83,1.94,1.27,2.97-4.18,7.93-7.6,9.8-10.3.87-1.23.47-2.71,1.68-4.14,1.19-1.51,2.98-2.29,4.12-3.59.98-1.16,1.86-3.48,2.72-4.71,1.95-2.41,4-3.66,5.21-5.48,1.1-1.49,1.51-3.29,2.58-4.88,1.85-2.79,4.29-6.33,6.44-8.7,1.7-1.85,4.43-1.69,6.66-4.17,1.15-1.3-.15-2.05,2.04-3.93,2.28,1.08,2.56-.49,3.46-1.23,2.44-2.05,7.79-7.76,8.43-8.33,1.29-1.14,2.71-4.01,4-5.16,1.13-1,2.83-1.35,3.91-2.14.9-.74.77-1.6,1.87-2.69,2.85-2.76,9.24-8.65,12.63-11.65.94-.95,5.02-2.84,4.74-2.76.86-.53.54-1.34,1.21-1.82,4.63-3.53,10.65-7.13,14.74-10.82,1.13-1,.85-2.02,2.82-3.25.28-.07,1.93-.22,2.38-.44,1.04-.58,2.3-2.21,3.36-2.69,1.25-.54,2.42-.25,3.61-.67,3.7-1.09,4.26-2.34,7.78-5.57,1.52-1.4,3.25-2.76,4.91-4,1.68-1.15,3.28-2.27,4.34-3.15-.46-.97-1.78-.32-2.22-1.2,1.99-2.23,3.6-1.06,5.82-2.85,1.8-1.48,1.57-2.71,3.6-4.05,1.87-1.2,1.95-.52,4.15-1.61,1.07-.49,4.5-4.39,4.98-2.23-3.32,2.48-6.59,5.15-8.77,7.83-.89,1.14-4,3.66-2.43,3.94,1.85-1.29,2.83-2.45,3.91-3.64,3.28-3.37,3.31-3.28,6.49-5.52.28-.07.24-.96,1.33-1.75,2.34-1.32,3.8-1.82,5-4.03,1.72-.26,2.63.89,4.26.65,2.92-3.97,6.64-3.87,9.14-5.34,1.46-.89,1.78-2.27,3.22-2.86,2.41-1.04,4.09.4,6.61-1.37,3.57-2.65,2.89-5.95-1.5-4.48-4.15,3.5-7.83,6.88-12.01,6.9,2.23-2.09,4.86-4.19,7.36-5.66,2.52-1.37,4.84-2.39,6.12-2.83,3.79-1.11,3.21.44,7.3-.26.74-.2,3.48-1.53,3.94-1.65.37-.1,2.91-.28,2.75-1.63-.99-.73-7.25,2.34-5.07-.33,4.1-2.19,5.59-1.1,8.46-2.27,5.5-2.17,11.2-6.19,16.85-8.9,1.32-.65,2.89-.38,4.23-.94,1.41-.68,3.36-2.69,5.36-3.43,2.71-1.03,5.96-2.29,6.71-.6-.04,1.7-3.88,2.63-5.19,3.68-.25.17-.05,1.31-.4,1.5-2.73,1.33-3.44-.18-6.33,1.3-1.93,4.7-6.7,4.38-10.85,6.39-1.57.82-3.79,2.61-5.27,3.4-5.99,3.3-13.13,6.41-19.61,10.13-1.64.94-2.39,2.24-4.24,3.13-2.34,1.32-4.66,1.95-6.77,3.01-2.34,1.32-4.52,3.21-7.02,4.67-3.79,2.21-8.31,2.82-11.89,5.08-.92.65-1.51,1.8-3.08,3.02-2.88,2.27-6.41,5.1-10.14,7.9-1.82,1.38-3.74,2.79-5.58,4.08-1.85,1.29-3.58,2.65-5.36,3.83-2.35,1.63-4.4,2.18-6.48,3.73-2.84,2.05-5.81,4.35-8.81,6.54-1.5,1.1-2.88,2.27-4.17,3.41s-2.49,2.26-3.61,3.26c-1.22,1.02-2.31,2.91-3.53,3.93-1.73,1.36-3.99,1.47-5.88,2.97-.83.62-2.75,3.13-4.34,4.65-3.83,3.92-7.5,6.59-9.48,8.52-1.1,1.09-.9,1.84-2.58,3.38-2.26,2-4.8,3.28-6.9,5.13-2.74,2.43-4.34,5.75-6.8,8.1-1.17,1.21-3.01,1.8-4.46,3.09-2.07,1.95-4.2,4.41-6.24,6.85-1.08,1.18-2.06,2.35-3.05,3.51-.89,1.14-1.81,2.18-2.75,3.13-1.49,1.5-2.82,1.75-4.29,3.34-3,3.29-4.79,6.66-7.75,10.14-1.05,1.28-2.22,2.49-3.28,3.77-1.15,1.3-2.2,2.58-3.28,3.77-2.13,2.46-4.15,4.6-5.34,6.11-.89,1.14-1.76,3.46-2.75,4.62-.92,1.04-1.77.08-3.39,1.51.19-.05-2.51,3.26-2.58,3.38-1.37,1.96-1.62,3.62-3.08,5.61-3.93,5.43-8.96,10.47-11.58,14.06-3.47,4.52-3.99,7.44-5.73,9.11-2.99,2.99-4.18,7.1-6.61,11.03-1.46,2.38-4.54,5-6.01,7.69-.72,1.39-.34,2.08-1.5,4.09-1.75,3.16-4.24,6.12-5.62,9.17-.61,1.46-.86,4.21-1.48,5.28.07-.12-2.7,1.82-3.59,2.95-1.61,1.82-2.93,5.07-3.84,6.51s-1.93,1.71-2.89,3.36c-2.56,4.57-6.02,11.38-8.37,16.38-.97,1.95-.56,3.14-1.6,5.21-1.6,3.32-4.08,5.97-5.68,9.29-1.36,2.75-1.64,5.42-2.78,8.21-2.25,4.99-4.15,10.18-6.43,15.07-2.25,4.99-4.41,9.95-6.2,14.81,1.92.08,2.15,1.71.99,4.81-1.92,2.51-1.71-4.52-3.6-.03-.18,6.02-1.66,8.31-3.74,12.46-2.26,4.59-3.93,10.61-5.44,15.4-.56,1.64-1.67,2.34-2.13,3.96-.55,2.04-.17,3.83-.73,5.47-.45,1.31-1.73,2.46-2.13,3.96-.46,1.62.6,2.63.1,4.46-.52,2.13-3.04,2.41-2.32,5.1.09,4.06,2.24,4.28,1.25,9.13-2.22,2.89-.47-2.86-2.43-2.74-1.2,5.2-1.78,10.84-3.07,16.06-.44,1.71-1.7,3.34-1.99,5.22-.72,3.28-.79,7.48-1.48,10.85-.96,4.24-2.73,7.3-3.23,10.63-.1.72-.15,2.03-.11,3.32.04,1.28.09,2.57-.01,3.29-.54,2.83-2.01,4.42-2.4,7.42-.29,2.27.65,5.4.48,7.74-.07,1.21-1.42,3.27-1.66,5.33-.27,1.97.35,4.29.18,5.53-.18,1.54-.97,1.95-1.32,3.24-1.1,4.08-1.7,11.51-1.87,16.44-.06,2.01.67,2.51.38,4.38-.18,1.54-1.04,3.57-1.12,5.48-.11,1.82.23,3.82.09,5.55-.22,2.15-.97,3.45-1.12,5.48-.1,2.22-.21,5.93-.38,9.36-.18,3.43.13,6.44.12,7.14.04.89.73,1.6.69,2.2-.2,3.34-1.47,4.18-1.38,6.74.03,1.98,1.52,4.57,1.56,6.55-.08,2.31-.99,3.75-1.38,6.74-.56,5.73-.16,11.3,3.58,11.89-.04,3.2,1.12,6.77,1.05,9.88-.08,2.31-1.4,2.96-1.84,4.68-1.37,4.95.43,15.72,1,22.34.16,1.35,1.07,1.41,1.06,3.2-.01.7-1.1,1.09-.85,2.42,0,0,1.27.65,1.35.93,1.87,3.98.16,9.52.72,12.36.64,3.12,3.33,4.98,2.69,7.45-.44,1.71,2.27,3.28.31,4.5-.35-1.3-.67-2.51-1.62-1.96-.11,3.32-1.12,5.48.53,7.93,1.56,2.47.97,3.62,1.44,5.39.37,1.39,1.14,1.29,1.43,3.1.29,1.82-.48,2.32-.06,4.6.46,2.07,2.05,5.03,2.51,7.49.28,1.42-.25,1.66.22,3.43.62,2.32,1.98,4.05,2.49,6.31.69,3.3-1.43,5.46,1.5,8.96,1.56-.12-2.36-5.84.32-4.77,1.97,3.26,1.12,4.18,2.59,8.57-2.24-.2-1.17,2.7-1.24,3.92-.21,2.94-.65,4.26.37,6.97.66,1.72,2.04,3.54,2.47,5.12.77,2.88.53,6.43,1.43,9.08.82,2.67,2.54,3.9,3.39,5.96.66,1.71,1.95,6.15,2.23,7.57.34,2-.59,2.65.1,4.85,2.15,6.89,6.64,13.26,7.13,20.3,1.18.68,2.41.05,3.56,2.13-1.4,4.06,1.1,10.06,4.16,15.52.77,1.39,2.83,4.62,3.37,5.87.05.19.28,2.91.55,3.54,1.52,4.57,4.57,9.23,6.46,13.31,1.7,3.73.66,7.69,4.82,9.07-.55-2.04-2.85-5.41-1.08-5.89,2.96,6.97,7.96,12.61,10.26,18.96.78,2.18.36,3.59,1.36,5.81.87,1.76,1.76,2.12,2.77,3.64,1.87,2.89,2.95,4.69,3.68,6.29.73,1.6,1.1,2.99,2.18,4.79.63,1.23,1.37,1.03,2.38,2.55,2.09,3.32,4.94,8.04,5.81,9.8.24.53-1.03.97-.79,1.9.8,2.97,4.53,5.36,2.98,6.27,1.85.6,3.73,1.29,6.14,5.43-1.19,1.51-3.61-2.32-3.07.82,4.95,8.43,9.81,15.4,16.46,23.48,1.79,2.21,3.66,5.49,4.57,6.64,0,0,.56.25,1.1.4.57.25,1.13.49,1.25.56,2.37,3.65,1.07,5.1,3.28,7.79,2.06.24,5.81,6.81,7.5,5.66-1.43,3.57,7.52,10.93,12.12,16.97,2.48,2.92,3.65,5.79,5.27,7.75.91,1.15,2.07,1.04,3.67,2.9,1.29,1.45,1.99,3.35,3.21,4.92,1.34,1.63,2.95,2.1,3.67,2.9,1,1.13,2.09,3.72,3.3,4.89,3.11,3.05,6.58,5.61,9.39,8.64,3.45,3.56,5.35,6.93,8.61,9.45,1.54,1.28,3.74,1.68,5.16,2.89-1.18.82-3.5.34-1,2.96,3.06,1.37,4.78-.38,9.05,3.65,2.12,2.32-3.78.42-.1,3.71,4.36,2.52,7.71,5.71,10.94,8.83,3.3,3,6.36,5.86,9.78,8.23,1.56.98,1.74-.56,2.9.02,1.27.66,2.14,2.42,4.34,3.92,3.92,2.73,2.5.03,5.37,2.55,3.04,2.77,2.1,4.11,6.31,7.17,1.63.86,1.51-.7,2.94-.19-.33-.11,6.29,4.89,6.44,5.05,2.47,2.52-.37,4.18,3.22,5.71,3.82,3.46,2.68-1.52,6.12,1.25.83,2.36-2.23.99-.56,3.13,3.3,1.51,2.4,2.65,5.7,4.15l1.25-2.02c3.69,2.99,6.43,3.55,12.01,7.24-5.29,1.81,5.36,4.74,6.02,8.34,3.1,1.16,3.86-1.23,7.58.76,1.88,2.19,3.1,4.15,6.17,5.92,2.12,1.22,3.96.63,7.06,1.79,3.43,1.27,8.08,4.11,8.27,4.46,1.05,1.31,3.09,3.35,4.57,4.05,3.25,1.72,8.06,1.82,10.86,4.46,2.92,1.21-2.34,2.42,2.16,3.6,2.31,1.18,1.35-1.65,2.32-2.11,5.3,1.56,6.71,4.57,9.98,6.39,1.39.72,3.85.96,5.66,1.77,3.15,1.34,5.22,3.48,9.51,4.62.68,1.41-3.96.46-.92,2.14,1.2.77,2.43,1.24,3.62,1.62,1.2.37,2.35.56,3.61.82,2.41.45,4.8.81,7.57,1.86,2.56,1,4.49,3.38,7.11,4.57,2.26.99,5.14,1.71,7.74,2.11,2.69.37,5.03.54,6.23.92,4.83,1.29,9.89,3.82,14.35,5.21,1.32.45,2.67.68,4.06,1.01,1.36.23,2.72.47,4.01.82,1.1.4,3.44,2.06,4.22,2.35,2.87,1.03,6.8,1.96,10.95,2.94,2.13.53,4.27,1.05,6.43,1.67,2.23.5,4.36,1.02,6.54,1.73,2.39.75,4.33,2.03,6.61,2.71,4.5,1.19,9.81,2.75,14.84,3.69,5.04.95,9.72,1.68,12.97,1.91,1.73.13,2.96-.5,4.8-.29,2.25.19,2.49,1.12,4.55,1.37,3.09.36,7.23-.55,8.42-.57,3.94-.16,8.12.91,10.59.85,3.06-.12,6.08-.73,9.21-.97,3.12-.24,6.38-.02,9.58,1.91-1.47.09-2.44.55-2.47,1.56,2.22,1.59,4.69-.36,7,1.21-.21,2.94-4.24,3.53-3.03,7.29,2.26.98,3.45,2.46,6.99,3,.67,2.51-5.83.57-5.06,3.05,4.01-.27,8.13.22,11.95,1.09.5,1.85-2.58,3.77,4.5,4.87.1,1.86-5.57,2.28-2.74,3.92,5.63-1.31,5.37,1.05,9.72,1.68,3.09.36,6.18.73,9.31.89,1.52.09,3.13.15,4.63.15l4.64-.15c6.23-.17,12.3-.6,18.16-.68,3.97-.07,7.5.08,10.99-.26,1.63-.23,2.41-1.04,3.64-1.27,2.38-.44,6.02-.62,8.53-.89,3.66-.49,5.99-.71,7.95-.84,1.93-.22,3.45-.13,5.49.02,3.58.34,5.64.59,7.4,1.21,1.53.49,2.27.29,2.59,1.5.52,1.95-2.91,2.17-3.37,3.79.06.98,3.41.08,3.82.87-5.92.98-1.18,3.4-2.09,4.84-.64.97-5.16,3.07-6.01,4-.62.66.07,1.37-1.11,1.79-1.9.71-4.65,1.25-7.5,1.41-2.85.17-6,.31-8.7.64-1.63.24-2.5,1.07-3.74,1.3-5.91.99-8.68.33-10.04,2.69.49,1.46,3.81,1.57,3.89,3.34-2.57,1.19-4.87,2.3-7.42,3.19-2.6.69-5.47,1.16-9.07,1.13-2.45,2.75-.77,4.19,2.48,4.81,3.26.62,7.97.36,11.64-.83,1.67,2.15,8.25,1.78,13,2.4,3.36.99-2.56,3.07,2.7,3.36,3.04-.92,5.86-1.18,8.71-1.34,2.75-.14,5.44-.16,8.12-.18,4.34-.17,8.62-1.32,12.91-1.67,3.12-.24,6.06.67,9.16.33,1.75-.17,4.37-1.17,6.42-1.32,2.31-.32,4.02.12,5.28-.02,2.12-.27,4.18-1.12,6.31-1.39,5.36-.44,14.87-1.79,21.91-2.68,1.84-.2,4.55-.13,5.2-.3,2.63-.61,3.89-1.84,6.2-2.16,1.35-.16,3.14.55,5.33.17,1.98-.43,4.46-1.6,6.27-1.88,6.31-1,12.2-.98,18.06-2.55-2.62,5.08-13.86,3.71-20.18,5.41-2.88.77-3.82,2.11-6.07,3.02-4.87,1.9-10.65,2.65-15.18,4.36-2.49.37,1.89-2.6-2.91-1.91-8.92,1.69-10.34,1.97-19.38,2.8l.32,2.31c-5.3,1.42-5.24-.59-9.18-.03-1.75,2.76-6.67,1.88-11.59,2.51-5.43.55-15.15,1.86-16.86,2.52-4.74,1.67-6.21.27-10.51.23-3.74-.2-5.95.5-9.17.36,1.28,2.55-2.65,2.01-5.19,2.59-.37.1-1.92,1.01-2.55,1.28-2.49.76-4.46,1.59-6.55,1.95-2.75.54-5.49-.02-7.94.14-1.65.14-2.58.79-4,1.07-2.32.62-2.42.25-4,1.07-.6.36,1.44.91,1.3,1.15-.04.21-2.42.64-2.69,1.12-.75,1.29.18,2.54-1.37,3.45-1.46.89-5.3.32-9.41,1.72-2.11.67-3.32,2.88-5.49,4.06-1.04.58-4.38.38-5.43.96-.63.27,1.53.88,1.33,1.24-.87,1.23-3.63-.52-5.45-.24-.47.13,1.4,1.12,1.33,1.24-.19.05-3.8.32-4.08.4-.74.2-2.05.15-2.77.44-.37.1-1.16,1.61-1.44,1.68-2.31.32-4.43-.9-5.41-.84-1.28.05-1.15,1.3-4.12,1-1.64-.15-2.87-1.42-5.37-1.44-.19.04-1.85.89-2.74.93-2.08.06-4.68-.74-6.76-.68-3.06.12-2.9,1.08-5.5.68-.09.02-.93-1.25-1.24-1.27-1.32-.44-4.3-.04-5.43-.53-1.46-.61-.37-2.49-3.77-3.28-5.41-1.24-2.31-.07-3.87-2.15-.17-.25-2.68-1.07-2.63-.89-.37-.99.84-1.71,1.62-2.13-3.57-1.03-5.46-2.52-9.03-3.55.02-1.8,3.53-2.84.55-4.63-2.67,1.21-8.62-.18-10.78.3-.65.17-1,1.46-1.59,1.52-1.35.16-3.8-.78-5.29-.78-1.28.05-1.72.66-4.15.52-2.43-.15-7.97-.75-10.62-1.34-.54-.15-1.29-1.84-2.28-2.18-1.32-.44-4.94.53-6.74-.58-2.59-1.5-3.02-3.47-5.79-5.22-.71-.41-3.11-.47-3.91-.85-3.08-1.46-.9-2.25-4.71-3.42-2.93-.91-6.08-.36-9.31-.89-1.9-.39-4.72-1.62-7.7-2.32-2.56-.61-5.98-1.49-8.96-2.18-2.98-.7-5.51-1.22-6.72-1.29-1.71-.04-2.16-.61-2.58-.7-3.54-.55-4.32-.14-6.74-.59-2.44-.54-2.66-1.37-5.01-1.94-4.39-1.12-10.35-2.91-14.17-3.77-1.71-.44-3.65-.22-5.43-.54-6.58-1.13-10.33-3.61-14.12-3.99-.09.03-7.71-1.62-7.92-1.66-2.14-.92-3.13-2.75-7.12-3.87-7.04-2.1-11.72-.94-16.29-2.41-2.16-.61-3.68-2.2-6.03-3.16-3.36-1.39-6.92-2.03-10.15-3.66-3.35-1.69-8.48-5.99-12.03-5.84-3.15.15-10.3-5.7-14.35-7.41-2.47-1.03-2.93-.51-5.32-1.26-3.12-.86-4.86-1.78-6.33-2.79-1.37-1.02-2.44-2.03-4.23-3.14-10.2-6.44-15.97-5.29-23.59-9.92-1.44-.91-2.62-1.98-3.72-3.09-1.12-1.19-2.21-2.29-3.6-3.02-2.48-1.42-5.42-1.63-7.8-2.69-3.81-1.57-10.33-5.8-15.62-8.06-3.13-1.26-5.44-1.33-7.82-2.79-1.91-1.18-3.72-3.08-6.44-5.04-1.96-1.37-6.03-3.17-7.05-3.99-2.77-2.15.25-1.66-2.67-3.27-2.78-1.45-7.55-7.74-9.83-9.52-.38-.3-6.02-1.27-5.73-3.54-.15.93.85,2.06-.28,2.66-1.75-1.32-4.11-1.19-6.49-2.64-1.79-1.11-4.91-4.56-8.34-6.93-2.72-1.96-5.04-2.43-5.1-4.51-2.67-1.78-3.34.2-6.42-2.76,1.01-1.07,3.16.25.38-2.69-4.95-.27-9.92-6.91-14.32-10.31-3.05-2.47-6.64-4.69-10.33-7.29-3.52-2.74-7.24-5.83-10.76-9.67-1.62-3.05-2.8-8.21-6.97-10.38-.5.73,2.22,2.69.82,3.07-5.11-3.81-6.57-5.91-7.46-7.76-.8-1.88-1.11-3.39-3.63-6.1-1.61-.07,1.17,2.87.66,3.21-.44.21-3.28-3.31-4.11-1.59,1.6,1.86,3.98,4.81,6.36,7.36,2.38,2.55,4.56,4.75,5.51,5.69,1.3,1.15,1.97.67,3.43,2.37,1.29,1.45,1.71,3.03,3.2,4.52,2.45,2.43,5.26,4.77,8.01,7.22,1.42,1.21,2.75,2.45,4.17,3.66,1.42,1.21,2.72,2.36,4.05,3.59,1.76,1.73,2.68,3.67,4.5,5.27,3.13,2.75,6.68,4.49,9.74,7.35,5.67,5.55,15.81,12.5,22.25,17.94,1.16.99,2.36,2.86,3.71,4.19,2.56,2.5,5.56,4.38,7.34,6.2,1.93,1.97,2.58,3.69,4.62,5.33-.12-.06,1.72-.26,1.75-.17,1.15.59,1.07,1.41,1.92,1.98-6.21.27,2.47,6.61.29,9.28-5.22-3.48-9.11-4.23-14.41-8.39-2.7-2.26-4.12-4.57-7.1-6.76-1.87-1.39-4.03-2.01-6.24-3.21-4.08-2.2-4.7-3.42-6.62-5-1.4-1.12-1.95-.57-3.72-1.99-1.28-1.05-2.91-2.31-4.36-3.61-1.47-1.4-2.92-2.71-3.99-3.72-3.56-3.23-12.63-12.15-15.25-14.14-1.87-1.39-5.35-2.85-7.15-4.35-1.3-1.15-3.13-4.25-4.36-5.51-3.07-3.26-7.96-8.12-10.85-10.74-1.94-1.67-3.92-2.73-5.51-4.2-1.61-1.56-2.56-3.59-4.27-5.52-3.22-3.82-7.92-8.34-12.99-13.16-2.45-2.43-5.13-5-7.69-7.5-1.24-1.26-2.59-2.59-3.82-3.85-1.17-1.38-2.31-2.67-3.48-4.05-3.1-3.75-5.62-7.96-8.33-11.01-3.74-4.28-8.79-9-12.27-13.05-3.5-4.14-4.91-8.65-8.22-12.84-2.72-3.45-6.96-7-10.44-11.05-3.81-4.55-7.52-9.83-10.63-14.38-4.31-6.41-7.07-9.66-10.54-14.4-2.49-3.72-4.53-8.35-7.16-11.83-1.43-2.01-4.2-4.15-5.57-6.28-1.34-2.03-1.59-5.95-3.82-9.04-.17-.25-2.19-1.1-2.74-3.15-2.62-1.98-.95,2.05-3.19.36-3.49-4.84,1.22-3.61-.99-7.4-2.7-2.27-2.92-5.69-4.21-7.14-1.26-1.36-2.16.87-3.59-2.63-2.58-4.78,2.08-.05.64-3.55-3.31-2.7-5.22-9.06-8.64-14.02-1.6-2.26-3.05-2.47-4.78-5.19-.77-1.39-.45-2.07-1.44-3.9-.99-1.83-3.14-4.64-3.76-5.86-1.45-2.8-1.72-4.92-3.33-7.58-.96-1.73-.82-.08-1.69-.74-5.54-4.29-6.21-18.35-8.37-20.46-.66-.62.54,3.14.1,2.96-1.72-3.82-.26-8.79-4.14-10.24.8,1.88,2.32,4.56,1.79,5.2-4.41-5.69-1.96-8.44-3.61-13.47-.91-3.04-3.15-8.02-5.3-12.72-2.31-5.26-5.61-12.74-7.28-16.38-1.14-2.39-3.3-3.4-4.51-5.67-1.76-3.21-5.21-12.75-5.68-14.12-.68-1.81.21-2.55-.26-4.31,0,0-1.7-1.14-2-2.25-.17-.65.67-1.58.21-2.94-.59-1.83-1.7-2.23-2.16-5.1,1.49-3.39-1.39-8.89-4.54-18.8-3.27-9.58-5.45-19.96-7.87-29.36-1.24-4.65-2.44-9.11-3.44-13.22-.88-4.04-1.79-7.79-2.68-10.74-.89.04-1.95.52-2.23-2.39.34-2.08,1.38.33,1.44-1.68.07-1.61-1.03-8.29-1.63-10.92-.5-1.86-.8-.38-1.4-1.12-2.33-2.76-2.56-15.15-2.77-16.29-.1-.37-1.57-2.87-1.75-3.91-2.02-7.92-.59-11.49-1.35-16.57-.31-1.91-1.66-4.34-2-6.73-.28-1.42.05-4.29-.16-6.93-.17-1.75-.8-1.88-1.07-4-.19-1.84.28-2.66,0-5.58-.21-2.63-.89-2.95-1.17-5.46-.15-2.05.52-2.53,0-5.58-.67-4-1.43-6.09-1.86-9.56-.18-2.14.48-4.91.23-6.93-.29-2.21-1.76-4.71-2.12-6.8s-.17-4.73-.35-6.88c-.22-1.93-.61-4.12-.97-6.21-.39-2.19-.56-4.33-.66-6.2-.11-2.66.58-3.04.49-5.61-.14-5.74-.63-14.27-.77-22.21.03-5.48-.23-10.89-.02-15.33.27-6.05,1.39-9.34,1.15-12.46-.29-3.31-1.95-5.05-1.96-8.44.12-2.52,1.62-6.61,2.01-9.6.28-1.57-.36-2.09-.23-4.22.2-1.85,1.19-2.61,1.12-5.48-.06-2.08-.59-.34-1.01-1.52-1-2.62.94-10.61,1.26-13.88,1.22-9.59,1.53-21.43,2.31-29.3.22-2.15.9-4.82,1.03-6.95.18-1.94-.41-3.38-.12-5.65.66-5.35,2.18-10.84,2.6-13.74.13-.63-.31-1.91.26-4.25.59-2.65,1.5-4.09,1.87-6.78.23-1.36.14-2.83.05-4.29-.09-1.47-.1-2.96.05-4.3.49-3.02,2.38-4.12,2.53-8.05.3-5.56,2.18-6.76,3.21-10.72.48-1.92-.26-3.22.16-5.72.34-2.08,1.58-4.51,2.29-6.69,3.34-9.86,1.81-10.74,3.11-16.67.26-1.27,1.42-2.87,2.18-5.27,1.04-3.17,1.18-6.39,1.87-8.27.83-2.11,1.89-2.6,2.74-5.02,2.19-5.96,4.41-15.92,6.84-22.85,1.96-5.7,1.85-3.88,2.29-8.18.34-3.58,1.19-7.09,2.33-10.29,1.14-3.19,2.56-6.06,4.49-8.17.51-3.32-.29-4.8.51-7.41,1.24-3.92,4.28-7.82,6.63-11.34,2.56-3.47,4.45-6.47,3.4-8.88-1.75,2.76-3.7,10.36-5.21,8.47,3.53-8.02,7.31-15.11,10.45-21.62,3.23-6.54,5.79-12.61,7.83-18.03-1-1.13-2.73,5.81-3.59,2.95,1.16-4.59,7.18-13.38,7.1-17.04,4.18-.02,4.88-9.67,7.67-11.92-.12,2.52.78.69,2.04-2.04,1.26-2.73,3.21-6.24,4.67-7.13-1.38-.33-3.48,1.13-3.07-1.77,3.86-4.92,7.39-10.74,10.28-13.71,1.17-1.21,1.44.91,3.67-2.68,1.53-3.2,1.34-3.94,3.37-7.87,2.52-4.36,7.65-9.02,6.64-10.94-1.3-.75-3.78,4.1-5.15,3.47,1.78-4.16,5.25-11.27,8.08-15.21,1.56-2.01,3.29-1.48,5.08-3.35.94-.95,3.11-4.02,5.1-6.64,1.99-2.62,3.77-4.9,3.64-4.66.14-.24-3.1,1.43-3.15,1.24.11-2.92,2.93-2.48,3.85-4.22.32-.68-1.17-1.78-.98-2.53.35-1.29,2.44-3.54,2.95-4.97,2.51-3.66,6.59-2.56,7.01-5.46-.61-.43-1.93,1.71-2.66,1.61,1.45-2.78,2.83-5.44,4.53-8.38,1.7-2.95,4.06-6.07,7.2-9.6,3.03-.22-4.03,5.06-.93,4.73,4.71-4.35,1.49-4.48,5.42-8.42.82-2.51-3.15.15.93-4.73,1.99-2.62,2.36-.13,4.1-2.19-.71-1.9,2.5-2.96,3.71-4.38,1.51-1.8,2.64-4.29,4.1-5.88.16-.14,1.9-.71,2.71-1.42,1.45-1.29,3.6-4.05,3.45-4.61-1.09-.71-4.34,4.25-6.16,6.03-.9-4.84,8.57-11.56,13.17-17.07,2.27-2.7,3.22-5.84,5.58-8.57,1.67-1.94,2.6-2.19,4.35-3.85,5.68-5.21,6.83-6.11,10.96-9.31-.9-3.35,8.29-9.59,12.52-13.91.78-.81,2.04-3.54,3.31-4.77,2.41-2.54,5.46-4.55,7.48-6.69.78-.81,2.53-3.57,3.52-4.73,5.91-6.96,8.84-7.55,8.5-9.95-.11-.77,1.5-2.2,3.23-3.56,1.73-1.36,3.81-2.52,4.39-2.97,2.14-1.67,2.01-2.53,4.09-4.08,1.48-1.19,2-.73,3.77-2.3,1.52-1.4,1.68-2.64,3.75-4.59.09-.02,1.42-.28,2.62-1.4,2.23-2.09,5.22-4.69,8.38-7.42,3.06-2.71,6.45-5.31,9.19-7.74,1.48-.8.43,3.47,6.05-1.62,2.46-3.85-3.53,1.34-4.05-.61,6.93-4.25,9.33-7.98,12.18-10.34,1.38-1.17,2.05-.55,3.82-2.12,1.45-1.28,2.4-2.93,4.13-4.29,5.92-4.67,14.08-11.04,20-14.62,3.77-2.3,8.27-3.71,11.96-5.59,8.29-4.41,14.22-9.79,23.41-14.54l-1.47-2.5c4.41-3.27,4.65-1.25,7.23-2.04-.37-3.98,6.13-5.03,12-8.4-.28.07,2.68-1.91,3.6-2.56,3.53-2.44,8.14-4.97,11.62-6.1,2.78-3.03-4.17.42-1.3-2.64,5.43-2.05,10.21-5.03,15.92-7.55,2.6-1.09,5.09-1.46,8.21-3.2,3.84-2.03,7.24-5.72,11.01-7.63,2.55-1.28,6.9-2.15,9.75-3.41,3.57-1.55,7.48-3.7,11.58-5.89,2.11-1.06,4.28-2.24,6.46-3.42,1.13-.6,2.29-1.11,3.43-1.72,1.16-.51,2.32-1.02,3.57-1.55,8.07-3.36,17.36-6.25,24.67-9.5,6.49-2.93,12.55-6.35,18.94-8.56,2.3-.72,4.97-.43,7.41-.99,6.23-1.67,10.68-3.66,14.85-5.57,4.2-1.82,8-3.64,12.78-5.12,2.32-.62,4.89-1.11,7.16-1.92,1.86-.5,3.82-2.12,4-2.17,2.79-.75,6.11-.24,8.9-.99,2.78-1.54,3.09-2.62,6.76-3.8,2.3-.72,6.41-.62,8.85-1.18,5.26-1.21,10.94-3.83,14.19-4.7,1.49-.4,1.85.2,2.99,0,2.05-.55,9.63-1.98,13.1-2.81,4.23-.94,8.69-2.93,12.95-3.77,3.58-.76,7.71-.97,10.34-1.58,2.23-.6,3.85-1.63,5.76-1.94,2.19-.39,5.3.07,5.95-.1.74-.2,4.23-1.33,5.81-1.76.37-.1,2.14-.57,2.95-.89-.09.03,2.29-1.51,1.33-1.35,1.79-.38,3.83.17,7.52-.22,3.19-.36,5.44-1.26,7.4-1.39,3.03-.21,6.02.88,9,.48,6.48-.74,10.59-3.63,14.78-4.36,3.91-.65,8.41-.96,13.46-1.12,5.04-.16,10.6.15,16.56.05,5.46-.07,11.16-.4,16.76-.71,2.75-.14,5.57-.4,8.35-.44,2.78-.05,5.4.05,8.01.14,6.26.31,14.11,1.7,19.46,1.96,9.74.28,21.28.57,31.57,1,5.14.22,10.03.6,14.1,1.3,4.08.7,7.46,1.79,9.63,3.2-1.09-.71-.41,2.2-.29,2.27,1.39,1.82,2.55,1.71,2.73,2.75.15.56-1.54,1.31-1.87,2.69-.85,3.51,2.05,2.44-3.55,4.24-5.69,1.82-4.82.99-13.54,1.93-4.08.4-6.26,1.18-7.44.5-.73-.5-1.77.47-1.58.42-2.13-.13-5.9-.81-8.79-.83-2.08.06-4.31.66-5.92.59.19-.05-3.75-.99-5.79-1.14-3.5-.06-6.87,1.14-10.32,1.27-2.57.09-6.29-.41-8.76-.34-6.82.23-13.16,1.83-19.01,1.61-2.1-.04-2.61-.8-5.82-.53-3.61.27-7.49,1.81-13.11,2.42-3.5.34-8.55-.3-13.12.13-3.03.21-5.07,1.16-7.22,1.34-3.8.32-6.71-.49-8.69-.06-1.42.28-3.75,2-5.68,2.62-4.7-.43-10.11-.18-14.47.29-1.75.17-4.23,1.33-5.67,1.52-2.68.42-3.3-.41-5.77.05-3.35.5-2.3,1.81-5.54,2.38-5.47-1.82-8.28.33-12.89,1.36-1.58.42-6.73-.19-5.65,1.22,3.49-.74,7.25-1.94,7.29.44-7.29,1.06-10.6-.15-14.63-.66-.48,1.92-6.05,1.22-9.86,2.64-2.99,1.1-1.48,2.29-5.34,3.12-6.56,1.56-14.48-.1-18.45,2.95-.33,1.38,6.4-1.42,4.55.97-3.63.58-4.78-.71-8.81-.13-2.19.39-5.5,2.17-8.2,2.89-2.23.6-5.18.39-7.15.82-.37.1-3.03,1.71-3.96,1.96-2.02.64-5.38.74-5.51,1.77.7,1.11,5.34-.53,6.03.57-7.71.97-17.15,4.8-19.52,4.53-1.45-.21-.73-.1-2.87.07-9.21.97-8.1,3.26-16.4,5.39-2.6.7-5.34.53-7.03,1.29-3.32,1.39-5.35,5.32-10.43,4.98,1.39-.37,1.4-1.47-.3-1.12-2.78,1.54-3.98,3.75-7.36,5.26-4.8,2.18-10.19,2.13-15.13,4.15-3.41,1.41-3.28,3.37-7.32,5.05-.63.27-5.49,1.47-6.88,1.84-1.3.35-4.6-.06-5.36,1.93-.04,1.7,5.14-1.28,5.9-.29-3.99,1.86-8.77,3.74-13.08,5.5-4.32,1.75-8.09,3.66-10.19,5.12-3.19.36,1.16-2-1.98-1.06-4.23,1.33-13.68,6.95-15.31,7.59-.74.2-1.01-.43-2.84.56-1.92,1.01-2.51,2.17-4.8,3.28-4.82,2.49-10.74,4.57-15.41,7.22-1.99,1.13-.63,1.36-3.31,2.88-5.67,3.01-13.85,5.21-17.24,9.7.39.69,2.42-.65,3.01-.31-5.15,4.57-12.7,9.88-20.32,12.71-1.28.44-3.16-.25-4.57.43-1.79.78-4.9,3.3-7.02,4.67-2.89,1.87-5.91,2.88-6.97,4.86.62,2.32,6.07-1.53,7.81-.6-7.16,4.51-7.36,2.27-11.11,3.18-6.64,2.38-7.53,6.5-10.89,9.19-3.39,2.6-7.89,4.4-9.96,7.85,2.62-1,5.92-3.18,9.6-5.46,3.7-2.19,7.51-4.7,10.92-6.51-.34-.9-1.24-1.66,1.52-2.9,2.2-2.58,2.46.24,4.52-.61,3.22-1.36,10.99-8.82,19.86-13.29,3.31-1.78,5.34-2.03,7.65-3.44,2.06-1.25,3.94-3.15,5.63-4.3,2.82-1.75,7.9-5.11,9.74-5.7,2.9-1.08,4.02.52,7.1-1.4,3.41-1.41.03-2.5,4.32-3.95,5.66.67,9.76-5.6,17.8-8.35-.39-.69-1.98.03-1.95-.97,6.22-2.07,12.55-3.36,17.56-5.5,4.94-2.02,3.39-2.6,6.08-3.72.37-.1,3.19-.36,5.44-1.66,2.24-1.3,2.96-3.08,5.84-4.25,0,0,4.83-1.69,5.27-1.91,4.6-1.43,10.6-1.35,15.34-3.01.93-.25,3.02-2.11,4.88-3,6.92-3.55,11.88-4.38,17.42-5.66.26-1.26-4.88-1.08.68-2.67,6.06-2.32,2.5,1.52,4.76,1.02,3.8-3.31,10.29-3.65,15.98-5.48,2.02-.64,2.45-1.65,5.1-2.56-.37.1,1.82.11,2.85-.17,1.86-.5,2.83-1.35,3.97-1.56,3.44-.92,6.83-.93,9.66-1.89,1.49-.4,2.89-1.87,3.82-2.12,3.44-.92,6.42-1.32,9.31-1.7,2.91-.28,5.69-.73,8.7-1.74,2.46-.86,3.65-2.37,6.53-3.14,3.63-.97,7.33-1.66,11.33-2.34,3.91-.65,8.04-1.26,12.4-1.73,1.45-.19,1.57-.82,2.72-1.03,1.72-.26,2.08.34,4.27-.05,8.69-1.43,23.26-4.34,30.67-4.93.56-.15,3.05.58,5.67-.03,2.26-.51.98-1.16,4.06-1.59,3.29-.38,6.31.5,9.9.14,1.56-.12,4.2-1.43,6.98-1.87,6.27-.78,15.12-.47,19.74-1.11,2.12-.27,3.25-1.27,5.58-1.5,2.64-.21,5.69.77,8.56.69,5.37-.04,5.59-1.1,7.03-1.29,1.93-.22,5.15.61,7.11.49,0,0,4.06-.49,5.62-.61,6.99-.68,7.65-.46,7.04-2.38,2.11.43,4.19.77,6.49,1.15,1.12.1,2.27.29,3.39.39,1.15.19,2.27.29,3.51.45,4.75.62,9.73.98,15.01.96,1.59-.03.65-.17,1.46-.49,2.66-1.21,9.93.23,14.24-.03,5.16-.09,8.88-2.18,14.34-1.15.48,1.07-2.24,1.3-.13,1.73,5.51,1.21,12.97.41,18.42,1.04,1.33.14,2.77.65,4.22,1.26,1.46.61,2.82,1.24,4.09,1.49,1.05.22,8.16.7,11.32.95,6.73.59,15.73,2.16,22.5,3.23,2.2.41,5.04-.16,7.22.16,2.08.34,4.79,1.51,6.9,1.94,1.99.36,4.98.36,7.09.79,2.53.52,3.01,1.19,5.42,1.63,2.72.47,6.1.06,8.63.58,1.69.34,2.64,1.29,5.4,1.94,2.89.72,5.81.83,8.45,1.42,4.03.91,7.33,2.42,10.94,3.24,4.03.91,8.49.81,12.71,2.07,6.57,1.83,12.43,4.74,18.9,6.19,1.8.41,2.01.06,4.26.65,1.62.46,4.45,2.09,6.67,2.59.73.1,3.12-.24,4.44.2,3.92,1.24,8.49,4.9,11.54,5.87,4.33-.96,5.59.79,11.09,2.71,3.62,1.22,6.72,2.38,9.56,3.31,2.8,1.14,5.27,2.17,7.74,3.21,8.21,3.48,18.48,5.71,26.99,9.2,5.88,2.61,8.36,4.04,12.87,6.01,5.32,2.36,9.66,5.18,15.24,7.77l6.38,2.97,6.34,3.18c4.16,2.17,8.4,4.22,12.67,6.37,4.16,2.17,8.43,4.31,12.55,6.69,4.15,2.47,8.12,5,12.23,7.68-1.77,1.57-9.3-4.58-10.31-2.02,2.65,2.08,10.19,7.53,13.37,7.87,4.17.68.2-2.24.59-3.74,3.08,1.07,6.26,2.9,9.38,4.86,3.21,1.93,6.21,4.21,9.13,5.82,1.65.95,4.02,1.22,5.46,2.12,0,0,.42,1.58.47,1.77,4.58,4.45,11.89,7.57,15.49,10.19,5.6,4.18,13.01,9.86,19.73,14.13,2.41,1.55,4.46,1.39,7.96,3.65-.26-.23,2.57,2.9,4.15,3.97,2.72,1.96,4.87,2.18,6.32,3.49,1.44,1.31,5.22,5.37,4.16,6.25-3.56-.64-6.67-6.68-8.58-5.27,5.87,5.2,11.52,9.16,15.66,12.34,2.56,2.1,4.68,4.82,6.1,6.03,1.87,1.39,4.87,2.18,6.57,3.32,5.36,3.64,12.39,10.13,15.07,13.09,6.52,6.82,18.36,15.7,20.4,19.93.8,1.88,1.44,4.29,2.33,5.75,3.74,5.77,6.93,6.51,10.39,9.76,2.66,2.47,4.28,5.53,6.5,7.52,0,0,2.89-.38,2.34,1.66-1.18-1.08-2-1.16-2.82-1.24,4.18,4.06,9.37,8.55,6.94,3.22,3.82,3.46,2.17,6.99,4.5,9.35-.14-.16,7.41,4.19,6.39,1.88-2.71-3.76-3.62-2.72-5.61-4.57,2.94-1.29,9.43,6.93,13.66,12.67,1.31,1.94,1.94,4.66,3.17,6.62,1.89,2.98,3.66,4,4.06,5.88-1.1,2.58-6.02-7.25-7.25-5.13,3.56,3.23,6.84,8.03,10.08,12.34,3.25,4.31,6.52,8.31,9.49,10.11-1.58-2.17-2.47-4.02-2.49-5.21,4.29,6.72,10.48,11.23,10.71,15.06-3.18-1.44-4.19-7.84-6.92-7.21.92,1.95,2.08,4.03,3.31,6.39.99,1.83,4.33,6.11,2.89,6.69-4.51-3.07-5.89-8.58-7.6-12.01-1.97-.67-3.9-2.64-5.76-5.13-1.93-2.37-3.87-5.14-5.59-7.47-2.96-3.99-6.43-7.64-9.01-10.93-1.81-2.3-.62-2.32-2.68-5.16-2.31-3.06-3.21-1.93-5.52-4.6-4.61-4.94-8.03-9.9-12.81-15.09-3.71-4.18-7.23-7.62-10.86-11.13-3.51-3.44-7.05-6.98-11.2-10.94-5.26-5.46-12.12-11-16.26-15.66-1.57-1.77-2.68-4.06-4.42-5.69-2.13-2.02-4.93-3.16-6.99-4.9-3.41-2.67-7.74-6.19-10.73-9.18-2.19-2.2-2.32-3.46-4.67-5.52-1.8-1.51-4.6-2.65-7.22-4.64-7.14-5.06-14.81-12.47-19.23-14.47-4.07-1.8-2.97-1.4-5.93-3.89-2.06-1.74-2.78-1.45-4.88-2.97-4.11-3.08-9.25-7.38-13.44-10.34-2.34-1.66-4.54-2.47-6.06-3.65-1.4-1.12-2.29-2.97-3.92-4.23-1.75-1.32-3.98-1.82-6.2-3.42-5.36-3.64-11.74-9.21-14.71-11-1.77-1.02-4.74-1.32-6.81-2.36-4.52-1.98-7.55-4.35-11.17-5.97,2.17,2.9-1.29,1.14-3.27.08-6.76-3.67-5.5-5.3-9.74-8.45-1.63-1.26-5.1-2.32-7.65-3.63-1.65-.95-2.14-2.41-4.38-3.71-1.41-.82-5.95-2.49-8.96-4.07-3.37-1.79-8.44-4.71-11.27-5.95-2.46-1.03-4.21-.86-6.82-2.05-4.64-2.04-9.32-5.37-13.51-7.64-2.93-1.61-7.64-4.33-9.99-5.29,0,0-1.68.45-1.77.47-2.19,0-5.58-1.49-9.35-3.27-3.76-1.78-7.84-3.97-11.32-5.43-2.02-.85-5.36-2.15-9.14-3.63-3.79-1.48-8.07-3.32-12.41-4.64-8.52-2.8-16.48-5.34-18.42-5.52-5.01-.45-6.58-2.62-10.42-4.28-8.79-3.42-20.9-5.46-32.7-8.57-3.12-.86-6.49-1.55-9.75-2.17-3.28-.71-6.54-1.34-9.42-2.06-5.11-1.22-10.24-3.23-14.88-4.18-3.82-.87-7.44-.6-11.28-1.16-6.44-.96-12.52-2.82-16.59-3.13-3.16-.25-5.38,1.14-8.64.12-.95-.94-2.13-1.62-3.54-2.04-1.32-.44-2.88-.72-4.55-.97-3.3-.41-7.11-.49-11.13-1-2.67-.28-4.32-1.23-6.89-1.54-4.73-.53-9.72-.58-14.01-1.33-2.39-.36-3.24-.93-5.58-1.1-1.4-.02-4.98.74-5.71.63-.54-.15.29-.78-1.39-.72-3.08.03-5.44,1.66-8.47.38-2.77-.65,1.18-3.4-3.95-3.22-1.71-.04-2.05.55-2.95.89-1.67.85.06.58-2.83.96-5.25.51-10.88-1.17-18.15-1.51-2.22-.1-5.57.79-8.44.87-2.29.02-4.29-.74-7-.81-1.52-.09-3.11-.06-4.76.08s-3.4.31-5.18.39c-3.59.36-7.3.66-11.08.68-3.99-.03-7.55-.67-11.19-.49-2.94.19-5.31,1.02-8.32,1.33-9.58,1.07-24.18,2-30.73,1.76-2.1-.03-1.26-1.36-4.22-.86-3.73.2-.97,2.35-5.45,2.36-4.03.58-4.4-.81-8.46-.32-5.83,3.55-12.47,2.94-19.23,3.76-9.83,1.64-24.41,3.75-33.12,5.09-2.28.41-5.23,1.7-8.09,2.17-2.28.41-5.36.44-6.95.86-4,1.07-7.65,3.05-11.93,4.19-6.72,1.7-14.83,3.08-23.05,5.48-3.97,1.16-6.82,2.82-10.51,3.91-4.09,1.1-7.8,1.39-12.21,2.77-4.28,1.15-8.03,3.15-9.14,3.45-2.7.72-4.83.2-7.04.89-7.04,2.38-11.86,5.57-16.6,7.24-1.67.45-5.06.46-6.94,1.26-3.43,1.32-6.11,3.63-9.9,5.44-3.43,1.72-7.58,3.33-11.68,5.12-4.17,1.91-8.46,3.76-12.38,5.51-1.44.58-5.02,1.35-6.62,2.07-2.2,1.09-3.46,2.72-5.99,3.7-1.6.73-3.34,1.29-4.97,1.93-1.62.63-3.32,1.39-5.03,2.05-3.41,1.41-6.82,2.82-10.41,4.68-1.83.99-3.9,2.54-6.04,3.51-3.2,1.45-7.11,2.1-10.47,3.7-2.96,1.59-7.43,4.28-9.53,5.74-1.94,1.32-5.62,4.69-5.94,6.47,6.8-3.62,14.42-7.95,19.59-10.23,9.67-4.09,20.37-9.54,30.91-14.46,10.71-4.66,21.08-9.13,29.62-12.22,1.74-.57,4.17-.42,5.57-.79,1.3-.35.76-.9,1.13-1,1.16-.51,1.43.12,1.52.09,6.88-2.24,10.02-2.78,12.41-2.03,4.22-.24,9.33-3.5,11.8-3.56-.14,2.83,1.4,4.11-.36,7.57,3.5-1.44,6.24-2.77,8.42-3.55,2.27-.81,4.12-1,6.12.15,1.05-1.28,2.88-.77,3.88-1.14,2.57-1.19,1.67-1.94,4.71-3.25,2.23-.99,3.12-.24,5.4-1.05,3.02-1.01,5.79-4.44,9.99-4.77,3.19,1.14-4.76,3.07-.71,2.58,4.41-3.27,9.21-3.56,12.86-4.44,1.67-.45,1.59-1.12,3.78-1.51,2.26-.51,3.27-.08,5.38-.75,5.78-1.85,8.03-4.64,12.71-5.4,2.56-.49,6.03.57,9.71-.21,2.16-.48,4.22-2.13,6.4-2.51,2.25.59,3.66,1.01,5.46-.47,2.6-2.19,7.81-2.09,11.91-2.79,3.42-.62,17.29-3.93,18.64-4.1,2.7-.33,4.24.56,6.92.14.46-.12,1.7-1.45,3.92-1.75,1.93-.22,2.53.52,5.49.02,3.14-.54,5.9-1.78,9.4-2.12,2.33-.23,4.73.53,6.9.44,6.11-.24,11.16-1.5,16.18-3.24,4.04.21,9.96,2.21,10.95-.05.29-.77-2.69-.37-2.77-1.05,5.85-.47,11.71-.95,12.35,1.07.38-1.2,3.24-1.67,5.43-2.05,1.95-.52,8.23-.91,10.94-.84,2.73.16,3.8,1.17,6.88,1.14,3.45-.13,6.5-1.04,10.93-1.24,8.3-.63,17.88.89,24.67.56,2.26-.11,4.54-.92,6.95-.86,1.7.04,1.88.69,4.1.79,1.8.02,1.93-.62,4.17-.42,1.73.13,3.67,1.41,5.4,1.54,2.34.17,4.74-1.67,6.93-.56,1.28,2.55-8.4-.84-5.63,2.41,10.44,1.39,14.75-.76,21.75,1.94,3.45-.53-1.32-2.33,1.6-2.22,1.21,1.17,7.85,1.78,12.14,2.52,6.11.85,13.77,1.19,19.15,1.54.46-1.62-9.02-.57-6.52-2.74,5.6-.31,11.59,1.97,17.72,2.52,4.03.51,7.96-1.54,11.01.93,3.46,1.36-3.77.81-4.48,1.5,1.17,1.78,6.56,1.43,10.67,2.62,2.49.73,2.48,1.82,5.17,2.2.3.02,2.93-.98,4.42-.99,2.87-.07,6.95,2.12,5.65-.12-8.59-1.18-16.55-.75-17.16-5.66,8.85,2.51,18.35,3.75,28.07,5.82,4.85.99,9.79,1.96,14.76,3.02,4.99,1.15,10.15,2.16,15.1,3.92,2.73,2.75-5.76.84-5.33,3.92l9.2,2.71c.31-1.08-3.37-1.79-2.01-3.05,5.88,2.21,11.72,3.93,17.42,5.49,2.88.72,5.67,1.47,8.54,2.1,2.79.75,5.49,1.52,8.28,2.26,5.4,1.54,10.68,3.02,15.63,4.78,2.54.91,4.98,1.85,7.27,2.93,1.15.59,2.38,1.06,3.44,1.67,1.15.59,2.24,1.29,3.33,2-.36-2.09,3.88.35,3.64-1.67-2.19-1.11-6.64-2.1-4.75-3.21,5.56,1.4,10.92,3.55,15.58,5.69,3.65,1.71,6.42,4.25,8.28,5.25,1.86,1,4.42,1.61,6.37,2.58.59.34,2.26,2.09,3.32,2.7,1.44.91,3.48,1.46,5.01,2.34,2.97,1.79,2.66,2.48,4.5,3.38,4.23,2.05,8.62,3.17,13.19,4.23,3.14,2.05-3.37.8,1.48,3.29,2.47-.46,3.53.15,6.96,1.42,1.57.67,1.96-.13,2.94.21,1.77.62,2.42,1.94,3.36,2.49,3.14,1.65,9.61,3.1,11.8,4.21,3.1,1.56,7.2,4.94,10.41,6.87,1.18.68,1.69.34,2.72.86.47.27,1.13,1.59,3.29,2.6,1.96.97,3.64.92,5.35,1.75,1.63.86.55,1.65,1.75,2.42.24.14,4.81.1,6.56,2.53.78,2.18-4.67.06-1.53,2.5,4.97,2.55,9.35,3.27,12.69,5.67,3.63,2.41,5.05,4.72,7.46,6.27.59.34.48-1.92,2.09-.76-.27-.23.3,4.1,2.49,3.71,2.57.31.31-.68,1.27-1.94,3.27,1.41,5.59,2.99,7.93,4.65,1.11.8,2.24,1.69,3.35,2.49,1.14.89,2.3,1.87,3.65,2.81,9.26,6.68,20.97,11.71,23.58,16.99-.94-.54-2.12-1.62-2.51-1.22,4.23,1.66,6.28,5.59,9.45,8.12,2.79,2.24,4.37,1.82,7.22,4.24,2.29,1.87,1.7,3.03,4.68,5.22.93-.65-.43-1.98.38-2.69,3.03,2.38,3.95,4.32,6.77,7.05,1.61,1.56,3.59,2.23,5.67,4.06,7.04,6.18,14.49,14.25,21.03,20.06,2.87,2.52,6.12,4.24,8.87,6.69-.03-.09.14,1.65.19,1.84.5.76,2.28,2.18,3.04,2.77,1.23,1.26,3.05,2.47,4.8,3.79,1.75,1.32,3.52,2.74,4.88,4.07,2.02,1.95,3.74,4.67,6.36,7.36,2.73,2.75,5.94,5.08,8.18,7.47,1.37,1.42,2.64,4.27,3.85,5.84.79,1.08,1.51.79,2.25,1.69,5.1,6.01,10.87,13.42,16.52,20.37,4.11,5.28,9.42,10.23,13.55,15.59,1.67,2.14,2.94,4.29,4.29,6.32,1.27,2.15,2.52,4.2,4.19,6.35,1.67,2.14,3.87,4.04,5.45,6.21,1.27,1.75,1.77,4.01,3.25,6.2,3.53,5.33,7.71,11.28,12.02,17.3,2.19,3,4.3,6.02,6.5,9.01,1,1.52,2.08,2.93,3.08,4.45.99,1.43,1.81,3,2.69,4.46,1.09,1.8,1.55,4.27,2.73,6.44,1.76,3.21,7.18,9.33,4.32,10.2-5.01-6.43-7.13-12.13-11.94-20.01-3.42-5.36-7.47-11.15-11.2-16.52-1.82-2.7-3.61-5.31-5.27-7.75-1.62-2.35-3.2-4.52-4.33-6.51-1.23-1.96-1.08-3.3-2.38-5.14-.81-1.18-3.55-2.83-4.17-3.66-2.78-3.34-5.56-8.47-6.13-9.11-1.14-1.29-2.52-1.22-3.57-2.53,0,0,.16-1.64.02-1.8-.43-.88-2-2.25-2.64-3.18-4.64-6.52-10.91-14.31-13.54-13.7,2.74,4.64,8.48,10.08,11.37,13.79,2.74,3.55,4.86,7.36,7.64,11.4.81,1.18,1.43.91,2.08,1.83,2.6,3.39,6.07,8.14,9.56,12.98,1.74,2.42,3.58,4.82,5.12,7.19,1.53,2.38,2.95,4.69,4.26,6.63,2.95,4.69,5.77,8.12,8.52,12.46,1.2,1.87,2.21,3.79,3.25,5.8.95,2.04,2.01,4.14,3.28,6.29,2.19,3.7,4.87,7.36,6.48,10.42,1.06,2.11,1.64,4.24,2.61,6.37,1.3,2.64,5.24,7.66,2.63,7.96-2.21-4.89-6.04-9.14-8.52-13.95-1.26-2.45-1.29-4.04-2.61-6.37-.79-1.48-1.92-1.98-3.34-4.28-2.57-4.39-4.87-9.25-8.11-14.26-9.69-15.73-24.44-32.09-31.44-42.97-1.3-1.85-1.18-3.27-2.54-5-1.88-2.18-4.97-3.65-7.46-6.27-2.5-2.62-3.83-5.35-6.45-8.83-7.72-9.09-20.47-22.8-32.83-34.73-1.88-1.79-1.7-2.63-3.43-4.26-5.21-5.28-10.5-9.04-15.09-13.89-4.56-4.75-6.76-6.26-10.91-10.22-1.88-1.79-3.01-3.78-4.73-5.01-1.87-1.39-3.22-1.23-4.9-2.67-1.45-1.31-1.64-2.75-3.39-4.47.02.09-2.17-1.01-3.5-2.25-1.33-1.24-.96-1.73-2.74-3.15-2.27-1.78-5.55-2.89-8.37-4.83-3.99-2.62-8.85-7.39-13.89-10.92-1.72-1.23-4.73-2.42-6.05-3.26-3.14-2.05-7.1-5.27-7.62-5.73-1.3-1.14-4.63-2.04-6.93-4.32-1.5-1.49-1.79-3.31-3.42-4.56-1.8-1.51-3.67-1.8-5.83-3.52-1.49-1.09-2.96-2.49-4.43-3.89-1.56-1.37-3.13-2.75-5.04-3.93-5.38-3.74-11.45-6.29-17.77-10.18-2.29-1.48-4.36-3.61-6.67-4.79-1.98-1.06-5.19-1.9-7.62-3.14-8.81-4.61-17.84-11.16-25.98-14.75-2.16-1.01-4.67-1.44-6.55-2.13-3.57-1.43-6.79-3.76-10.79-5.67-2.07-1.04-3.95-1.33-6.35-2.48-2.28-1.08-3.87-2.55-5.89-3.4-4.37-1.82-11.2-3.87-14.23-4.75-3.48-1.06-5.15-2.11-6.64-3.2-1.49-1.09-2.7-2.26-5.22-3.48-1.04-.52-4.97-1.46-7.75-2.51-2.47-1.03-6.35-2.48-8.75-3.63-2.17-1.01-2.79-2.24-4.63-3.14-4.15-2.08-6.94-2.82-9.23-3.2-2.36-.26-4.25-.25-6.56-1.03-2.93-.91-5.63-3.17-8.53-4.29-2.33-.87-5.62-.88-8.11-1.61-2.28-.68-4.03-2.01-6.23-2.81-1.76-.62-2.55-.21-5.3-1.17-4.06-1.4-11.25-3.66-15.58-4.59-1.8-.41-3.6-.03-5.49-.42-2.11-.43-4.39-1.51-6.5-1.94-2.83-.54-4.77-.32-6.76-.68.84.17-3.13-1.25-3.81-1.57-2-.76-8.71-2.75-11.84-2.9-.4,0,.09,1.07-.28,1.17-2.59.39-12.62-3.59-11.69-3.44-2.41-.45-4.55.12-6.87-.35-.3-.02-2.83-1.63-3.7-1.9-1.29-.35-1.72.26-2.78.05-.42-.09-.99-.73-2.47-1.03-9.4-1.96-16.09-1.66-21.42-2.93-1.69-.34-4.7-1.93-6.46-2.15-.63-.13-1.88.8-4.12.61-2.46-.24-2.92-1.21-5.23-1.29-1.52-.09-3.87.44-5.48.37-7.38-.01-10.43-2.09-15.97-2.69-1.73-.13-4.26.84-6.83.54-5.97-.69-3.05-2.07-6.64-.61-1.53.61-4.9.32-8.9-.11-4-.42-8.59-1.18-12.63-1-5.16.09-9.88,1.45-13.52,1.23-2.83-.14-5.47-1.42-7.99-1.54-7.71-.52-19.43.03-28.2.39-1.77.08-3.91,1.05-5.35,1.23-2.03.24-4.99.34-7.89.32-2.85.17-5.44.16-6.87.05-2.03-.15-3.41-1.58-5.46-1.42-3.15.15-6.32,1.69-10.63,2.35-4.03.58-9.2.27-12.06.74-1.82.29-2.57,1.19-3.87,1.54-6.05,1.62-11.05,1.17-15.9,1.67-7.18.73-12.86,2.95-17.01,3.86-5.59,1.1-11.45,1.17-17.2,2.02-2.68.42-5.92,2.08-9.06,2.63-.58.06-2.92-.11-5.36.44-2.51.67-2.57,1.58-3.66,1.98-1.49.4-5.02.25-7.9,1.02-3.91,1.05-6.82,1.33-10.4,2.09-1.21.32-3.09.73-5.33,1.33-2.14.57-4.6,1.43-6.9,2.15-4.69,1.46-9.17,2.96-10.78,3.29-.65.17-.88-.66-2.75.14-1.16.51-1.15,1.3-3.54,2.04-4.83,1.69-8.14,1.98-10.08,3.3-4.69,2.95-12.96,7.06-17.62,6.02-3.39,4.09-7.56,3.42-12.44,4.53-6.65,1.58-6.66,2.28-12.32,4.99-3.27,1.57-7.19,2.92-8.49,3.67-.28.07.62.83.39,1.09-1.36,1.26-4.24,2.03-7.1,2.5-2.84.56-5.68,1.12-6.96,1.57-2.25.9-4.76,3.07-6.87,4.13-2.2,1.09-2.93.59-5.09,1.46-3.32,1.39-7.18,3.32-11.05,5.25-3.96,1.96-7.85,4.19-11.37,5.93-2.2,1.09-4.37,1.17-6.17,2.25-1.83.99-2.14,2.07-4.29,3.34-1.9,1.11-4.1,1.8-5.93,2.78-.5,2.23,1.02,1.22.05,3.17-1.62,1.03-6.31,2.49-5.55,3.48.99.73,2.55.21,4.38-.77,1.73-.96,3.82-2.12,5.51-2.87,4.41-1.78,10.71-3.57,14.74-5.64,2.55-1.28,3.4-3.3,6.36-4.89,3.38-1.9,5.61-2.5,7.4-2.88,1.79-.38,3.17-.45,5.07-1.16,1.81-.68,5.08-3.35,7.26-3.04-1.69.75-3.81,4.01-1.53,3.2,6.08-1.13,6.64-4.97,9.98-6.66,1.23-.63,2.31-.32,2.65-.51,2.62-1,4.62-2.83,6.54-1.25-4.18,1.12-7.35,3.46-4.26,3.43,5.05-2.35,5.33-5.01,9.8-7.31,3.33-1.69,6.97-1.87,11.25-3.41-.19.05,2.43-1.35,3.49-1.83,4.75-2.37,16.48-5.81,19.46-8.1-.1,2.62,4.21,1.56,5.81,1.23.56-.15,5.67-1.92,7.31-2.85.35-.19-.55-.95-.3-1.12.32-.29,2.16-.48,2.51-.67.23-.26.48-1.92.74-2.09,2.89-1.47,7.37-2.27,8.84-2.37-.2.75.84,2.76,2.37,3.65,4.98-1.13,3.55-2.74.7-2.58,5.12-2.47,5.91.11,6.8.07,2.54-.18,5.75.25,7.5-2.51-2.35.53-4.28.75-5.35.14,3.25-2.37,8.38-1.85,12.7-3.2,2.79-.75,3.68-1.88,6.22-2.46,1.67-.45,1.44.91,2.86.63,1.58-.42,3.17-1.55,4.89-2.21,5.29-1.82,12.23-3.48,17.91-4.2,2.15-.18,4.71.83,6.78.77,3.34-.2,16.43-1.91,16.9-2.04,3.21-.66,7.15-3.81,10.05-3.79,4.02.12,5.47,1.82,9.49,1.94,1.25-2.03,6.59-1.07,7.8-1.39.37-.1,1.78-1.17,2.5-1.47,2.27-.81,4.51-1.01,6.83-.93,1.19-.02,2.41.05,3.62.13,1.22.07,2.52.12,3.92.14,2.23-.6,1.52-2.5,6.41-2.12,1.47,1.4-5.98,2.6.13,2.35,5.81-.26-2.17-2.9,3.7-3.68,7.65-.46,3.15,2.84,4.16,3.27,3.96.63,4.05-1.98,6.45-2.72,1.67-.45,4.69.04,6.58-.37,1.3-.35,1.22-1.02,3.95-1.26,1.66-.14,4.7.43,6.62.52,3.13.16,6.47-.04,9.15-.06,3.69,0,14.76-1.46,17.12-1.2,6.1.46,13.67,3.41,20.92,2.56,2.2-1.09-.11-.77.08-2.31,6.57.33.61,1.53,5.16,2.5,3.59.73,7.67.73,11.55.69,3.97-.07,7.75-.09,10.67,1.13.4-1.1-1.38-1.42-1.04-2.41,4.91-1.02,9.45,1.05,14.37,1.93,4.17.68,10.22,2.04,11.64,2.16,2.13.13,3.19-.75,5.36-.44,2.08.34,4.14,1.68,6.34,2.09,3.68.71,8.7.46,13.12,1.36,1.9.39,2.19,1.11,5.09,1.52,3.75.59,8.63.58,13.12,1.36,3.11.46,6.56,1.43,9.04,1.76,2.06.25,5.02-.25,6.64.21,2.28.68,3.85,2.85,6.06,3.26.5-2.23,13.46.77,17.22,1.76,1.74.53,4.2,2.66,5.96,3.28,1.1.4,3.55.24,6.42,1.27,6.51,2.34,13.22,4.33,18.66,6.75-1.91-1.18-3.39-2.98.71-2.18,5.2,2.29.63,1.62,1.8,3,2.37.66,4.3,1.54,5.88,2.21,1.6.77,2.92,1.21,4.17,1.07,1.84-.19-.13-.86,2.82-.26,1.36.23,1.94,1.27,2.29,1.48,2.56,1.01,7.23.95,7.22,3.14,0-1.89,3.68-.39,5.76-.45,3.75,3.58,9.04,6.94,15.24,8.17.21.04.33-.99.4-1.1,1.57-1.22,6.96,2.92,9.73,3.97,1.79.72,2.46.24,5.07,1.43,3.06,1.37,5.34,3.55,8.11,4.6,2.33.87,5.2,1.2,7.74,2.11,3.79,1.48,8.58,3.38,12.23,5.09,3.32,1.6,6.65,3.6,9.79,5.64,1.55.98,3.23,2.02,4.86,2.88,1.55.98,3.11,1.95,4.71,2.72,7.54,3.96,16.02,8.46,22.08,11.71,5.07,2.92,10.27,5.61,15.41,8.42,2.57,1.4,5.16,2.9,7.78,4.49,1.3.75,2.53,1.61,3.85,2.46,1.23.87,2.39,1.85,3.64,2.81,2.88,1.82,2.77-.84,5.62.88,1.41,4.9,8.04,7.31,13.47,10.83,2.38,1.45,4.13,2.78,5.74,3.94,1.61,1.16,3.21,2.33,5.06,3.62,4.84,3.18,11.21,8.75,13.55,10.41,1.11.8,3.18,1.44,3.49,1.86,2.51,2.31,3.63,5,6.19,7.11,7.06,5.88,16.51,9.92,21.86,16.85-2.95-1.7-6.56-4.02-8.11-4.6-.45-.18-2.79-.75-2.79-.75-2.29-1.48-4.25-6.93-7.2-5.64,4.64,2.44,4.86,5.47,8.2,8.66,1.74,1.63,2.69,1.47,4.37,2.91,2.47,2.13,3.55,3.93,5.58,5.58,2.16,1.71,4.37,2.91,6.34,4.68,1.85,1.7,2.58,3.29,4.17,5.16,1.07,1.01,6.29,4.49,4.08,5.18-5.86-4.4-11.77-9.7-16.1-13.22-2.53-2.01-4.99-4.14-7.46-6.27-2.37-2.15-4.99-4.14-7.46-6.27-4.93-4.26-9.86-8.51-14.81-12.86-3.62-3.11-9.66-7.77-11.26-8.93-3.14-2.05-6.66-2.9-9.51-4.62-1.68-1.05-3.41-2.28-5.06-3.62-1.75-1.32-3.5-2.65-5.25-3.97-3.53-2.74-7.08-5.57-10.69-7.89-2.17-1.41-3.81-1.57-5.79-3.03-2.02-1.55-3.64-3.91-6.07-5.15-1.62-.86-4.76-1.02-6.57-1.83-2.85-1.33-6.12-4.24-9.8-6.44-2.73-1.66-5.23-2.78-7.44-3.98-2.38-1.06-4.43-2-6.43-3.16-2.36-1.36-3.24-2.42-5.45-3.62-2.78-1.45-5.99-1.88-8.63-3.17-2.4-1.15-5.81-3.82-8.98-5.26-3.77-1.78-7.58-3.35-10.62-5.02-4.05-2.1-8.12-3.9-12.38-5.65-2.12-.83-4.16-1.77-6.28-2.6-2.21-.8-4.32-1.63-6.46-2.55-3.57-1.43-5.94-3.19-9.37-4.46-5.22-1.99-10.78-3.39-16.09-5.35-3.47-1.06-5.7-2.66-9.64-3.99-4.96-1.76-11.2-3.47-16.1-5.05-5.94-2.09-11.74-3.63-17.28-5.33-5.54-1.7-10.96-3.34-16.27-4.9-4.91-1.57-10.42-1.69-15.39-2.75-2.41-.45-2.64-1.29-4.86-1.78-3.52-.85-8.11-1.61-11.46-2.21-4.94-.97-7.22-1.65-11.41-2.42-2.95-.6-5.89-.41-9.08-1.15-2.34-.57-4.18-1.47-6.26-1.81-1.66-.25-2.77.44-5.32.23.19-.05-2.1-1.13-3.73-1.29-2.69-.37-5.78-.74-7.7-1.22.96.24-4.24-.56-3.84-.56-1.43-.12-3.09.73-4.03.58-2.46-.24-5.98-1.49-8.86-1.81-2.76-.26-4.15.12-6.47-.36-2.95-.6-5.85-1.02-8.62-1.67-2.77-.65-5.37-1.45-7.91-2.36-3.04,1.31-6.28,1.48-10.04,1.2-1.85-.2-3.91-.45-6.18-.74-1.12-.1-2.27-.29-3.51-.45-1.22-.07-2.43-.15-3.83-.17-2.92-.11-10.33-.22-14.24.03-2.36.13-3.51,1.04-5.22,1-.82-.08-1.26-1.36-3.85-1.36-3.17.05-2.32,1.02-6.52.95-9.57-.02-19.9-1.74-29.72.3,3.11,3.05-1.37,3.45-1.14,5.78-6.29-.41-14.11.89-15.2,3.18,6.1.06,12.04-.83,17.89-1.31,5.78-.36,11.36-.75,16.55-.35,2.43.15,4.24.95,6.37,1.08,1.61.07,2.37-.83,5.1-.67,1.61.07,2.33,1.27,3.83,1.27,0,0,1.83-.99,2.6-1.09,10.59-1.04,11.02,3.92,17.68,4.23,1.24-1.33-5.54-3.2.11-2.92.46,3.96,3.05-.52,2.56-.49,2.68-.02,5.85,1.02,8.81,1.62,7.94,1.36,19.37,1.98,27.84,3.1,8.01,1.24,15.58,4.59,22.75,3.07-2.83-3.13-13.53-.66-13.55-4.83,3.69,1.5,7.21.86,8.89,1.2,2.13.52,2.48,1.43,4.89,1.88,3.56.64,8.82-.57,11.25,2.17-2.43-.15-5.43-.54-5.33.93,5.08,2.22,9.67,1.49,15.06,2.64,1.8.41,3.98,1.82,6.02,2.37,3.75.99,9.04,1.36,13.81,2.08,1.24.17,1.32.84,2.38,1.06,2.44.54,3.97.33,6.19,1.53,2.21,1.2,12.36,3.36,14.82,3.6.19-.05.93-1.35,1.64-1.33,1.4.02,4.93,1.27,4.77,1.81-1.57-.28-2.93-.51-2.75.54,1.63.86,3.6,1.53,5.66,2.17,2,.76,4.16,1.38,6.29,1.9,4.2,1.17,8.35,2.15,11.19,3.08,1.76.62,3.77,2.18,5.77,2.94,1.43.51,1.96-.13,3.84.56,3.05.98,6.36,2.18,9.7,3.48,3.31,1.2,6.81,2.36,10.24,3.63,3.52,1.25,7.05,2.49,10.45,3.67,1.76.62,3.43,1.27,5.1,1.92,1.69.74,3.29,1.51,4.87,2.18,1.6.77,1.66,1.75,3.05,2.47-.24-.14,2.36.26,3.73.89.68.32,5.93,4.29,4.95,1.36,5,1.55,1.13,3.48,6.13,5.03,1.98-.03,4.59.76,7.29,1.93,2.64,1.29,5.51,2.71,8.17,3.69,1.88.69,3.22-.26,5.09,1.13-.39,2.99,7.1,4.17,10.9,6.44,2.03,1.25,3.98,3.71,6.08,4.84,1.39.72,3.99,1.12,6.1,1.95,2,.76,5.13,2.01,6.99,3.01,2.59,1.5,4.62,3.84,7.25,5.13,2.43,1.24,4.79,1.51,7.19,2.65,2.31,2.27-2.79.35-.07,2.71,3.15,1.35,6.33,4.28,10.87,6.35,2.38,1.06,3.38.69,6.06,2.16,1.54.88,3.39,2.58,5.18,3.69,5.39,3.74,13.56,9.31,19.05,12.33,2.95,1.7,5.57,2.19,8.03,3.92,1.49,1.1,3.12,3.45,4.42,4.59,1.28,1.05,3.53,1.64,5.45,3.22,1.63,1.25,2.79,3.34,4.42,4.59,1.13.89,3.79,1.87,5.45,3.22.49.37.98,1.43,2.63,2.78,1.75,1.32,2.73,1.26,4.3,2.63,1.94,1.67,2.63,3.48,4.28,4.83,1.66,1.35,3.81,1.57,5.68,2.96,1.25.96,2.25,3.18,3.27,4.01,1.54,1.28,3.77,2.18,5.21,3.48,4.58,4.05,9.99,8.98,15.42,14,1.33,1.24,2.77,2.54,4.1,3.78,1.35,1.33,2.71,2.66,3.94,3.92,2.59,2.59,5.27,5.16,7.69,7.5,1.07,1.01,3.93,2.73,5.02,3.83,1.95,2.07.95,2.44,2.85,4.32,1.64,1.65,2.31,1.57,3.93,3.13,1.35,1.33,2.53,3.5,3.08,4.05,1.7,1.53,2.56,1.01,4.34,2.82,1.38,1.42,1.52,3.08,2.69,4.46.71.81,5.95,5.08,7.42,6.88,7.03,7.98,17.89,19.51,27.46,31.79,2.5,3.01,4.91,6.05,7.3,9,2.22,3.09,4.42,6.09,6.47,8.92,4.05,5.79,7.7,10.88,10.25,15.18,1.13,1.99,2.05,5.03,3.34,6.88,0,0,1.57.28,1.68.35,2.88,1.82,3.45,5.05,4.94,7.24,1.6,2.26,4.97,7.03,6.29,9.37,1.95,3.16,4.83,6.48,6.46,9.23.7,1.11.87,3.25,1.69,4.83.77,1.39,1.49,1.09,2.48,2.92.72,1.2,1.47,2.5,2.33,3.86.77,1.39,1.54,2.77,2.34,4.26,1.68,2.93,3.39,5.96,5.17,9.27,1.78,3.31,3.69,6.68,5.7,10.12,1.86,3.59,3.56,7.31,5.37,11.11,1.6,3.36,3.32,7.18,4.66,10.31,1.53,3.47,1.74,6.5,2.73,9.82,2.02,6.03,4.99,10.81,5.28,14.12.1.37-.93.25-1.06.48-.14.24.69,2.21.46,2.47-.6.76-2.51-.42-2.65-.19-.78,1.9,1.2,5.95-.58,5.64-1.05-.22-4.4-3.4-6.28-6.68-1.15-2.08-1.1-4.88-2.03-7.22-.76-2.09-1.72-2.33-2.62-4.18-.65-1.32-.19-1.84-.97-3.62-.87-2.16-1.78-2.21-2.7-4.15-1.24-2.76-2.09-6.31-3.5-9.32-2.22-4.58-5.42-10.2-7.98-15.29-1.94-3.86-3.12-7.93-5.03-11.3-1.85-3.19-3.21-5.31-4.88-8.55-2.17-4-4.9-8.25-7.78-12.66-2.87-4.41-5.94-9.16-9.12-13.59-3.18-4.43-6.33-8.76-9.13-12.89-2.81-4.13-5.23-7.96-7.32-11.29-.88-1.45-.93-3.13-2.03-4.63-3.95-5.42-9.76-11.13-13.65-15.96-1.19-1.47-1.96-3.96-2.96-5.48-.99-1.43-3.35-3.19-4.37-4.41-2.53-3.11-5.85-7.3-8.68-10.42-5.09-5.61-9.27-12.65-14.37-18.66-1.05-1.31-3.31-2.7-4.69-4.12-4.51-4.57-9.44-10.32-13.02-13.24-1.77-1.42-3.35-2.09-5.12-3.51-3.23-2.72-5.88-6.29-6.8-7.14-4.29-3.73-6.67-3.29-7.72-7.99-1.59-1.47-3.22-2.32-4.91-3.07-1.7-.74-3.27-1.41-4.97-2.55-.62-.43-2.53-3.11-4.28-4.43-.87-.66-3.49-2.25-4.5-2.28,2.78,2.54,6.67,6.28,10.39,9.77,3.73,3.48,6.99,7.09,9,9.04,2.45,2.43,5.37,5.14,8.05,7.7,2.68,2.57,5.13,5,6.68,7.07,1.22,1.57,1.24,3.15,2.18,4.79.7,1.11,1.75,2.42,2.11,3.02,2.47,4.02,4.89,3.77,7.25,6.62,1.14,1.29,1.99,2.95,2.93,4.59.84,1.67,1.71,3.42,2.84,5.02,1.62,2.35,4.39,4.5,6.52,7.22.78,1.08,1.28,2.94,2.38,4.44s3.11,3.05,4.12,4.57c2.74,4.65,2.88,7.79,4.61,12.01-1.8,1.08-3.21-2.33-4.13-1.28-.32.29,3.18,4.43.44,4.26-5-3.44-7.27-7.81-11.3-12.41-2.81-3.43-6.44-6.94-8.8-9.79-1.07-1.4-.6-2.23-1.53-3.47-.88-1.06-2.08-1.43-3.65-3.21-2.61-2.69-4.89-6.36-7.6-9.42-2.69-2.96-5.8-5.62-8.39-8.61-1.48-1.8-2.66-3.97-4.37-5.9-4.64-5.03-10.9-9.43-15.82-14.78-1.64-1.65-2.94-3.89-4.7-5.61-3.72-3.48-8.17-6.68-11.92-10.25-2.13-2.02-3.43-4.26-5.78-6.32-3.38-2.98-7.12-5.76-10.86-8.54-3.76-2.88-7.49-5.66-11.14-8.47-3.4-2.67-7.85-6.26-12.19-9.78-2.15-1.71-4.33-3.52-6.25-5.1-1.98-1.46-3.85-2.85-5.34-3.95-1.84-1.3-3.51-1.55-4.36-2.12-.35-.2-1.65-2.45-3.47-3.65-1.32-.84-1.87-.29-3.38-1.48-1.37-1.03-1.89-2.58-3.47-3.65-.24-.14-1.81-.41-3.39-1.48-7.51-4.96-18.56-10.86-25.98-15.85-1.91-1.18-2.85-2.82-4.82-3.89-2.78-1.45-6.16-2.14-9.12-3.53-2.62-1.19-5.06-3.23-8.33-5.04-1.51-.79-2.36-.26-4.7-1.53-3.16-1.74-4.31-1.93-7.74-3.6-1.6-.77-1.71-1.53-4.18-2.57-2.59-1.1-5.47-1.82-7.92-3.16-1.96-.97-2.71-3.06-4.81-4.19-1.04-.52-2.2-.41-3.61-.83-5.68-1.86-13.09-4.96-20.45-8.26-1.81-.81-3.62-1.62-5.43-2.43-1.88-.69-3.67-1.41-5.36-2.15-3.46-1.36-6.68-2.59-9.36-3.67-1.46-.61-1.84.19-3.68-.71-.21-.04-.35-1.3-.79-1.48-3.94-2.43-8.79-1.93-11.84-2.9-2.58-.7-4.97-2.55-7.84-3.58-4.75-1.72-9.57-2.22-15.41-3.94-1.53-.49-3.05-.97-4.6-1.56-1.55-.58-3.17-1.04-4.72-1.62-3.17-1.04-6.34-2.09-9.22-2.81-1.8-.41-4.19-.37-6.11-.85-3.66-1.01-7.46-2.18-11.17-3.38-3.75-.99-7.6-1.95-11.18-2.68-1.9-.39-4.46-.3-4.89-.38-1.69-.34-2.03-1.25-4.67-1.44-1.33-.14-2.93.59-3.78.41-1.78-.32-2.38-1.06-3.52-1.25-2.23-.5-2.75.14-4.93-.17-7.82-1.29-16.8-3.57-24.1-4-1.4-.02-3.3.69-4.94.53-.19.05-3.06-1.37-3.48-1.46-1.78-.32-4.48,0-6.13-.55-1.95-.57-2.97-2.89-5.86-2.91-3.34,1.29-8.01,1.35-13.13.83-5.14-.22-10.9-.86-16.29-.91-4.39-.02-8.89.69-13.49.63-1.82-.11-3.96-.63-6.13-.55-2.17.08-2.79.75-4.92.62-3.23-.13-6.35-.99-9.76-1.07-5.49-.02-11.01.56-17.08.99-5.3.32-9.18-.43-13.4.2-2.31.32-3.62,1.37-6.07,1.53-1.38.07-4.52-.88-6.18-.74-8.22.21-19.19,3.15-24.28,3.12-1.31-.05-1.58-1.07-2.54-.91-.77.11-3.22,1.36-4.71,1.76-6.09,1.83-11.09,1.78-15.7,2.41-2.58.39-5.21,1.4-8.38,1.85-3.94.56-6.92.96-8.36,1.54-.72.29-.25,2.06-.82,2.51-.83.62-3.74.9-4.67,1.55-.32.29.62.83.3,1.12-3,2.2-5.43,3.55-7.75,4.57-2.13.97-4.51,2.5-5.51,2.87-1.34.56-3.47.43-4.72.97-2.55,1.28-3.09,2.22-5.44,3.15-1.72.66-4.07.79-5.77,1.54-2.25.9-2.63,1.7-4.38,2.27-5.2,1.79-5.41,1.75-7.82,3.19-1.2.72-2.27,1.21-3.14,2.04-1.52,1.4.6,2.23-.2,3.74-.66,1.27-5.33,5.01-6.93,5.74-1.48.8-2.01-.06-5.77,1.15-1.65.54-1.85,1.29-4.36,1.96-2.42.65-5.31.63-8.32,1.33-7.35,1.97-17.98,5.81-25.65,9.16-1.44.58-1.93,1.71-2.88,2.27-1.71,1.06-4.27,1.54-6.54,2.75-2.08,1.16-3.42,2.51-4.99,3.33-2.29,1.11-4.62,1.74-6.54,2.75-2.36,1.23-3.76,2.7-6.08,3.72-4.49,2.2-8.58,3.69-12.77,5.91-3.91,2.14-7.23,5.02-10.98,7.02-1.04.58-2.29,1.11-3.45,1.62-1.16.51-2.11,1.06-2.87,1.57-2.03,1.34-2.85,2.75-4.68,3.74-4.72,2.86-9.4,4.71-13.45,7.09-1.9,1.11-3.06,2.71-4.56,3.81-2.84,2.06-8.36,5.63-8.71,5.82-.86.53-1.63.24-2.33.62-1.69,1.15-2.85,2.75-4.42,3.97-4.38,3.36-7.75,4.17-10.96,6.72-1.98,1.53-2.56,3.08-4.25,4.23-2.63,1.7-7.49,1.81-7.78,5.17,4.57.67,10.49-5.5,16.15-9.31,3.51-2.14,6.93-3.15,10.3-5.45,1.59-1.12,3.11-2.53,4.66-3.44,4.44-2.39,11.04-4.55,14.88-6.58,1.99-1.13,3.26-3.07,5.63-4.3,3.5-1.83,7.16-3.41,10.73-4.97,1.79-.78,3.57-1.55,5.26-2.31,1.81-.68,3.5-1.44,5.17-2.28,3.96-1.96,7.3-4.75,11.03-6.44.88-.43,3.82-.62,4.63-.94,1.83-.59,4.1-1.8,6.47-2.63,2.34-.93,4.66-1.95,6.21-2.86,1.04-.58,2.55-2.38,3.83-2.82,1.25-.53,2.65.59,3.86.26-.74.2.76-.9.82-1.02,3.51-2.14,7.25-1.94,9.02-2.42,5.69-1.82,11.54-3.79,17.6-6.11,2.99-1.1,6.06-2.32,9.14-3.45,3.06-1.22,6.22-2.07,9.36-3.01,5.44-1.66,10.38-2.18,15.62-4.19,1.9-.71,3.43-1.72,5.4-2.15,3.72-1,7.37-.78,11.51-1.69,1.58-.42,3.78-1.51,5.46-1.96,3.72-1,7.94-1.63,12.5-2.45,2.19-.39,2.39-1.14,4.39-1.47.47-.12,2.62.1,4.6-.33,1.86-.5,3.71-1.39,5.53-1.68,4.19-.72,7.77-.39,11.57-1.11,2.56-.49,5.04-1.65,7.74-2.37,7.49-1.81,15.74-3.02,21.61-3.8,2.21-.29,2.6.4,4.72.13,5.78-.75,11.14-2.69,15.97-2.89,1.98-.03,4.08.7,5.82.53,1.59-.03,4.04-1.28,5.67-1.52,2.24-.2,4.61.46,6.94.23,2.42-.25,5.14-1.28,8.03-1.65,2.89-.38,5.71-.63,8.46-.77,2.8.05,5.49.02,8.17,0,5.3.07,10.58.05,15.83-.46,1.35-.16,3.12-.24,4.99-.34,1.89,0,3.78-.02,5.46-.07,1.87-.1,3.98-.77,5.82-.96,1.47-.1,3.16.25,4.63.15,1.96-.13,4.07-.79,5.82-.96,2.05-.15,4.22-.24,6.49-.34,2.17-.08,4.48,0,6.68,0,4.48,0,8.87.01,12.56.02,5,.06,8.64.27,11.78.83,3.16.65,5.79,1.54,8.99,2.67-.26,4.25-4.81,5.87-2.35,9.09,4.33.53,8.14.61,11.59.48,1.05-1.67.94-.95.42-2.9,2.97-.1,5.99-.71,9.28-1.09,3.24-.17,6.75-.11,10.71.91,1.5.39,1.94,1.27,3.18,1.84,1.46.61,3.28.71,4.46,1.39,2.29,1.48.96,3.23,1.54,3.87,1.57,1.77,3.69,2.6,6.22,3.11,2.44.54,5.18,1.1,8.04,1.73,2.25.59,7.16,2.17,7.63,2.44.23.14,1.01,1.52,1.78,2.91.77,1.39,1.49,2.59,1.52,2.68.86,2.46-.87,3.82-1.19,4.5-.22.66,1.09,1.1.71,1.9-.63,1.36-2.58,2.28-1.03,3.96-4.25-.25-7.72,1.67-12.87,1.06-1.33-.14-4.7-1.93-8.47-2.61-3.96-.63-5.17-.71-8.56-2.19-2.02-.85-3.23-1.63-5.27-2.17-3.33-.9-6.74-.98-8.71-1.65-1.43-.51-2.64-1.29-3.72-1.99-1.18-.68-2.24-1.29-3.62-1.62-.63-.13-3.94.16-5.63-.18-3.56-.64-6.37-1.08-9.95-1.42-3.06-.27-6.02-.88-8.76-1.44-2.81-.44-5.41-.84-7.77-1.1-2.34-.17-4.38.38-6.77.02-2.51-.42-4.51-1.58-6.54-1.73-4.09-.4-5.62.61-6.74.51-2.1-.03-3.84-.96-6.65-1.4-5.71-.86-10.93-.26-14.51-.59-1.64-.16-3.78-1.08-6.68-1.5,0,0-1.47.1-3.24.17-1.68.05-3.66.09-4.69-.04-1.78-.32-2.8-1.54-4.44-1.7s-3.61.67-5.62.61c-3.5-.06-5.77-1.44-9.08-1.15-2.75.54-2.45,2.75-6.66,2.68-3.51-.45.09-1.52-2.37-2.15-2.45.16-3.27,1.18-5.58,1.5-1.26.14-1.64-.56-3.39-.39-1.38.07-1.55.91-3.37.8-2.13-.13-2.47-1.03-4.61-.86-2.08.06-4.14,1.31-5.55,1.59-7.29,1.45-11.51.2-15.8.55-4.2.33-5.44,1.66-6.6,1.77-2.4.34-4.35-.63-6.85-.26-2.21.29-5.06,1.95-7.64,2.35-1.6.33-9.3,1-11.26,1.12-2.64.21-4.94-.57-6.89-.05-.09.02-2.57,1.58-3.1,1.83-7.23,3.13-15.36,2.92-24.27,5.01-4.09,1.1-7.24,2.74-10.76,3.38-2.28.41-4.6-.06-6.83.54-7.73,1.67-15.09,6.53-24.59,8.28-2.28.41-3.62-.13-5.74.54-1.21.32-1.93,1.71-3.93,2.45-1.44.58-4.45.89-5.51,1.38-3.6,1.46-7.01,2.48-10.63,3.84-5.73,2.03-10.48,4.4-15.85,5.94-.93-1.24-1.64-2.05-7.16.43-1.51,1.8-1.75,1.27-.19,2.64-4.47,2.29-7.33,2.76-9.97,2.97-1.35.16-2.66.11-4.08.4-1.42.28-2.88.77-4.76,1.57-.93,1.74-2.35,6.11-7.16,6,1.83-.99,3.26-1.97,3.59-2.96-6.94.87-8.94,5.68-12.31,8.38-2.9-.02-5.77,1.54-8.56,3.39-2.82,1.75-5.75,3.83-8.74,4.93-1.37.47-3.1.33-4.58,1.13-2.73,1.33-5.32,2.82-7.93,4.62-2.61,1.79-5.31,3.61-8.43,5.35-3.82,2.12-6.04,3.51-8.76,5.24-1.78,1.17-2.51.67-4.2,1.82-1.18.81-1,1.46-2.58,2.29-2.8,1.45-5.02,1.35-7.49,2.9-1.36.86-3.18,2.64-4.42,3.58-2.84,2.06-5.9,3.27-8.79,5.14-2.15,1.27-4.34,3.15-6.2,4.75-1.86,1.6-3.5,2.93-4.42,3.58-1.18.81-3.07.82-4.31,1.75-2.01,1.43-3.63,3.56-6.01,5.1-1.27.84-3.59,1.86-4.9,2.91-2.7,2.22-4.43,4.67-7.52,6.9-3.6,2.56-5.6,4.79-8.76,7.13-1.75,1.27-3.29,1.48-5.16,2.68-7.87,5.6-14.04,13.82-21.17,18.82-1.18.81-2.78,1.14-4.07,2.29-1.52,1.4-3.13,3.93-4.49,5.19-4.18,4.11-8.92,7.27-12.96,11.14-1.45,1.29-2.17,3.07-3.47,4.52-1.15,1.3-2.88,2.27-4.26,3.83-2.25,2.4-4.2,5.51-6.45,7.9-1.56,1.61-3.89,3.73-6.44,6.11-2.43,2.45-4.98,5.22-7.11,7.68-1.81,2.18-3.07,4.91-3.88,5.62-2.03,1.74-2.42.25-4.26,2.34-1.05,1.28-1.51,3.29-2.72,5.11-5.52,9.15-10.91,13.98-18.27,23.32-3.36,4.58-5.54,9.45-9.08,14.48-1.5,2.2-3.05,4.6-4.72,6.94-1.64,2.43-3.31,4.77-4.67,7.13-2.84,4.65-5.34,8.7-6.92,10.62-1.15,1.3-3.27,1.18-3.87,3.03,1.21.07.55,2.04-.26,3.86.25-.57-3.07,4.91-2.34,3.91-2.21,3.28-3.8,3.31-5.31,6.21-1.18,2.31-.99,5.24-2.27,7.88-.56,1.25-3.03,4.7-4.25,6.82-.91,1.44-1.47,1.59-2.69,3.71-.9,1.84-.31,2.57-1.07,4.57-.76,2-2.83,5.04-4.42,8.06-3.05,6.1-6.46,13.09-9.49,20.37-2.91,7.35-6.01,14.76-9.36,21.23-.97,1.95-2.76,3.83-3.59,5.94-.4,1.1-.18,1.94-.57,3.44-2.46,9.03-6.43,13.58-7.81,20.32-.35,1.69.1,2.96-.32,4.77-.85,3.51-3.21,8.83-3.48,9.7-.09.42.24,1.63-.39,3.39-.87,2.32-2.51,4.76-3.4,7.38-.49,1.53-.88,3.42-1.2,5.2-.3,1.87-.52,3.63-.88,4.92-1.41,4.76-4.75,7.95-4.92,12.87,1.27.66,1.37-3.06,2.5-2.96-1.8,5.56-1.17,8.28-2.67,13.46-.7,1.48-2.18-.31-2.73,1.73-1.82,5.87-1.4,11.13-2.64,16.94-.8,4.1-3.58,10.82-3.71,14.44-.15,2.43,1.02,5.3.6,8.2-.2,1.85-1.48,3.39-1.92,5.49-.39,1.9-1.25,6.11-1.89,10.07-.45,3.91-.88,7.51-.85,8,.15,2.05,1.99,3.35,1.78,5.9-.65.17-1.59-.37-1.83.99.97,3.62.68,8.88.47,14.42-.09,5.6-.3,11.53-.08,16.45-.61,4.05-2.58-1.8-2.5,4.45.04,2.38,1.56-1.61,2.31,1.17-.69,1.88-.67,3.47-.43,5.1.24,1.63.78,3.28.79,5.17M340.76,247.69c2.46.64,6.33-2.79,5.97-4.49-.35-1.7-5.1.67-5.97,4.49ZM326.05,263.08c-1.22-1.96-7.33,2.76-7.94,5.71,1.53.49,2.63-.6,3.87-1.93s2.5-2.96,4.1-3.69M263.18,331.62l2.98-4.48,3.25-4.26c-.24-1.63-5.4,4.04-5.83,5.05-1,1.86-1.5,3.69-.4,3.69ZM162.75,538.6c.59-2.65,1.01-5.15.64-6.55-1.39-.72-3.72,8.07-.64,6.55ZM150.17,715.97l-.58-5.52c-1.99-1.46-1,7.44.58,5.52ZM143.54,680.8c.5,2.26-.5,7.8,1.56,6.55.35-2.78.66-6.45-1.56-6.55ZM144.39,602.89c-2.23.6-3.72,3.59-3.05,7.59,1.76-.87,2.89-2.97,3.05-7.59ZM163.41,833.44c-.86-2.46-1.56-5.06-2.32-7.54l-1.12.3c.79,2.58,1.49,5.18,2.35,7.64l1.12-.3-.02-.09ZM151.36,801.51l-1.67.45c.49,2.56,1.12,4.18,2.03,5.33.5-1.13.46-3.11-.35-5.78ZM149.48,807.89c-2.45,2.75,1.94,13.92,2.38,19.68,1.05-.18.74-1.69,1.91-1.81,1.18-.81,1.16,5.07,2.64,2.78-1.79-6.69-3.36-13.64-6.93-20.65ZM160.39,852.67c-.57.85.99,3.32,1.96,5.45.46.97.82,2.67,1.33,3.83.51,1.16,1.11,1.9,1.79,1.11-.75-2.79-2.42-12-4.98-10.42M129.33,739.39c-2.21-.8-.24,5.04.26,5.81,1.2.38,1.01-5.55-.26-5.81ZM375.61,158.27c-1.57-1.77-6.94,2.36-9.71,4.3-.76.5-.56,1.25-1.51,1.8-1.43.98-2.09.76-3.15,1.64-2.58,1.89-4.94,4.61-9.41,6.9-.87,2.72,3.13-1.34,4.5-1.8.28-.07.48,1.07.74.9,1.92-1.01,3.27-3.07,5.25-4.59,4.06-3.08,9.41-5.41,13.39-9.17M123.64,736.73c5.61,5.67-1.35,7.23,0,0h0ZM119.19,597.39c-2.16,3.47-4.79,12.64-3.71,19.62.12.46,2.09-.36,2.31.08.29.72-.67,10.14.96,5.82,1.54-1.71-.26-3.22-.38-5.88-.03-3.08.07-6.79.62-10.33.43-3.6.72-6.97.26-9.43M117.54,638.07c-1.22-.47-1.57.82-2.29,1.11.07-3.1,1.59-2.62,1.94-5.8.23-1.75-.47-5.85-.79-8.15-2.29-.38-1.58,6-2.11,8.13-1.01,3.66-.07,11.27-.68,16.42-.18,1.54-.1,5.21-1.74,4.65-.22,3.65,1.62,3.05,1.78,5.9.66,3.21-.97,3.45-1.12,5.88-.18,3.43,1.76,7.3,1.72,10.5.06,6.16-1.71,11.11-1.92,17.75-.11,5.91,2.09,9.3,2.66,15.12.27,2.52-.53,4.72-.37,7.17.09,2.57.89,2.95,1.03,4.6.19,1.84-.34,2.08-.24,3.55.32,2.3,1.15,3.18,1.22,4.55.25,2.42-.17,4.93-.09,7.1.1,2.96.77,5.47.72,8.27-.02,1.4-.52,3.63-.39,4.88.18,2.14.8,4.47,1.17,6.96.29,1.82-.14,2.83.38,4.78.75,2.79,1.43,2.01,2.64,4.27-.69,3.77.53,7.93.18,9.61-.13.63-.1,3.71.79,7.06,2.42-2.14,2.32,1.57,4.82,4.98,1.43,2.01,2.09,1.83,2.6,2.99,1.99,4.84,1.03,12.77,4.63,15.79,2.45-1.26-.77-5.47-1.47-8.07-.97-3.62-1.92-8.65-3.15-12.5-1.28-3.64-2.28-3.67-3.39-10.05-.29-1.82.93-2.84.76-4.98-.16-2.84-1.41-6-2.06-10.3-1.37-6.6-1.6-14.91-2.78-19.67-.5-1.86-1.79-3.7-2.01-5.64-.41-3.38,1.18-6.39.82-9.58-.04.61-1.32-1.94-1.62-4.55-.38-2.89-.06-5.06-.3-8.19-.18-2.54-.89-2.95-1.03-4.6-.24-2.03-.4-4.47-.75-7.27-.16-1.35-.26-2.82-.44-4.26-.09-1.47-.12-3.05-.24-4.62-.32-6.39-.6-13.39-.66-19.94.04-2.1.64-3.96.91-5.92.64-5.05.3-11.14.5-16.37.19-4.13.95-7.62.48-11.58M122.46,572.01c-1.68-1.04-3.4,6.29-2.28,7.88,2.01,1.16,1.45-5.37,2.28-7.88ZM136.45,809.09c-2.08-.34-.76,2,.2,4.83.59,1.83,1.86,8.07,3.21,6.41-.25-3.52-2.19-5.59-3.38-11.15M226.48,294.74c1.55-3.5,4.6-4.42,6.54-6.83,1.1-1.49,1.16-3.1,2.55-5.36,1.41-2.17,2.26-2,3.28-3.37,1.23-1.72,1.39-3.76,1.89-4.49,1.39-1.87,4.87-3.79,7.3-6.24.81-.71,1.76-3.46,3.28-4.86.78-.81,1.64.16,3.17-1.94,1-1.46.57-3.44,1.63-4.72,2.17-2.67,5.41-4.74,7.7-7.34,1.61-1.82.75-2.79,1.86-4.58,1.25-2.03,2.68-1.91,3.57-3.05.6-.76-.03-1.59,1.49-3.39,2.73-3.22,4.24-3.13,6.36-5.29.71-.69,2.38-2.63,4.35-4.95,1.99-2.23,4.24-4.62,5.85-6.45,1.54-1.71,1.03-2.47,1.7-3.34,1.71-2.15,3.21-2.15,5.84-5.75,1.39-1.87,2.9-4.06,4.68-6.33,1.76-2.36,4.15-4.6,6.98-7.05.64-.57,1.39-.37,2.18-1.18,1.28-1.54.91-1.44,3.38-1.5,2.53-.98.96-2.75,2.31-4.4,1.35-1.66,3.17-1.94,4.75-3.46,1.52-1.4,1.89-3,3.7-4.78,3.15-3.13,8.46-6.35,11.06-8.94,1.88-1.9,3.47-4.91,5.31-6.6,2.32-2.12,5.34-3.52,7.83-5.38,1.73-1.36,1.6-2.22,3.09-3.72,1.81-1.78,2.94-1.29,4.16-2.31.81-.71,1.04-2.07,2.17-3.07,2.76-2.33,5.88-4.46,8.9-6.57,3-2.2,6.38-4.1,9.56-6.35,3.02-2.1,6.38-5.59,9.24-7.55,1.36-.86,2.94-1.68,4.55-2.72,1.62-1.03,3.51-2.14,5.47-3.76,1.06-.88,2.2-2.58,3.47-3.42,2.19-1.49,2.9-1.08,4.36-1.96,2.06-1.25,8.91-6.17,12.77-8.9-3.68-1.1-7.29,1.06-11.47,4.07-1.5,1.1-2.36,2.72-3.56,3.44-3.07,1.92-6.03,3.91-9.3,5.48-2.8,1.45-6.06,1.92-8.95,3.79-.95.55-2.84,3.15-3.33,3.58-2.14,1.67-4.91,3.61-8.08,5.55-1.52,1.01-3.26,1.97-4.97,3.03-1.71,1.06-3.4,2.2-5.08,3.35-6.95,4.55-14.25,9.3-19.74,13.36-4.1,3.29-5.3,5.5-9.36,7.49-1.95.92-2.06.85-3.53,1.34-2.27.81-7.46,3.79-11.96,8.18-1.88,1.9-2.1,4.05-4.24,6.12-1.84,1.69-4.05,2.38-6.12,3.93-2.49,1.86-4.73,5.05-7.63,7.62-1.61,1.43-3.59,2.96-5.43,4.64-1.84,1.69-3.8,3.31-5.48,4.85-4.03,3.57-7.5,5.49-11.52,10.56-1.87,1.6-2.39-.75-4.24.93-5.06,3.05-3.4,4.8-5.78,7.82-1.55,2.01-5.44,6.84-8.54,10.16-1.38,1.56-3.13,2.43-4.49,4.09-1.38,1.56-2.68,4.5-3.91,6.23-1.85,2.39-5.2,4.78-7.84,7.58-3.62,3.96-7.08,8.17-10.01,11.74-2.84,3.55-4.94,6.5-6.32,7.67-1.38,1.17-3.16.85-4.72,2.46-2.93,5.07-3.44,9.49-9.48,15.59-1.15,1.3-2.56,1.98-3.68,3.38-1.26,1.63-1.37,3.06-2.85,5.35-1.75,2.76-7.44,9.07-11.32,15.78-.95,1.65-1.26,4.22-2.15,5.75-1.09,1.88-2.82,2.85-4.06,4.57-1.9,2.6-3.7,6.27-4.48,8.57-.82,2.51-2.85,5.74-5.29,9.29-2.2,3.68-4.71,7.74-6.62,11.74-1.36,2.75-3.27,6.75-5.37,11.2-1.11,2.19-2.28,4.5-3.46,6.8-1.06,2.38-2.21,4.77-3.41,6.99.23,2.33.66.22,2.07,1.04-1.32,3.64-2.61,2.89-2.53,5.46-1.54,1.31-3.14.54-4.69,4.44.91,1.15,1.72-1.76,2.62-1.4.34,2.4-3.74,8.37-5.1,12.22-1.26,2.73-1.95-.57-1.08-1.8-2.04.94-3.42,7.69-5.14,10.94.28,1.42,1.5,1.89,1.78,3.31-.17,2.34-1.89,1.5-2.03,1.74-.72,1.39-.23,3.25-.78,4.89-.62,2.16-1.88,4.89-2.69,6.7-.92,2.14-2.38,3.03-3.3,5.17-.74,1.69-4.09,9.66-4.58,11.19-.33.99.26,1.33-.24,2.45-1.35,3.15-2.95,4.97-3.94,7.63-.96,2.75-1.8,5.56-2.38,8.61-.6,2.95-1.18,5.99-1.98,9-1.01,3.66-3.46,8.3-3.38,11.56.02,3.78-1.34,3.55-2.95,7.96-.29.78-.02,2.89-.6,4.84-.53,1.74-1.06,1.98-1.39,3.36-1.33,5.83-1.34,12.11-2.57,17.92-.41,1.8-1.61,4.02-1.84,5.77-1,5.94-3.09,19.35-4.38,26.07-1.21,7.39-2.67,17.55-3.41,23.72-.47,4.21.67,2.11,1.21,3.76-.17,3.83-1.9,6.68-2.35,10.59-.18,1.94.82,4.16.64,6.1-.23,3.25-1.8,7.06-2.14,10.63-.24,2.46.78,1.78.71,4.89-.05-.19-.35,1.29-.61,2.95-.23,1.75-.43,3.6-.47,4.21-.05-.19.79,7.06,2.13,6.1.23-3.25.86-5.71.94-9.52-.02-1.19-.31-4.5-.1-5.95.49-3.02,2.07-4.94,2.5-8.14.1-.72-1.02-2.32-.88-3.65.28-2.66,1.48-5.28,1.89-8.18.6-4.44.62-9.23,1.77-14.22.84-3.91,2.65-7.58,3.38-11.56.3-1.48.11-4.81.21-5.93.26-2.76.91-5.52,1.66-8.31.65-2.77,1.38-5.65,2.15-8.34,1.52-5.49,2.97-10.86,4.08-15.64.44-1.71.36-3.88.81-5.9.57-2.34,2.22-3.98,2.52-5.46.46-2.01-.14-4.25.27-6.05.43-2.11,1.96-4.61,2.27-6.78.39-2.99.02-5.88.42-8.48,1.51-4.39,1.45,1.3,2.94-1.68,1.05-6.86,4.92-12.87,6.88-18.97.53-1.74.04-4.3.58-6.03.67-1.97,3-4.79,3.89-7.42.27-.87.19-4.13.5-4.82.76-2,2.57-4.17,3.49-6.31,1.84-4.28,2.84-9.13,4.92-13.27,1.08-2.28,2.96-4.58,4.25-7.21,1.47-3.08,2.37-6.41,3.54-8.72,1-1.86,2.39-2.23,3.4-3.7.93-1.35,1.54-2.8,2.26-4.19.72-1.39,1.4-2.96,2-4.42,1.19-3.01,2.42-6.23,4.11-9.57.86-1.62,2.59-2.98,3.59-4.85.77-1.6,1.12-3.99,1.99-5.61,1.27-2.33,2.77-3.43,4.22-5.81,1.57-2.71,2.41-5.52,3.87-8.61.7-1.48,2.42-3.24,3.28-4.86,1.16-2,.23-2.85.62-3.65.84-1.72,2.6-2.19,3.23-3.56.45-.92-.42-1.58.62-3.65,3.02-5.09,6.9-10.71,9.87-11.91,1.15-3.89,2.99-6.68,7.23-12.1,1.23-1.73,3.2-2.95,4.13-4.29,1.35-1.66,1.81-3.67,3.45-6.1,2.12-3.26,3.68-4.87,5.19-7.77,1.83-3.58-1.46-.6,1.51-3.29.51-.33,4.31-4.74,5.81-7.33,2.74-3.52-.17-.65-.73-2M319.27,1108.6c.49,2.56,2.02,2.35,5.1,4.91,1.05-1.28-3.42-4.56-5.1-4.91ZM121.38,787.43c2.49,6.3,1.71,14.58,4.94,14.71-.15-3.15-2.15-15.86-4.94-14.71ZM347.48,1135.8c.3,1.11.87,3.25,2.46,4.72,1.78,1.81,2.87,1.42,4.13,2.38,3.64,2.81,7.49,8.25,11.24,8.84,1.67-2.34-3.17-4.03-6.75-6.96-4.26-3.24-7.63-8.01-11.08-8.98ZM135.05,840.34c-1.98,1.92,1.19,10.04,2.62,14.24,1.11,3.39,2.61,6.77,3.97,9.99.63,1.62,1.24,3.15,1.76,4.71.52,1.55,1.01,3.02,1.26,4.34.34,2,1.6,5.25,2.63,7.96.85,2.06,2.01,3.05,2.34,4.25.65,2.42.27,4.71,1.15,7.26,1.77,5.5,4.3,10.1,6.82,14.31,2.5,4.11,4.96,7.73,7.28,10.8,2.63,3.48-1.49,1.5-.03,3.99,1.16,3.58,2.43,2.74,3.75,6.17,2.17-4.17-2.62-11.65-5.15-17.35-2.01-4.54-4.89-10.44-7.53-16.21-.56-1.34-2.38-4.44-2.31-4.16-.81-2.27-.56-5.43-1.15-7.26-.6-2.23-2.19-3.7-2.31-4.16-.34-.9-.13-1.96-.83-3.46-1.58-3.66-3.4-6.36-4.51-9.75-.1-.37.31-2.57.28-2.66-.27-1.02-.9-.76-.95-.94-2.84-8-4.83-16.93-9.08-21.97M371.59,1157.33c5.09,4.11,10.69,9.38,15.89,10.58-2.48-2.92-12.89-12.38-15.89-10.58ZM188.6,960.95c-2.67-.28.61,4.12,2.2,7.08,1.73,3.12,4.12,6.46,5.55,9.17,1.81,3.4,2.62,7.56,4.6,11.22,1.16,2.08,4.27,7.02,7.27,11.5,3.02,4.57,6.45,8.43,7.46,8.86.78.29,3.14,3.15,3.33,3.49,1.94,3.17.81,3.77,2.18,5.89,1.06,1.71,2.73,2.76,4,4.51.93,1.25,1.89,2.58,2.84,3.92.96,1.34,2.01,2.65,2.96,3.99,1.91,2.67,3.89,5.23,5.68,7.44,3.41,4.16,6.8,11.23,10.37,10.07-5.13-5.4-8.43-11.39-13.06-17.12-1.79-2.21-3.99-3.71-5.73-6.13-1.17-1.78-2.01-4.54-3.33-6.48-.67-1.02-3.02-1.98-3.74-3.18-.5-.76-.33-3.1-1.41-4.9-1.75-2.82-4.14-5.77-6.6-8.99-2.37-3.25-4.83-6.88-7.11-10.55-1.78-2.91-2.69-5.95-4.3-8.61-1.44-2.4-2.98-4.78-4.43-6.88-1.39-2.22-2.67-4.37-3.75-6.17-1.11-1.89-2.81-3.43-3.49-4.84-.63-1.23,1.28-3.03-1.32-3.43M389.24,1169.63c5.66,3.66,12.51,9.5,20.63,14.49.47.27,1.44.91,2.62,1.59,1.15.59,2.64,1.29,4,1.92,2.73,1.26,5.36,2.15,5.84,1.32-.87-1.76-3.34-1.69-5.26-2.87-3.58-1.83-8.01-5.33-12.13-7.71-1.65-.95-4.14-1.68-5.37-2.55-2.29-1.47-5.98-8.55-10.21-6.12M423.88,1191.02c-1.6,2.23,4.78,3.7,7.96,5.54,3.65,2.11,7.66,5.52,11.19,7.16,1.69.74,3.6.43,3.72.5,5.44,2.82,9.54,7.7,15.82,8.81-1.57-3.27-7.34-4.71-10.33-6.2-1.74-.93-1.66-1.35-3.05-2.07-2.21-1.2-3.31-.81-4.6-1.56-.59-.34-.9-2.24-1.4-2.61-2.15-1.32-3.12-.86-4.54-1.67-1.95-.97-2.77-2.15-4.98-3.35-2.9-1.51-6.9-2.33-9.79-4.55ZM100.72,621.06c-1.85-.2-3.36,10.16-.42,9.58.47-2.71,1.47-7.17.42-9.58ZM253.23,1057.07c-.17,2.34,4.74,6.9,7.93,10.63,1.72-1.76-5.88-10.78-7.93-10.63ZM247.18,1051.23c1.69,2.23,2.48,4.41,4.83,5.37,1.95-.92-3.35-7.66-4.83-5.37ZM268.5,1073.9c-1.38,2.66,2.86,4.71,5.94,7.67,1.1-1.49-3.52-4.94-5.94-7.67ZM262.38,1068.17c0,1.49,1.7,4.12,3.58,4.81,1.01-1.06-1.94-4.26-3.58-4.81ZM471.21,1217.38c3.18,2.94,11.04,5.51,17.33,8.51,3.77,1.78,6.55,4.72,9.95,4.4.69-.78-.74-1.29-.55-2.04-2.1-1.13-4.38-2.21-6.73-3.18-2.38-1.05-4.82-1.99-7.17-2.96-4.77-1.8-9.47-3.34-12.83-4.73ZM543.71,1247.26c-1.08,2.28,3.8,2.67,6.68,2.99.3-1.47-3.59-2.22-6.68-2.99ZM1091.59,142.02c3.82,2.36,8.31,6.84,11.1,7.58.27-.87-2.23-3.49-5-5.63-2.74-2.05-5.8-3.43-6.1-1.95ZM374.35,117.87c1.93-1.71,7.62-3.93,5.52-5.07-1.93,1.71-7.62,3.93-5.52,5.07ZM1009.08,87.43c-.12-1.56.44-3.2-.29-4.8-3.74-1.69-5.6,2.9.29,4.8ZM406.25,97.07c2.25.59,4.57-3.02,6.19-4.05-2.37-.66-5.3,2.91-6.19,4.05ZM432.25,83.24c-.55-2.04-6.15,2.34-8.41,2.45-.45.92-2.19,1.88-1.38,2.66,3.29-.38,5.37-4.53,9.77-5.21M454.45,72.71c-.67-2.51-4.76.48-7.2,2.13,1.41.42,4.05-.49,7.2-2.13ZM463.41,68.61c-.39-1.09-1.3-1.14-2.39-.75-1.07.48-2.4,1.44-3.7,2.19.7,1.11,3.31-.29,6.07-1.53M501.07,53.64l4.64-1.64c.15-2.43-6.31-.1-4.64,1.64ZM138.65,911.78c1.24,2.76,2.45,5.42,3.73,6.47.81-1.81-1.25-9.13-3.73-6.47ZM871.01,33.4c.84-1.72-2.52-3.81-5.54-3.2.84,1.27,1.77,2.51,5.54,3.2ZM129.9,891.42c3.69,7.08,3.44,14.71,6.68,18.63.99.33.68-1.58-.07-3.97-.65-2.42-1.65-5.43-2.29-7.06.07.28-2.06-9.91-4.4-7.49M122.73,871.73c.73,6.08,2.35,8.03,4.81,15.34,2.63-1.7-2.36-12.52-4.81-15.34ZM568.99,31.86l5.95-1.59c.73-2.49-7.69-.43-5.95,1.59ZM684.39,13.18c-3.83-.17-4.47.8-7.41.99.17,1.75,8.8,1.23,7.41-.99ZM802.37,19.02c1.49-1.89-5.14-1.71-6.05-1.37-.71,1.09,5.3,2.66,6.05,1.37ZM815.83,20.89c.28-2.67-5.53-.91-8.44-1.72-.72,1.39,7.43,2.79,8.44,1.72ZM842.44,25.71c1.6-1.82-5.03-2.04-5.94-1.7-.82,1.02,5.16,2.9,5.94,1.7ZM879.56,34.79c.96.24,2.13.52,3,.79.96.24,1.69.34,1.89,0,.9-.74-.78-1.78-2.53-2.01-1.69-.34-3.39.01-2.43,1.35M732.43,13.56l6.15.25c-.86-1.36-6.56-2.92-6.15-.25ZM1112.05,149.58c3.13,2.75,5.61,4.18,6.32,1.99-.96-1.73-6.07-5.15-6.32-1.99ZM1124.75,157.53c-2-2.25-3.95-4.32-5.49-3.01.46.97,1.67,2.14,2.87,2.92,1.21.77,2.29,1.08,2.62.1ZM1072.56,120.12c1.95.57,3.88,1.45,5.77,2.54,1.79,1.11,3.54,2.44,5.29,3.76,3.38,2.58,6.7,5.28,9.83,6.93.86-2.02-3.19-5.22-5.65-6.95-1.87-1.39-3.65-2.11-5.52-3.1-1.86-.99-3.77-2.18-6.02-4.26-1.04.58-3.06-.27-3.72,1M1099.11,138.11c2.54,2.41,3.04,1.28,5.26,3.27,1.08-1.18-1.26-3.25-3.86-5.14.96,2.13-.56.55-1.4,1.87ZM1142.59,172.77c2.11-.67-2.25-3.18-3.91-4.93-2.74-2.75-6.93-7.61-8.27-5.55,2.87,4.01,7.26,5.52,12.18,10.48ZM396.12,1198.26c-1.92,1.41-.25,3.16,2.75,5.05,2.55.21.06-3.11-2.75-5.05ZM1019.95,85.22c-2.83-2.03-5.84-4.71-9.29-7.17-1.73-1.23-3.55-2.44-5.5-3.41-2.05-.95-4.16-1.77-6.48-2.25-1.57,1.22,2.76,2.85,4.82,4.19,4.3,3.03,8.57,5.97,16.46,8.64ZM274.21,1107.83c-4.05-3.6-9.28-10.46-12.58-11.97-1.71-.04,5.79,8.6,7.48,10.05,1.8,1.51,4.56,3.26,5.08,1.82M929.24,45.38c.49-1.53-5.05-3.23-6.8-3.06.58,1.44,4.59,3.35,6.8,3.06ZM1043.42,99.15c2.19-1.48-4.78-5.19-6.93-5.41-.68,1.58,3.93,3.53,6.93,5.41ZM869.19,25.12c-1.93,4.7-12.58-3.8,0,0h0ZM987.13,67.62c-.31-1.91-2.86-3.22-5.84-4.31-3.01-1.19-6.43-2.06-8.57-2.98-2.28-1.08-3.28-3.3-5.04-3.93-1.01-.43-3.39-.39-5.1-.82-2.58-.7-4.57-2.16-5.96-1.79,2.21,3.79,9.82,4.64,14.75,6.7,1.13.49,2.96,2.49,4.09,2.99,3.41,1.58,8.2,3.08,11.7,4.24M448.59,1228.92c-.51,1.44,3.65,3.21,5.35,3.25-.58-1.44-3.25-3.21-5.35-3.25ZM302.48,1135.61c-1.41.68,6.18,7.8,6.68,5.58-.75-1.69-4.85-5.08-6.68-5.58ZM283,1118.32c-1.02,1.77,4.1,4.88,6.53,7.61,2.12,2.32,2.96,3.59,3.81,4.56.86.96,1.94,1.67,4.56,2.86,1.36.63,2.2,1.9,2.67.68-1.28-1.45-2.85-2.82-4.32-4.22-1.47-1.4-2.97-2.89-4.51-4.17-3.1-2.66-6.18-5.22-8.74-7.32ZM955.23,53.86c-.37-1.39-2.52-2.71-5.16-4,.42,1.58,1.61,4.15,5.16,4ZM825.18,17.09l4.94.97c2.2-2.58-6-4.17-4.94-.97ZM358.59,1178.74c-2.21.29-.85,5.01-1.87,7.17,4,1.52,6.26,5.5,9.82,8.03,2.1,1.52,4.18,1.47,6.99,3,1.86,1,3.53,2.75,6.17,4.43,2.03,1.25,5.46,2.52,6.78,3.36,2.17,1.41,2.73,2.75,4.84,4.28,1.37,1.03,3.47,2.16,5.59,3.38,2.19,1.11,4.59,2.26,6.5,3.44,2.36,1.36,5.22,3.48,6.37,4.07,2.94,1.3,6.82,1.66,9.72,3.17,3.11,1.56,3.54,3.53,7.01,5.69.47.28,2.83.14,3.93.54,1.48.7,4.41,2.71,6.58,3.72,2.4,1.15,5.22,2.38,6.85,3.24,3.51,1.95,6.21,3.82,8.84,5.1,2.71,1.17,5.4,1.94,8.78,1.53,5.45,3.62,11.81,6.5,18.17,8.68,6.5,1.94,12.92,3.21,18.63,4.07-2.51-.82-3.77-3.67-6.27-4.79-1.93-.88-6.84-1.36-8.6-1.98-4.49-1.49-7.47-4.07-12.25-6.28-2.28-1.08-5.51-1.61-8.34-2.85-2.14-.92-4.63-2.04-7.46-3.28-2.73-1.26-5.6-2.68-8.59-4.17-5.96-2.88-12.27-5.97-17.71-8.8-5.21-3.08-14.24-9.63-22.25-13.86-2.8-1.54-6.44-2.45-9.01-4.25-3.52-2.35-6.02-5.36-9.8-7.93-2.05-1.35-4.4-1.91-6.69-3.39-8.09-4.91-15.42-10.31-22.65-15.35M105.6,452.53c-1.78,3.76-3.01,7.38-3.58,11.92,1.9.79,6.56-11.62,3.58-11.92ZM110.42,442.27c-1.82-1.6-4.08,4.88-1.63,4.72,1.74-2.06.49-1.52,1.63-4.72ZM150.41,347.1c-2.03,1.74-.72,1.39-2.31,4.4,1.5,1.89,4.76-4.17,2.31-4.4ZM626.98,12.43c-6.32,1.69-7.5-.08-12.46.75,2.14.92,11.73,3.23,12.46-.75ZM892.13,31.12c.52,1.95,3.91.84,5.96,1.79-.03-1.98-4.81-2.7-5.96-1.79ZM928.85,42.8c1.13-1-7.48-4.87-7.05-2.49,1.23,1.26,5.3,2.66,7.05,2.49ZM137.65,921.81c-1.39-2.22-2.8-8.21-4.26-6.23,1.39,2.22,2.8,8.21,4.26,6.23ZM1080.98,116.57l1.01-1.46c-2.04-1.65-3-1.49-4.5-2.28-.34.99,1.11,2.29,3.56,3.63M705.1,1.96c-.52-1.95-3.94-2.43-8.35-2.15-4.38.38-9.79,1.43-14.24,1.92-2.05.15-2.23-.5-3.79-.38-.19.05-2.33.62-3.77.81-2.54.18-5.04.16-7.42.2-2.38.04-4.5.31-6.36.81-.93.25-1.11,1.79-3.66,1.58l.17,1.75c2.46.24,3.76-.11,6.2-.67,2.6-.7,4.66-1.95,7.36-2.27,3.1-.33,10.05.3,16.34-.39,2.52-.28,5.34-.53,8.23-.91,3.01-.31,6.09-.34,9.29-.3ZM717.72.67c-2.14-.92-8.72-.55-8.74,1.25,2.9.42,9.34,1.38,8.74-1.25ZM1059.74,98.66c-2.33-2.36-3.54-4.63-8.81-7.2-.87,2.72,4.71,6.8,8.81,7.2ZM733.99,1.89l6.24.22c1.29-2.24-7.49-2.67-6.24-.22ZM987.58,60.73c3.97,2.52,4.14.58,6.37,1.08-.68-1.81-7.04-3.59-6.37-1.08ZM70.7,627.31c-1.5-.4-1.93,1.71-1.95,5,1.5.39,1.93-1.71,1.95-5ZM862.19,16.84c5.93,1.3,7.2-1.03,14.03,1.02,1.26-2.73-5.34-2.45-8.34-3.24-4.17-1.07-8.09-3.41-11.09-2.71,1.54,1.28,4.52,2.37,8.34,3.24,1.09,2.2-4.03-.52-2.94,1.68ZM851.49,12.63c6.84.96-.86-3.95-3.33-2.39-.75,1.3,5.69.77,3.33,2.39ZM97.97,446.01c-.69,2.28-2.99,7.08-.78,6.39.61-1.46,1.33-2.85,1.71-4.04.38-1.2.25-2.06-.83-2.37M818.45,4.25c1.25-2.03-9.29-2.69-7.6-.45,3.12.86,5.04,1.34,7.6.45ZM66.59,584.09c.13,1.96.57,3.23.69,5.19,2.71-1.42,2.2-9.26-.69-5.19ZM803.52.98c-3.72-.5-7.56-1.06-11.28-1.56-1.35,1.66,12.11,3.53,11.28,1.56ZM76.57,769.36c-.57-3.63-1.33-6.82-2.97-5.88-.5,2.22,1.08,7.38,2.97,5.88ZM63.91,675.25c.23,2.73-.87,9.4,1.71,10.1-.64-4.61,1.4-10.03-1.71-10.1ZM74.27,760.81l-.99-6.31c-2.04-1.65-.51,8.5.99,6.31ZM734.19-4.44c2.69.37,3.34-.2,5.08-.37-.27-1.02-2.17-1.41-5.04-1.34l-.04,1.7ZM754.42-3.69l5.05.24c1.11-2.19-5.95-2.49-5.05-.24ZM710.08-5.15c1.35-.16.53-.64-.02-1.19-.78-.69-1.96-1.37-6.37-1.08.28-.07-.54.94-1.23.63-.24-.14-6.89-1.54-7.63.15.11,2.66,13.14-.43,15.25,1.49ZM418.48,53.06c2.92-1.38,5.68-2.62,6.73-3.9-1.1-1.5-8.23,2.4-6.73,3.9ZM473.32,26.71c-2.13-.52-8.4,3.25-12.19,4.36,2.39.75,8.76-2.65,12.19-4.36ZM491.78,20.47c-2.36-1.76-7.69,1.06-11.39,2.85,1.15,1.68,7.33-1.66,11.39-2.85ZM527.87,5.62c6.68,4.09-13.72,4.97,0,0h0ZM550.87,1.05l-.45-1.67c-2.93.59-4.84,1.3-6.11,2.13,1.25.56,4.22-.24,6.55-.46ZM597.55-9.96c-1.3-2.64-8.23-.58-13.11.92,3.3,1.9,7.77-.39,13.11-.92ZM433.82,39.99c-2.15,1.27-7.48,2.6-5.45,3.85,2.1.03,6.33-2.39,5.45-3.85ZM619.12-14.64c-1.01-1.92-8.54.5-13.04.81,1.08,1.8,10.12.57,13.04-.81ZM628.14-15.96c-.24-1.63-6.29-.41-7.81.6,1.86.6,5.94.6,7.81-.6ZM666.97-20.2c3.19.74,3.34-1.29,3.81-1.42,2.38-.44,7.03,1.3,6.37-1.51-2,.34-4.6-.06-6.49.34-.28.07.27,1.02.11,1.17-1.34.56-5.12-.12-3.81,1.42ZM450.62,29.81c-2.27.81-4.04,1.68-5.12,2.47-1.06.88-1.51,1.8-1.17,2.7,4.13-.21,7.16-3.41,6.29-5.17ZM756.79-22.75c3.29.01,6.73.19,6.61-1.37-3.7-.4-7.17-.37-6.61,1.37ZM62.52,806.59c-3.01-.09.26,5.81,1.16,9.15,1.13,4.58,1.39,10.78,4.06,11.06-.32-8.28-2.82-11.99-5.12-20.24M824.31-16.64c.09-1.52-4.64-2.04-6.38-1.48-.09,1.52,4.64,2.05,6.38,1.48ZM884.97-6.4c15.22,5.09-5.21,3.99,0,0h0ZM56.65,782.47c-2.09.76.63,5.31.99,7.8.57,3.23-.19,8.22,1.57,10.34,2.24-3.19-.53-12.41-2.59-18.23M38.96,653.94c-.33,3.97-1.24-1.26-2.29.02,1.5,2.98,2.33,7.94,2.69,14.12.55,6.13,1.02,13.47,1.43,21.33.46,6.55,1.22,13.12,1.75,16.96.09,1.07-.75,4.28-.57,5.33.44,2.77,1.84,3.89,2.39,6.33.05.19.4,4.47.65,6.5.28,2.52.86,6.54,1.46,10.66.7,4.1,1.26,8.43,1.48,11.46.16,2.84-1.13,6.58.69,11.87.3,1.11,1.15.59,1.53,2.38.66,3.21,0,5.58.72,7.88.77,2.48,1.3,3.74,2.46,6.21.65,1.32,1.57,5.85,2.79,4.83.68-3.77-1.28-6.63-2.06-10.3-.47-1.77-.44-5.36-.41-5.27-.27-1.02-1.48-2.19-1.53-2.38-.44-2.77.65-2.77.61-4.05-.08-1.77-2.74-10.22-3.11-12.71-.34-2.4.4-5.19-.01-7.86.07.28-.21-1.14-.51-2.65-.19-1.44-.31-3.01-.18-2.54-.32-1.21-1.32-.84-1.47-2.49-.37-3.98.45-7.99-.08-11.83-.37-2.49-1.91-3.77-2.39-6.33-.12-.46.13-3.62.08-5.3-.18-2.14-.9-2.25-1.05-3.9,0-1.1.54-1.34.38-2.69-.48-4.75-1.55-18.81-1.51-26.09,0-2.59.89-2.63.94-3.94.22-2.15-.77-2.88-.6-5.22.07-1.22,1.05-1.28,1.15-3.89.05.19-1.24-.17-1.14-1.29.12-2.52.31-2.57.54-3.93.71-3.68-.43-4.57-.67-9.18-.18-3.64.46-6.1.6-10.42.28-5.65-.66-12.87-.37-19.62.09-3.01.96-5.34.9-7.81-.02-1.19-.18-2.54-.44-3.87-.16-1.35-.23-2.73-.18-4.03.4-6.68,1.85-12.45,1.73-19.59,0-1.89-.83-3.46-.79-4.07.01-.7.75-2.39.96-3.84.45-3.91.28-7.15.64-9.14.58-3.04,1.88-3.79,2.6-6.27.51-1.83.49-4.51.85-6.5.63-2.86,1.81-4.77,2.09-6.34.92-6.22,1.2-13.77,2.5-20.79.73-3.58,3.11-8.1,3.06-12.77-.07-.28-.86-1.36-.91-1.55.24-2.45,1.59-4.11,1.9-6.29.31-2.18-.67-3.61-.46-5.45.47-4.21,1.49-8.57,2.77-13.09.69-2.27,1.35-4.64,1.98-7.11.73-2.49,1.34-5.04,2.21-7.76.51-1.83.5-3.72.54-3.93.31-1.08,1.23-1.72,1.71-3.65.48-1.92.25-4.65.73-6.57.53-2.13,1.16-2,1.71-3.65.71-2.18.23-2.85.89-5.22.93-2.84,2.17-5.66,3.27-8.64.8-2.21.23-2.85,1.22-5.11,1.01-2.56,1.86-1.99,2.87-4.55.43-1.01.04-3.2,1.2-5.2-2.07-1.04-2.19,3.38-3.31,5.87-.81,1.81-2.53,3.96-3.31,5.87-.58,1.55-1.16,3.1-1.65,4.63-.37,1.59-.74,3.19-1.2,4.8-.74,3.19-1.46,6.47-2.5,9.63-.91,2.93-4.14,12.46-5.24,13.55-1.08,1.18-1.4,1.47-1.57,2.31-.2.75-.36,1.99-1.1,5.18-1.09,4.48-2.86,9.03-3.69,12.64-.83,3.61-2.28,10.07-3.88,16.78-1.29,6.72-2.62,13.65-3.71,18.13-.64,2.46-.03,3.99-.38,5.28-1,2.96-3.1,4.81-3.8,7.39-1.14,4.29-.1,9.29-1.98,13.08,1.15.19,1.25-3.52,2.67-2.31-.64,2.46-.98,5.64-2.46,4.94,1.47,5.48-3.07,19.05-3.14,30.32,0,1.1-.49,3.02-.33,3.97.02.09,1.01,1.52,1.07,1.4-.1,1.12-2.44,4.64-2.09,10.42,1.91,2.28,1.16-1.61.79,4.07-.15,2.03.82,4.16.84,5.35.01,2.29-.72,2.88-.78,5.29-.3,5.96.6,13.78.38,18.52-.04,2.1-.23,4.34-.55,6.52-.1,2.22-.32,4.37-.36,6.47-.16,4.23-.05,7.98,1.37,10.69ZM101.98,924.1c-1.1,2.98,3.21,14.98,6.24,17.35,1.44-1.68-2.65-7.66-3.99-11.18-1.1-2.99-.25-5.41-2.25-6.17ZM88.48,890.07c-4.09,1.49,1.01,7.1,2.23,13.15,4.16.28-.05-7.26-2.23-13.15ZM68.32,829.34c-3.23-.13.59,7.41,1.76,11.78.45,1.67-.03,3.99.44,5.36.74,2.39,2.24,4.28,3.41,7.15,1,2.62,1.77,5.5,2.64,8.36.93,2.74,1.77,5.5,2.7,7.84.83,1.97,1.02,2.32,1.95,2.07-.27-1.02.12-1.43-.3-2.61-.27-1.02-1.9-1.88-1.95-2.07-.57-1.74-.49-4.45-1.04-6.49-2.17-9.58-7.53-21.79-9.56-31.2M339.21,90.14c-2.23.6-6.78,2.61-7.93,4.62,1.59.37,6.61-2.47,7.93-4.62ZM352.35,81.54c.52-2.53-7.35,3.07-6.85,3.83-.52,2.53,7.35-3.07,6.85-3.83ZM408.25,47.24c-2.94,1.29-2.09,2.25-5.52,3.57-.85-3.16,8.98-4.8,7.38-8.55-4.12.61-3.14,3.53-3.9,4.03-2.17,1.58-4.74,1.27-6.1,2.53-1.36,1.26-2.19,2.98-2.1,4.45-3.29,1.88-7.76,3.77-9.02,5.4,2.27.29,6.08-2.62,9.5-4.34,3.94-2.05,12.24-4.18,9.57-7.05M911.17,2.12c.3-1.48-4.32-2.73-6.14-2.44-.3,1.48,4.32,2.73,6.14,2.44ZM922.31,6.11c1.94.18,6.21,2.72,6.38,1.48.54-.94-1.06-1.71-3.05-2.47-1.97-.67-4.32-1.23-5.22-1.99.27,1.02,3.83,1.66,1.8,3M935.9,10.73l.56-1.64-4.96-1.76c.81,1.18.27,2.52,4.4,3.4ZM968.99,22.98c2.8,1.14,5.6,2.29,8.51,3.5,1.46-1.99-8.39-7.51-8.51-3.5ZM97.39,914.77c.38-1.2-3.52-12.4-5.06-10.7,1.58,5.15,3.37,5.87,5.06,10.7ZM1032.05,51.5c7.01,2,12.3,6.47,18.95,8.97.64-.57-.4-1.49-2.05-2.44-1.65-.95-3.82-1.97-5.49-3.01-4.44-2.8-9.42-6.14-11.5-3.49M1134.88,116.47c-.68-2.9-11.37-10.8-13.91-12.11l-1.03,1.37c2.54,2.41,10.59,7.92,14.94,10.74ZM993.82,31.57c-.09-1.07-2.76-2.85-5.98-4.08-3.24-1.32-6.72-2.38-8.26-2.57-.55,2.04,4.1,2.29,5.89,3,1.48.7,2.8,1.54,4.19,2.26,1.32.84,2.66,1.38,4.25,1.35M1025.71,46.82c.4-1.1-2.12-2.72-5.2-4.18-3.09-1.46-6.69-2.99-8.13-4.3l-.77,1.6c2.59,1.1,9.56,5.91,14.1,6.88ZM1062.43,67.06c.8,1.88,8.29,5.65,8.56,3.68-1.83-2.4-6.45-3.65-8.56-3.68ZM1102.2,92.36c.75-1.3-.72-2.69-2.75-3.94-2.03-1.25-4.73-2.42-6.43-3.55-4.02-2.71-7.26-6.62-10.98-7.12-1.77-1.42-2.35-.96-2.81-.44,4.86,4.37,17.2,12.12,23,15.15M1115.28,101.01c-1.64-3.15-4.17-3.66-8.98-7.85-.77.11-1.53.21-2.83-.54-.15,2.43,9.64,8.47,11.72,8.41M376.01,64.94c.76.99,4.88-2.6,7.04-3.48-.77-1.39-6.06,1.92-7.04,3.48ZM285.61,123.72c-4.08,3.38-7.81,6.18-10.83,9.07-3.04,2.81-5.63,5.39-7.81,7.67.8,1.88,3.28-2.27,5.3-4.01,4.54-3.9,14.86-9.66,13.33-12.74ZM314.06,100.06c-1.98,1.92-8,4.73-5.67,5.6,2.26-.5,7.12-4.3,5.67-5.6ZM100.5,362.46c2.34-3.91,1.76-5.35,2.32-7.7-2.47.07-4.57,7.5-2.32,7.7ZM111.64,335.57c-3.97,7.14-6.17,10.82-7.64,15.39,1.05-.18,3.6-3.66,5.53-7.26,2.04-3.54,3.55-7.23,2.2-8.16M331.61,88.19c-.7-1.5-1.73-2.72-4.93-.17-1.5,2.59,1.63,2.35,4.93.17ZM340.43,82.44c-1.09-2.6-5.04.55-6.17,2.65.86.97,3.46-.83,6.17-2.65ZM96.1,369.12c-1.16-.98-2.9,1.08-4.51,4-1.4,2.96-2.6,6.67-2.87,8.64,1.81.41,2.88-1.17,3.79-3.71.92-2.54,1.91-5.89,3.59-8.93ZM167.1,239.04c-4.75,6.45-9.16,10.82-13.22,18.38-2.95,5.37-6.2,11.82-11.89,17.73-1.33,1.35-.84,1.32-1.98,1.92-3.45,1.62-11.89,18.12-12.31,23.62-3.01,2.9-5.22,6.58-7.01,10.64-1.8,4.07-3.32,8.46-5.44,12.81,3.9-2.54,6.1-9.6,9.24-14.63,2.48-3.75,6.3-8.46,9.88-14.1,1.45-2.38,1.3-3.34,2.18-4.87,4.61-7.71,13.1-19.55,18.29-29.2,1.95-3.51,3.36-7.18,5.76-10.51,1.03-1.37,1.73-1.36,2.03-1.74,0,0,.43-.61,1-1.46.57-.85,1.37-1.96,2.05-3.14,1.36-2.36,2.42-4.73,1.48-5.28M365.17,64.66c3.49-2.23,8.54-4.58,9.91-6.54-.88-1.06-11.25,4.51-9.91,6.54ZM80.15,404.07c-.85-1.67-2.57.09-3.44,2.42-.87,2.33-1.27,4.92.2,4.83,1.12-2.89,2.09-3.35,3.34-7.27M175.54,233.69c1.65-2.04.74-3.19,2.58-6.37,1.88-3.39,5.51-6.96,7.57-9.7s2.59-4.48-1.04-3.9c.62.83-2.48,3.75-2.89,4.46-1.52,2.5-1.19,3.01-2.49,4.85-2.48,3.75-5.93,6.87-7.52,10.98.85,2.06,2.72-.63,3.89-.35M386.65,48.84c-4.07,2.29-11.59,5.49-9.57,7.44,1.72-.66,4.82-2.09,7.25-3.44,2.43-1.35,3.92-2.84,2.34-3.91M255.4,145.26c3.2-2.95,7.14-6.09,5.76-7.52-3.07,1.92-8.35,6.02-5.76,7.52ZM293.29,107.72c-4.71,4.35-9.29,9.96-14.41,13.92-2.14,1.67-4.07,2.68-5.89,3.67-1.83.99-3.54,2.04-5.4,3.64.23,3.82,6.56-1.56,11.41-5.05,3.13-2.43,8.43-7.24,9.89-8.83,2.18-2.28,1.11-1.79,3.03-4.7-.91,1.44,3.7-2.19,1.41-2.57M296.4,109.68c3.76-4.19,3.71-4.38,8.44-6.44-.21-1.54,3.41-4,1.1-5.18-3.3.69-2.34,2.82-4.68,4.84-2.15,1.27-2.99,0-5.95,3.09,1.81.81.28,2.51,1.06,3.6M411.84,36.81c4.82-2.09,5.35-5.72-1.06-2.11l1.06,2.11ZM320.29,88.34c-1.1,1.49-3.59,3.35-4.68,4.84,2.1,1.13,6.2-3.65,4.68-4.84ZM416.8,31.9c.98,2.92,9.99-2.88,9.64-4.57-.66-.62-5.78,3.34-9.64,4.57ZM203.11,192.64c-.8,1.11-2.57,2.68-3.81,4.01-1.21,1.42-1.83,2.48-.65,2.76,1.99-1.13,6.02-5.8,4.37-6.75M234.17,161.61c-.76-2.09-4.8,1.79-5.54,3.88,1.54.18,4.56-1.22,5.54-3.88ZM200.73,1101.42c-.8,1.11,3.63,4.61,4.43,4.99.95-1.65-2.96-5.08-4.43-4.99ZM211.19,185.59c3.49-4.82,9.72-10.97,12.7-15.45-3.63-.92-14.86,13.34-12.7,15.45ZM351.64,68.08c3-2.2,5.79-5.54,2.97-5.28-4.49,2.2-6.14,5.73-2.97,5.28ZM484.85,1.31c-3.19-.74-17.42,4.17-15.86,7.04,4.72.13,6.32-3.19,9.59-4.76,2.48-1.16,4.5-.31,6.27-2.28ZM171.63,1065c-1-1.13-.87-.27-.51.33-.54,2.44-2.95-3.19-3.4-.78,2.63,3.48,4.83,5.38,6.62,5-1.34-1.64-3.24-3.92-2.74-4.65M374.8,52.22c-.99-.73-5.25,3.1-4.58.03-3.06,1.62-4.85,3.09-3.76,4.19,4.58-3.72,6.31-1.39,8.34-4.23ZM309.59,1203.42c10.57,5.24.15,6.14,0,0h0ZM517.57-10.14l-.6-2.23c-3.35.9-3.73,2.09-6.16,3.05.6,1.13,3.55.24,6.76-.82ZM543.87-20.58c-2.37.83-8.04,1.26-6.24,2.77,3.26-.48,6.93-.56,6.24-2.77ZM559.66-23.41c-1.04-2.01-9.78.33-10.37,2.58,3.8-.32,6.89-1.05,10.37-2.58ZM43.54,809.78c-2.42.65.53,4.94,1.09,6.68.37,1.39.67,4,1.39,5.2.05.19,1.46,1,1.46,1,.52,1.95.84,5.35,1.44,7.98.64,3.12,1.64,6.13,2.72,9.03,1.08,2.9,2.06,5.82,3.16,8.82.99-.76.53-5.82.3-7.05-.43-1.98-1.33-4.23-2.35-6.54-1.02-2.32-1.9-4.87-2.76-7.33-.25-.93.37-1.59-.14-2.75-.07-.28-1.44-.91-1.46-1-.62-2.32.09-3.01-.74-5.38-1.2-3.36-2.9-5.99-4.02-8.68M404.19,33.58c.87-.83,2.4-1.84,4.23-2.83,1.73-.96,3.87-1.93,5.93-2.78,4.01-1.77,7.86-3.4,8.94-4.19-1.24-1.26-4.92.22-9,2.11-2.04.94-4.15,2.01-6.19,2.95-1.95.92-3.8,1.82-5.2,2.19l1.31,2.64-.03-.09ZM473.73,2.2c.29-3.37-6.36-.29-9.41,1.72.66.62,2.27.29,4.01-.28,1.86-.5,3.86-1.23,5.39-1.45ZM355.7,59.43c-.68-2.91-8.42.56-11.46,4.47.6,1.13,2.51.42,4.66-.85,2.24-1.3,4.83-2.79,6.83-3.52M394.19,37.56l5.95-3.09c.07-2.71-8.22,1.7-5.95,3.09ZM495.05-6c-.27-1.02-1.86-.6-3.1-.76-3.32-.5-2.79-.75-9.21,2.07,2.47,1.03,5.84,1.32,12.4-1.33M32.86,755.78c-1.86,1.99.86,13.61,2.25,17.32,2.48-2.26-.88-12.21-2.25-17.32ZM462.68,3.37l-4.94,2.02c-.12,2.52,6.79-.33,4.94-2.02ZM502.47-9.18c4.52-1.71,11.26-5.21,7.93-6.11-3.92,1.35-7.12,2.8-9.92,4.25-.14,1.33,1.42,1.21,1.99,1.86ZM181.61,1089.61c2.32,3.46,3.24,2.42,5.56,5.88,1.39-.77-4.27-7.02-5.56-5.88ZM147.25,1041.35c-4.24-5.04-3.22,2.85.36,4.68,1.46-.49-2.53-4.6-.36-4.68ZM35.94,774.37c-1.4.37-.31,5.16.79,6.66,1.4-.37.31-5.16-.79-6.66ZM365.53,52.21c5.14-2.77,8.13-5.37,8.05-7.53-2.9-.02-2.8,1.84-4.31,3.25-1.45,1.28-6.85,3.43-3.73,4.29ZM647.83-41.06c.23-2.85-6.17-.34-9.45.44,1.29,1.45,6.96-.07,9.45-.44ZM521.34-16.13c-4.01-1.22-1.69-1.84,2.25-2.4,3.91-.65,9.41-1.33,11.61-2.81-.76-.59-2-.76-4.23-.16.21-1.45,5.39-2.94,1.86-3.49-6.68,1.09-8.54,4.58-12.32,6.09-2.53.98-6.58.37-9.04,2.72,2.81.44,5.69.77,9.88.04ZM435.43,14.76c.13-1.73-1.33-1.63-4.37.07,1.15-1.3,3.02-2.5,5.22-3.59,2.23-.99,4.75-1.97,7.19-2.92,4.87-1.9,9.2-3.96,9.86-6.73-5.78.75-8.91,4.68-13.34,6.76-1.23.63-2.65.91-4.32,1.36-1.67.45-3.55,1.25-5.82,2.46.28-.07-.19,1.15-1.01,1.07-1.43-.12-8.39,5.14-14.69,6.92-.96,2.75,4.34-1.66,4.43-.19,1.02,1.22-7.05,2.69-4.14,3.9,6.51-2.84,12.51-5.74,13.87-8.5,2.17-.08,2.9,1.51,7.06-.8M693.36-45.59c2.67.28,2.97-1.19,4.04-1.28,1.82-.29,6.23,1.32,5.35-1.23-5.21-.1-8.46.77-9.39,2.52ZM89.32,949.01c1.2,1.87.44,2.37,1.26,3.95.6,1.13,2.01,1.55,2.2,1.9.39.69.75,2.79,1.41,4.5.57,1.74,1.52,3.08,2.66,2.47-.75-2.79-5.32-15.01-7.43-12.85M75.49,918.25l3.09,7.44c1.72-.66-1.16-9.55-3.09-7.44ZM217.73,1135.11c.68,1.81,3.72,4.58,6.21,7.2,4.87-.81-4.74-9.88-6.21-7.2ZM71.87,906.57c-1.37-3.62-2.73-6.84-4.18-5.55-.09,3.01,2.6,6.37,4.18,5.55ZM61.97,880.04c-2.65-2.08-2.19-5.59-4.28-8.52-.17.84-.46,1.62-1.21,1.82,1.7,3.73,3.48,7.04,5.48,6.7ZM202.36,1119.81c2.38,2.55,4.76,5.1,5.81,3.82-.83-2.37-4.96-6.24-5.81-3.82ZM56.81,868.97c-.76-2.09-1.36-4.32-2.02-6.43-2.38-1.45.92,9.02,2.02,6.43ZM551.67-27.94c-4.42-.11-7.87.02-13.37,2.19,1.17,1.78,8.8-1.36,13.37-2.19ZM456.25,1.71c10.34-1.58,2.72-6.6,0,0h0ZM599.1-39.16c.62-2.16-5.04-1.34-6.87.05.42,1.18,3.54.55,6.87-.05ZM628.47-43.74c1.95-.92,1.85-2.39,3.71-3.28-2.34-.17-16.13,1.93-20.1,3.49-.2,2.24,6.14-.15,9.59-.28,3.43-.22,4.24.56,6.82.16M796.02-45.21c2.3-1.81-8.72-3.54-8.03-1.33,1.51.79,4.69,1.13,8.03,1.33ZM465.96-2.99c4.2-1.43,5.91-2.88,5.58-4.48-4.93,1.32-6.02,2.81-5.58,4.48ZM17.59,614.75c-2.68,1.91-.46,7.2.16,9.52,2.34-2.82.61-6.64-.16-9.52ZM19.33,602.63c-2.62-.1-2.35,10.19-1.13,12.15,1.99-2.23,1.16-7.58,1.13-12.15ZM651.06-50.19c-5.75.84-14.02.87-17.59,2.42-.06,2.01,8.17,1.1,9.66.7,2.6-.7,9.62-1.68,7.91-3.21M698.63-51.59c3.64,2.41,7.91-.23,12.18-.67-.77-1.39-3.73-1.29-5.48-1.12-.37.1.33,1.6.08,1.77-2.34.93-6.69-2.29-6.77.02ZM739.37-52.04c-3.1.33-10.56-1.45-9.56.77,2.14.92,10.7,1.62,9.56-.77ZM170.67,1084.48l-5.96-7.37-.9.74,5.96,7.36.9-.73ZM18.02,652.78c.16-3.13-.11-5.25-.63-6.8-1.95-.57-3.29.38-2.83,5.44.76-.5.85-2.42,1.75-2.76,1.35-.56-.25,6.14,1.8,4.1M23.17,537.36c.02,4.18.02,8.26.04,12.44,2.33-4.31,2.73-11.39-.04-12.44ZM653.84-48.75c4.18-.02,4.89-1.11,8.08-1.47-1.37-1.03-5.27-.68-9.6-.12.8.38,1.51.79,1.52,1.58ZM857.02-39.65c-2.55-.21-7.91-2.36-6.91-.14,3.14.95,6.62,2.41,6.91.14ZM869.04-37.19c-4.36-1.02-6.09-2.65-6.85-.26.61.43,2.23.9,3.87,1.05,1.54.18,3.01.09,3.07-.82M19.5,587.64l.45-5.4c-2.15-1.32-2.79,6.33-.45,5.4ZM20.63,575.49c.59-5.24.21-8.52-1.31-9.71-1.72,3.25-.59,9.32,1.31,9.71ZM891.24-30.59l6.61,1.61c1.88-1.9-7.31-4.22-6.61-1.61ZM27.32,524.2l-2.29-.38c-.23,2.85-2.35,8.7-1.24,9.5,1.92.08,2.53-5.06,3.54-9.11ZM27.51,504.82c-1.84,4.28.66,4.7.4,7.07-.21,2.55-2.69,5.2-1.52,8.08,2.2,1.5,1.48-4.88,2.06-7.92.62-3.25,3.78-13.06,2.11-16.3.11-1.82.06.58-.41,3.3-.47,2.71-1.09,5.97-2.73,5.81M256.59,118.45c-2.02-.85-10.84,7.89-12.65,10.46,2.11.83,10.84-7.89,12.65-10.46ZM412.33,13.37c-1.07-1.41-3.63-.52-6.31.99-1.39.77-2.85,1.66-4.14,2.4-1.27.84-2.54,1.68-3.51,2.14-3.87,1.93-8.78,4.44-14.13,7.17-2.62,1.4-5.44,2.75-8.15,4.18-1.41.68-2.8,1.45-4.12,2.1-1.39.77-2.68,1.52-3.98,2.26-2.52,1.37-5.26,3.8-7.92,5.41-2.78,1.54-5.83,2.06-7.72,3.17-2.22,1.39-4.21,3.62-6.48,5.22-2.52,1.77-5.22,3.59-7.92,5.41-2.7,1.82-5.52,3.57-8.32,5.42-5.61,3.6-11.53,7.17-16.98,11.02-4.41,3.27-8.53,6.87-12.93,10.14-3.9,2.94-8.94,5.68-12.49,8.43-2.53,2.07-4.34,4.65-6.73,6.88-5.91,5.47-13.66,10.03-18.74,15.98l1.17,1.38c4.66-1.95,4.23-3.92,7.04-6.47,3.54-3.14,7.16-6,10.71-8.75,3.55-2.74,7.08-5.58,10.63-8.33,5.42-4.34,11.67-8.51,17.58-12.88,2.77-1.94,5.28-4.1,7.77-5.97,2.58-1.89,5.1-3.66,7.64-5.33,2.79-1.84,4.59-2.23,7.2-4.02,3.09-2.22,6.4-5.5,9.59-7.75,2.26-1.6,4.68-2.25,7.25-3.83,2.06-1.25,3.87-3.03,5.52-3.97,2.78-1.54,6.12-2.44,8.83-3.86,2.08-1.16,2.16-1.97,4.41-3.27,1.83-.99,2.42-.65,3.76-1.6,3.49-2.23,6.58-4.85,10.21-6.92,8.61-4.7,21.19-10.56,31.41-16.68M710.85-53.96c1.33,1.24,9.96.72,8.15-1.19-4.7-.43-5.8.66-8.15,1.19ZM748.97-53.42l.08-2.31c-6.22.97-12.73-1.77-13.73,1.19,5.3.07,10.07.39,13.66,1.12ZM42.75,445.26c-1.53,3.6-.22,3.64-1.38,6.74,1.69.35,3.8-7.39,1.38-6.74ZM834.99-48.58c-4.89-.38-6.39-2.27-9.46-1.45,6.62,3.5-2.93-.51-3.11,2.53,4.14,1.68,11.98,1.17,12.66-1.1M983.85-3.01c-2.08-4.03-13.16-4.84-17.35-8.2-.27.47-1.73-.13-2.79-.35,1.56,2.47,15.68,7.55,20.04,8.57M1043.11,21.74c-1.13-2.38-7.21-3.84-8.73-3.94.24,2.73,7.49,4.87,8.73,3.94ZM1024.48,13.19c-.38,1.2,5.11,2.71,7.16,4.06.73-1.39-5.25-3.97-7.16-4.06ZM1064.52,33.94c-2.56.49,4.36,2.12,7.35,3.61,3.81,1.97,6.32,3.88,9.45,5.53-1.14-4.27-11.94-7.76-16.82-9.24M1093.61,49.15c-3.59-2.62-8.14-6.58-10.02-4.68,1.91,1.18,3.94,2.83,5.74,3.94,1.79,1.11,3.25,1.72,4.28.74ZM1170.26,106.79c3.05.97,6.94,2.82,10.09,7.16,4.26-2.34-14-14.67-10.09-7.16ZM19.59,538.12c-1.13-.49-4.31,7.73-1.73,8.03.89-1.53,1.32-4.74,1.73-8.03ZM19.59,534.04c1.13-1,2.2-9.65.61-9.63-1.71,5.54.16,5.43-.61,9.63ZM1160.06,93.29c-3.12-1.25-9.09-7.52-10.1-4.96,4.02,3.11,4.24,5.04,6.83,4.64.84-.22,3.04,1.68,3.27.32ZM1223.17,152.48c1.24-1.33-5.67-8.14-6.17-5.52,2.44,3.53,3.41,4.17,6.17,5.52ZM28.85,488.23c1.37-4.55,1.58-7.49,1.99-10.79-1.47,1.59-4.96,10.89-1.99,10.79ZM872.82-41.69c2.78.35,9.02,3.16,8.28.77-2.88-.32-9.11-3.14-8.28-.77ZM976.34-9.86c10.24,3.23,14.66,5.24,24.84,8.28-.4-2.98-5.96-2.89-8.69-4.15-3.79-1.87-6.8-5.65-13.34-7.38-1.69.75-.74,1.69-2.7,3.31M1144.91,83.61c1.28-.44.33-1.38-1.23-2.36-1.65-.95-3.84-2.06-5.07-2.92-3.1-2.26-5.41-5.32-8.89-6.38,1.47,3.99,12.59,9.77,15.21,11.76M1239.35,169.35c.7-.38-.65-2.42-2.29-4.46-1.65-2.05-3.92-3.83-4.76-4-1.07.48.32,2.31,2.24,4.28,1.83,2,4.13,3.87,4.81,4.19ZM1254.79,184.94c-2.92-3.1-6.48-7.82-8.65-8.84-1.12,1.4,7.81,11.65,8.65,8.84ZM95.32,300.7c-1.52,1.01-2,.73-2-1.16,2.18-4.87,4.35-6.84,6.17-10.82.9-1.83.92-3.63,1.85-5.38,2.92-5.46,6.81-10.29,10.77-17.83,2.71-4.41,2,1.16,3.39-1.11,1.88-2.29.77-2.7.04-3.2,1.5-2.59,1.96-1.22,3.31-2.88,1.35-1.66.97-2.35,1.88-3.79,2.3-3.7,3.49-3.72,5.42-8.03,1.01-2.16.94-2.44,1.38-4.15.22-1.05,1.91-4.4,3.97-8.24,2.09-3.75,4.82-7.67,6.63-9.84,3.51-4.03,4.73-3.56,8.54-7.57-.63-1.23,2.69-4.11,3.21-6.24.11-.33-1.08-.31-.9-.76,1.08-2.28,3.36-4.58,4.6-7.01.25-.56-.35-1.3.02-1.8,1.81-3.27,4.77-8.25,9.37-12.27,1.77-1.57,3.45-2.02,5.84-4.25-1.79-.72-.77-2.88.43-5.1,1.68-2.64,4.57-4.51,6.77-7.09,2.5-2.96,2.66-5.69,4.92-8.79,1.73-2.46,5.46-5.65,8.58-9.27,1.81-2.18,3.23-5.05,4.9-6.99,2.68-3.41,6.02-5.8,7.92-8,1.21-1.42,2.41-4.03,3.21-4.75.39-.4,9.94-6.05,9.39-8.49-.49-2.56.51-1.43,3.62-4.36,1.4-1.47,3.87-6.02,5.51-4.36,3.57-3.05.79-3,2.62-5.48,1.39-1.87,3.54-2.04,5.63-4.3.62-.66.08-2.31,2.39-3.73,3.85-2.73,1.02.82,3.64-.18,2.24-2.79,2.07-3.44,4.48-5.58,1.06-.88,3.01-1.8,4.83-2.79,1.74-.96,3.26-1.97,3.15-3.13-.38-3.28.32-.29,4.02-3.97,1.01-1.07,1.46-4.58,3.67-6.76,3.69-1.49,15.99-11.36,17.1-15.04,3.28-2.27,7.54-6.1,8.75-4.93,2.85-2.76-2.59,0-.23-2.73,6.01-4,9.45-4.92,16.44-11.18,4.79-4.07,8.64-11.28,13.89-9.9,1.24-2.82,5.67-4.51,8.82-7.24.32-.29,2.28-3.4,3.85-4.62,1.41-1.07,3.5-1.83,4.9-2.91,2.72-2.12,7.25-6.42,12.59-9.55,2.5-1.47,5.67-1.92,7.98-3.33,2.8-1.84,1.83-2.48,4.32-3.95.95-.55,4.51-1.01,3.27-3.07,2.53-2.07,4.11-1.4,6.61-2.87,2.59-1.49,2.43-2.45,4.49-3.69,4.49-2.6,6.56-2.66,10.12-5.4.51-.34,2.22-.99,2.52-1.37.14-.24-.74-.9-.48-1.07,2.58-1.89,8-4.73,10.07-5.59,2.32-1.02,5.72-1.33,8.27-2.61,2.99-1.5,2.83-2.85,5.74-4.62,2.66-1.61,3.6-1.06,5.45-1.96,2.85-1.26,4.31-3.25,6.07-4.12,2.76-1.24,9.33-3.5,14.64-6.01,2.11-1.06,2.91-2.17,4.9-3.3,2.08-1.16,5.29-1.82,8-3.24,1.2-.72,1.88-1.9,3.55-2.74,2.92-1.38,7.58-3.33,10.67-4.45,2.09-.76,2.73-.23,4.23-.94,1.97-.83,3.12-2.13,5.06-3.05,2.29-1.11,5.29-2.21,8.28-3.31,3.09-1.13,6.27-2.28,9.26-3.38,3.06-1.22,6.37-3,9.37-4.1,3.27-1.18,7.63-2.04,11.06-3.36,2.37-.83,4.26-2.34,6.63-3.17,2.78-1.14,7.96-1.54,12.55-3.36,1.46-.49,3.72-2.09,5.3-2.52,9.57-2.96,20.45-4.39,27.8-8.94-3.04-.18-6.25.48-9.67,1.49-3.3,1.08-6.68,2.59-10.17,3.72-2.3.72-6.03,1.32-8.49,2.17-2.74.93-2.54,1.68-3.89,2.24-2.06.85-2.29.02-2.96.1,0,0-1.41.68-3.01,1.4-1.6.73-3.29,1.48-3.76,1.6-1.3.35-3.24.17-5.7,1.03-2.74.93-5.81,2.85-9.37,4.1-8.38,2.94-23.11,6.39-28.62,10.36-.76.5,2.52-.28,2.89-.38-5.1,2.16-10.02,2.78-15.17,4.76-2,.73-3.15,2.74-4.82,3.58-2.13.97-2.61.3-4.33.96-.9.34-2.34.93-4.04,1.68-1.67.85-3.71,1.79-5.72,2.83-4.15,2.01-8.48,4.06-11.26,5.21-1.18.42-2.36.13-4.28,1.15-.7.39-1.79,1.87-2.21,2.18-1.13.6-2.83.96-4.04,1.68-1.74.96-3.51,2.53-4.9,3.3-.69.39-3.53.95-5.48,1.87-5.12,2.47-11.43,6.45-16.52,9.01-3.34,1.69-7.51,3.21-10.43,4.98-1.96,1.22-3.8,3.31-5.79,4.44-3.38,1.9-7.33,3.16-10.45,4.89-3.75,2-16.08,8.79-17.08,10.65-2.01,2.93-.73.99-5.86,4.16-2.22,1.39-3.38,3.39-4.32,3.95-2.06,1.25-1.77.08-5.55,1.98.37-.1-.17.84-.96,1.25-.28.07-.43-.48-1.54.21-2.15,1.27-3.1,2.92-5.53,4.67-6.09,4.42-13.94,8.62-16.82,10.88-3.69,2.98-5.59,6.68-9.11,9.51-1.31,1.05-2.7,1.82-4.18,2.61-1.48.8-2.94,1.68-4.28,2.64-7.73,5.36-15.33,13.47-23.17,19.16-2.17,1.58-4.2,3.32-6.34,3.49-2.36,4.22-8.2,9.57-14.9,15.45-6.84,5.72-13.99,12.51-19.56,18.89-.28,3.06,3.8-2.91,4.36-1.57-.27,1.97-6.53,6.13-9.08,8.91-3.42-.48,7.07-5.98,3.75-6.48-2.57,2.68-3.21,1.06-5.72,4.32-1.05,1.28.63,1.62-.95,3.14-1.24,1.33-2.69,2.61-4.11,3.99-1.43,1.38-2.94,2.78-4.46,4.18-3.04,2.81-6.14,5.73-8.87,8.55-1.7,1.85-2.55,3.87-4.22,5.81-1.58,1.92-3.91,3.64-6.07,6.01-2.32,2.51-3.71,5.48-5.91,8.06-4.17,4.9-9.11,9.51-13.32,14.63-1.74,2.06-3.41,4.4-4.95,6.8-1.55,2.41-3.07,4.91-4.76,7.15-1.78,2.27-6.86,7.51-9.96,11.93-.87,1.23-1.53,3.6-2.72,5.11-3.8,4.8-7.64,9.82-11.62,14.67-3.89,4.83-7.69,9.63-10.57,14.49-1.18,1.91-.53,3.23-1.12,4.38-2.55,5.36-7.46,10.46-11.01,16.2-2.36,3.82-2.56,6.07-6.87,12.3-1.03,1.37-3.73,4.69-3.52,4.33-1.47,2.69-1.4,4.46-2.62,6.58-1.09,1.89-2.88,3.76-4.16,5.7-1.93,3.21-3.4,7.39-5.51,11.44-.86,1.62-2.12,3.26-2.91,4.76-1.18,2.31-2.13,5.05-3.46,8.3-1.23,3.22-2.85,6.84-5.05,10.92-1.2,2.21-1.97,2.32-3.15,4.63-1.27,2.33-1.36,3.85-2.11,5.15-3.13,5.42-5.66,6.79-5.68,11.18-.06,2.01-2.25,5.38-4.22,10.29-2.04,5.03-3.1,9.99-5.53,15.82-.61,1.46-1.42,2.87-2.24,4.29-.82,1.41-1.52,2.9-2.22,4.38-1.88,4.89-2.9,9.64-4.75,14.62-1.5,4.09-4.01,8.84-5.23,12.86-1.27,3.82-1.09,7.46-2.22,11.05-1.37,4.95-4.61,14.78-5.9,18.51-.4,1.1-1.42,1.77-1.9,3.7-.55,2.04-.18,3.04-.68,5.66-.45,2.41-3.4,8.88-3.14,10.6.09,1.07,1.15,1.68.85,3.16-.51,2.93-2.32,5.1-2.91,7.75-.56,2.74,1.02,6.8-2.11,13.71,3.68-.39,3.41-12.57,6.64-12.43,1.96-4.21,1.93-9.18,2.95-12.05.96-2.75,1.6-1.82,2.67-4.9,1.79-4.46-1.08-1.8-1.06-4.7-.03-1.59,1.81-4.77,2.23-6.57.2-.75-.42-4.17.61-7.04.83-3.21,2.22,1.6,3-3.29,2.08-5.24-.88-1.06-1.76-2.12l2.79-7.82c2.39-3.73-1.34,8.03,1.86,3.59,1.45-3.88,3.3-7.76,4.15-11.67.39-1.9-.71-1.9-.66-3.21.14-1.33.86-3.12,1.01-4.05.45-3.9,3.34-18.03,8.37-23.46,0,0-.46,4.6.47,1.77.29-.77.38-3.79,1.57-5.3.59-.76.73.5,1.57-.82.43-.61,2.12-3.26,2.25-3.49,1.5-2.59.28-3.06.68-4.16.8-2.21,2.95-3.48,3.38-4.49,1.06-2.38.41-3.3,1.31-5.53.92-2.14,2.27-2.3,3.38-4.49,1.08-2.28-.2-2.24,1.9-6.68,1.66-3.83,4.22-7.7,6.16-11.61,1.94-3.91,3.4-7.78,3.29-11.54,2.12-3.26,4.2-5.91,6.22-9.14M266.48,102.55c2.22-2.89,8.5-6.96,8.51-9.15-.56.15-11.75,8.23-8.51,9.15ZM1049.03,22.25c3.25,1.72,6.81,3.85,8.75,4.03-.23-1.63-8.49-6.79-8.75-4.03ZM341.79,44.73c-2.49,1.86-9.63,4.97-7.51,6.2,1.12-.3,3.6-1.46,5.42-2.85,1.85-1.29,3.27-2.67,2-3.32M61.87,370.42c-1.93,4.7-3.86,9.4-5.79,14.1.94,2.04,1.98-1.92,2.68-3.41,1.24-2.82,5.06-10.52,3.11-10.7ZM209.07,152l1.98-1.92c-.54-.15-.01-.79.54-1.34l-.83-.87c-.76.9-1.08.79-1.44.58l-1.98,1.92c.54.15.01.79-.54,1.34l.83.87c.76-.9,1.08-.79,1.44-.58ZM351.54,36.84c-3.03,1.71-3.2,2.95-5.37,4.53,2.23.5,8.08-2.96,5.37-4.53ZM220.5,139.98c-.79-2.58-7.71,3.96-8.49,5.16,2.06.24,5.17-2.28,8.49-5.16ZM378,21.78c-1.82-.11-7.31,3.95-9.77,5.21-3.54,2.04-11.86,5.97-11.31,8.01,3.71-1.39,6.29-2.58,9.79-5.11,1.41-1.07,2.8-2.94,3.05-3.11.6-.36,10.01-1.69,8.3-5.11M240.23,120.64c1.52-1.4-.35-1.3-.11-2.26,0,0,1.34-2.45,1.69-2.24-1.15-.59-5.56,4.18-7.74,3.86-2.66,3.1-.56,1.64.51,2.65-2.25,2.39-3.29,1.48-4.93,2.81-3.18,2.64-3.08,6-9.57,10.04,1.82-.29,3.77-.81,5.59-2.2,2.12-1.76,1.1-2.59,3.12-4.72,1.59-1.52,8.32-5.42,11.52-7.97M102.38,287.26c-1.46,2.38-2.82,4.74-4.27,7.12.94.15,6.71-6.58,4.27-7.12ZM247.69,112.37c2.79-2.24,4.27-4.13,3.05-5-2.79,2.24-5.27,4.5-3.05,5ZM260.98,100.24c-.67-2.11-4.37,1.17-7.62,3.93,1.05,1.31,4.66-1.95,7.62-3.93ZM269.59,91.06c-2.14.57-5.98,4.09-4.68,5.24,2.23-.6,6.72-4.29,4.68-5.24ZM282.12,82.43c2.01-1.43,1.97-2.32,4.19-3.71-.59-1.83-3.52.25-6.63,2.77.35,1.3,1.67.65,2.56,1.01M291.87,74.54c1.9.39,3.86-3.82,7.82-5.78-2.28-3.67-7.11,3.6-7.82,5.78ZM330.97,48.22c2.94-1.68,2.32-3.61,3.44-5.01.96-1.25,4.7-2.55,2.91-3.27-5.52,3.97-8.24,4.2-11.62,7.6,1.39.72,5.18-1.88,5.36.66M136.15,229.9c-4.55,4.6-4.05,6.07-2.92,5.46,1.25-.54,3.43-2.81,2.92-5.46ZM301.62,66.65c3.02-2.11,5.88-4.46,9.02-6.5-1.45-1.7-10.64,4.55-9.02,6.5ZM318.7,54.9l4.67-3.04c.22-2.55-8,2.14-4.67,3.04ZM396.02,8.28c3.32-2.48,1.7-2.95-1.18-2.17-2.88.77-6.94,2.76-8.52,4.67,2.96-.49,7.56-3.02,9.7-2.5ZM403.04,3.61c2.97-1.19,4.75-2.37,6.04-3.51-.3-1.51-9.37,2.21-6.04,3.51ZM298.07,64.21c-2.12.27-6.26,1.18-7.81,3.59.87,1.76,5.92-.59,7.81-3.59ZM305.99,58.4c-.52-3.05-8.93,2.39-5.68,4.11,1.86-.5,4.63-2.44,5.68-4.11ZM309.98,54.35c-.74.2-1.02,1.77-.53,1.74.68-.08,1.8-2.57,1.62-2.52,2.8-1.84,10.03-4.98,11.69-7.71-1.42-2.71-8.41,2.85-14.18,6.59-.83,2.11,4.25-.14,1.32,1.94M195.76,150.69c-3.83.23-7.08,8.17-12.77,12.98,3.51.45,9.46-8.61,12.77-12.98ZM468.74-26.84c2.79-.75,3.36-1.6,5.03-2.44-.62-.83-2.72-.47-5.66.82l.64,1.62ZM497.29-38.57c-2.06-.24-8.26,1.91-7.6,3.63,2.43.15,8.56-1.9,7.6-3.63ZM529.88-46.41c4.95-1.62,7.51-3.6,11.61-5.4-3.55-1.74-13.96,2.94-11.61,5.4ZM570.27-57.83c2.15-1.27,4.33-2.45,9.43-3.12-1.39-3.31-8.9,1.39-15.33,1.92,1.83.51,5.69-.33,6,1.18M272.42,78.95c2.91-2.17,4.63-3.93,3.28-4.86-3.02,2.11-5.63,4.3-3.28,4.86ZM618.05-69.24c-1.85-.6-4.89-.38-8.55.1-.64.57-1.29,1.14-1.06,1.98,3.31.81,6.96-1.17,9.61-2.08ZM621.05-68.45c4.38-.38,5.34-1.63,8.18-2.19-.73-.5-3.33-.5-5.37.04-2.14.57-3.81,1.42-2.79,2.24M662.84-73.57c4.22-.24,9.22-.18,8.28-2.22-3.91-.45-9.82-.56-8.28,2.22ZM768.38-76.95c12.08-2.54,8.14,4.69,0,0h0ZM787.91-74.01c6.89,1.14,7.17-1.13,8.83-2.76-7.24-1.35-8.45.47-8.83,2.76ZM731.72-77.98c.52-1.04-.05-1.68-1.37-2.12-1.29-.35-3.3-.41-5.75-.25-.92,2.14,2.89,2.21,7.02,2.4M820.23-71.32c3.44.57,6.74.98,8.44.63.72-1.39-10.73-3.6-8.44-.63ZM885.77-60.69c1.47,1.4,12.49,4.22,11.28,1.56-5.21-1.59-8.82-2.02-11.28-1.56ZM907.61-54.69c3.45.97,6.99,1.91,7.27.34-2.46-.63-2.71-1.56-5.27-2.17-1.14.21-1.76.87-2,1.83ZM928.64-50.97c-4.59-1.86-5.97-1.09-8.52-1.3,1.01,1.92,9.42,4.65,8.52,1.3ZM1025.36-14.73c-.5-.76-.88-1.46-.57-2.14-4.56-1.77-8.61-3.87-11.97-5.26-3.43-1.27-6.39-1.88-8.56-.69,1.43,2.01,2.32.47,4.17,1.07,2.61.8,5.6,2.29,8.47,3.71,2.97,1.4,5.93,2.79,8.49,3.4M1151.67,60.48c4.36,2.52,2.51-.67,1.76-2.36-3.51-1.55-8.76-5.92-10.63-4.72,4.19,3.76,9.04,4.35,8.87,7.08ZM1170.08,73.77c1.82-1.78-10.93-11.81-12.25-9.66,4.5,4.17,6.1,4.94,12.25,9.66ZM335.3,23.46c-2.46-.24-4.74,1.67-7.64,3.84.84,1.27,6.48-2.23,7.64-3.84ZM572.57-89.82c1.28,1.05,8.1-1.37,11.6-1.71.67-1.58-2.18-.31-1.57-.28-2.2,0-6.7-1.19-10.03,1.99Z" fill="#00538a" fill-rule="evenodd"/>
</svg>