<?xml version="1.0" encoding="UTF-8"?>
<svg id="Layer_1" xmlns="http://www.w3.org/2000/svg" version="1.1" viewBox="0 0 201 548">
  <!-- Generator: Adobe Illustrator 29.4.0, SVG Export Plug-In . SVG Version: 2.1.0 Build 152)  -->
  <path d="M79.36,115.58c.01,2.56-.64,5.6-.62,8.4-.01.86.32,1.44.38,2.77.05,3.16.41,6.78.5,10.05.16,3.31.16,6.3-.04,8.06-.09,1.25-.31,2.04-.53,2.82-.17.72-.36,1.38-.51,2.21-.08.63-.07,1.79-.11,2.1-.34,2.84.61,3.86,1.01,6.26.29,1.75.31,3.88.36,6.12.07,2.3.29,4.74.65,7.21.16,1.06.71,2.43.91,3.41.5,2.55.42,5.68.97,8.4.34,1.25.7,1.46.9,2.69.14.76,0,1.83.08,2.11.48,1.58,1.04,1.37,1.26,2.65.05.17-.34,1.68-.26,2.21.28,3.1,1.19,4.44,1.81,5.37.19.25.76.34.81.51.24.42.3,1.57.55,2.05.38.75.96,1.09,1.23,1.87.21.8.48,3.17.18,5.01-1.46-1.8-.8-4.12-1.23-6.2-.75.39-.88-1.9-1.57-1.77-.22,3.05,1.82,6.34,2.43,9.53.37,1.85-.11,3.02.53,4.92.34-.09.55.46.87.5,2.18-.28.26-5.19,2.27-5.67-.73-.66-1.69-.16-2.1-2.37.69-2.2-.44-2.99-.87-4.83-.23-.85.15-1.02-.19-2.08-.23-.85-.64-.8-.83-1.97-.44-3.24.13-7.05-.56-9.85-.35-1.55-1.68-2.42-1.55-3.98-.1-1.74,1.7,2.23,1.27-.95-.83-2.4-1.72-3.69-2.68-5.2,1.26-1.44-.03-5.36-.11-7.72-.05-1.09.4-1.69.28-2.82-.09-1.01-.23-2.01-.38-3.01-.09-1.01-.25-2.07-.34-3.08-.31-2.05-.57-4.18-.88-6.23-.32-2.11-.63-4.16-.82-6.25-.25-2.07-.14-4.17-.07-6.2,1.92-1.25.43,5.25,2.05,4.69-.58-2.16-.62-5.75-.86-8.92.06-1.36,1.36-.61.9-2.8-1.33.05-3.06-5.28-1.4-6.82.59.39.08,3.27.86,3.43,1,.1,1.96.02,1.68-2.16-.79.46-1.81,1.46-1.81-1.28.48-2.75,1.69,1.99,1.76-.04v-3.42s-1.4.01-1.4.01c-.46-1.71.55-2.95.66-4.81.07-.87-.36-2.47-.37-3.44,0-1.34.18-2.98.48-4.58.29-1.66.69-3.36.8-4.97.18-2.06.06-4.1.24-5.49s2.56-2.52.49-4.1c-.75.38-.36,3.21-1.17,3.36-.29-1.75,0-3.9.38-6.08.41-2.12.79-4.36.45-6.28.64-1.27,1.4,1.33,1.88-1.18.12-2.96,1.03-5.28,1.44-8.07.96-5.08,1.28-10.95,2.39-14.79.46-1.47,1.23-1.79,1.52-3.21.43-1.58-.15-3.07.18-4.81.2-1.09,1.04-2.05,1.33-3.22.62-2.24.48-4.82,1.59-6.59.29,1.08-.28,3.06.91,2.93.28-1.91,1.17-4.52.18-4.81-.73-.9-1.93,2.83-1.42-.29.17-.96.61-1.38.83-1.93.41-.96.19-1.33.51-1.97.95-2.39,2.67-4.62,3.14-8.34.94-.13,1.53-.9,1.97-1.99.22-.55.42-1.15.56-1.8.19-.66.38-1.32.55-2.04.65-2.8,1.19-5.81,2.62-6.62-1.46-.65-.55-3.64.53-6.91.98-.2.57,3.26,1.87,1.27.75-1.97.26-2.69.56-4.05-.66-.19-1.03,1.62-1.79.85.88-1.52,1.28-5.71,2.48-4.87,1.58.67-1.82,3.23-.1,3.5,2.77-1.72,1.87-6.91,2.25-8.47.35-1.44,1.43-2.88,2.15-4.97.78-2.34.92-4.09,2.35-4.9.5-1.54-.68-1.65.27-3.55,1.72.94,2.14-3.87,2.96-5.37.25-.43,1.19-.13,1.49-.83.28-.56.51-1.29.67-2.07.22-.79.55-1.61.89-2.37.55-1.12.97-1.17,1.46-2.28,1.22-2.52.35-1.86,1.78-2.92,1.43-1.05,2.03-4.02,3.18-5.91.74.47,1.5.82,2.22.32-.06-.9-.03-1.7.2-2.43s.55-1.37.94-1.96c.78-1.19,1.78-2.25,2.6-3.5,1.38-2.14,3.79-5.9,4.08-6.89.24-.92-1.24.15-.33-1.68.87-1.76,2.26-3.17,3.45-4.65,1.25-1.49,2.37-3.01,2.94-4.75.91-.24.01,2.32,1.23.71,1.64-3,3.17-5.48,4.81-7.57,1.7-2.1,3.35-3.89,5.02-5.86-1.14-1.28,1.03-4.36,2.61-7.1.88-.12-.1,2.35,1.19.78,1.82-2.56,4.86-4.66,6-6.3.53-.75.29-1.66,1.03-2.53.73-.93,1.82-1.4,2.52-2.2.6-.71,1.14-2.13,1.67-2.89,1.19-1.48,2.45-2.24,3.19-3.36.67-.91.92-2.02,1.58-2.99,1.13-1.71,2.62-3.87,3.94-5.33,1.04-1.13,2.72-1.03,4.08-2.56.7-.8-.09-1.26,1.25-2.41,1.4.66,1.57-.3,2.12-.75,1.5-1.25,4.77-4.75,5.16-5.1.79-.7,1.66-2.46,2.45-3.16.69-.61,1.73-.83,2.4-1.31.55-.45.47-.98,1.15-1.65,1.74-1.69,5.66-5.3,7.73-7.14.58-.58,3.07-1.74,2.9-1.69.52-.32.33-.82.74-1.11,2.84-2.16,6.52-4.37,9.03-6.63.69-.61.52-1.24,1.73-1.99.17-.05,1.18-.13,1.45-.27.64-.35,1.41-1.35,2.06-1.65.77-.33,1.49-.15,2.21-.41,2.26-.67,2.61-1.43,4.76-3.41.93-.86,1.99-1.69,3-2.45,1.03-.7,2.01-1.39,2.66-1.93-.28-.6-1.09-.2-1.36-.74,1.22-1.36,2.21-.65,3.56-1.75,1.1-.9.96-1.66,2.2-2.48,1.15-.73,1.2-.32,2.54-.99.65-.3,2.76-2.69,3.05-1.37-2.03,1.52-4.04,3.15-5.37,4.79-.55.7-2.45,2.24-1.49,2.41,1.13-.79,1.73-1.5,2.39-2.23,2.01-2.06,2.03-2.01,3.98-3.38.17-.04.15-.59.81-1.07,1.43-.81,2.33-1.11,3.06-2.47,1.05-.16,1.61.54,2.61.4,1.79-2.43,4.07-2.37,5.6-3.27.89-.54,1.09-1.39,1.97-1.75,1.48-.64,2.51.24,4.05-.84,2.19-1.62,1.77-3.65-.92-2.74-2.54,2.14-4.79,4.21-7.35,4.23,1.37-1.28,2.98-2.57,4.51-3.46,1.55-.84,2.96-1.47,3.75-1.74,2.32-.68,1.96.27,4.47-.16.45-.12,2.13-.94,2.41-1.01.23-.06,1.79-.17,1.68-1-.61-.45-4.44,1.43-3.11-.21,2.51-1.34,3.42-.67,5.18-1.39,3.37-1.33,6.86-3.79,10.32-5.45.81-.4,1.77-.23,2.59-.57.87-.42,2.06-1.65,3.28-2.1,1.66-.63,3.65-1.4,4.11-.37-.03,1.04-2.38,1.61-3.18,2.25-.15.1-.03.8-.24.92-1.67.81-2.1-.11-3.88.79-1.18,2.88-4.1,2.68-6.64,3.91-.96.5-2.32,1.6-3.23,2.08-3.67,2.02-8.04,3.92-12.01,6.21-1.01.57-1.46,1.37-2.6,1.92-1.43.81-2.86,1.19-4.15,1.84-1.43.81-2.77,1.96-4.3,2.86-2.32,1.35-5.09,1.73-7.29,3.11-.57.4-.93,1.1-1.88,1.85-1.76,1.39-3.92,3.12-6.21,4.84-1.12.85-2.29,1.71-3.42,2.5s-2.19,1.62-3.28,2.34c-1.44,1-2.7,1.33-3.97,2.28-1.74,1.26-3.56,2.66-5.4,4.01-.92.67-1.76,1.39-2.55,2.09-.79.7-1.52,1.38-2.21,2-.75.63-1.42,1.78-2.16,2.41-1.06.83-2.45.9-3.6,1.82-.51.38-1.68,1.92-2.66,2.85-2.35,2.4-4.6,4.04-5.81,5.22-.68.67-.55,1.12-1.58,2.07-1.38,1.22-2.94,2.01-4.22,3.15-1.68,1.49-2.66,3.52-4.17,4.96-.72.74-1.84,1.1-2.73,1.89-1.27,1.19-2.57,2.7-3.82,4.2-.66.72-1.26,1.44-1.87,2.15-.55.69-1.11,1.33-1.68,1.91-.91.92-1.73,1.07-2.63,2.05-1.84,2.02-2.93,4.08-4.74,6.21-.64.78-1.36,1.52-2.01,2.31-.7.8-1.35,1.58-2.01,2.31-1.31,1.51-2.54,2.82-3.27,3.74-.55.7-1.08,2.12-1.68,2.83-.56.64-1.09.05-2.07.92.11-.03-1.54,2-1.58,2.07-.84,1.2-.99,2.22-1.89,3.43-2.4,3.33-5.48,6.41-7.09,8.61-2.13,2.77-2.44,4.56-3.51,5.58-1.83,1.83-2.56,4.35-4.05,6.76-.89,1.46-2.78,3.06-3.68,4.71-.44.85-.21,1.28-.92,2.5-1.07,1.93-2.6,3.75-3.44,5.62-.37.89-.53,2.58-.9,3.23.04-.07-1.65,1.11-2.2,1.81-.98,1.12-1.79,3.1-2.35,3.98-.56.88-1.18,1.05-1.77,2.06-1.57,2.8-3.69,6.97-5.12,10.03-.6,1.2-.34,1.92-.98,3.19-.98,2.03-2.5,3.66-3.48,5.69-.83,1.69-1,3.32-1.7,5.03-1.38,3.05-2.54,6.23-3.94,9.23-1.38,3.05-2.7,6.09-3.8,9.07,1.17.05,1.32,1.05.61,2.95-1.18,1.53-1.05-2.77-2.2-.02-.11,3.69-1.02,5.09-2.29,7.63-1.38,2.81-2.41,6.5-3.33,9.43-.34,1.01-1.02,1.43-1.3,2.42-.34,1.25-.1,2.35-.44,3.35-.27.81-1.06,1.5-1.3,2.42-.28.99.37,1.61.06,2.73-.32,1.31-1.86,1.48-1.42,3.13.06,2.49,1.37,2.62.76,5.59-1.36,1.77-.29-1.75-1.49-1.68-.73,3.19-1.09,6.64-1.88,9.84-.27,1.05-1.04,2.05-1.22,3.19-.44,2.01-.48,4.58-.9,6.65-.59,2.6-1.67,4.47-1.98,6.51-.06.44-.09,1.24-.07,2.03.03.79.05,1.57,0,2.02-.33,1.73-1.23,2.71-1.47,4.54-.18,1.39.4,3.31.29,4.74-.04.74-.87,2-1.02,3.26-.17,1.2.22,2.63.11,3.39-.11.95-.6,1.2-.81,1.99-.67,2.5-1.04,7.05-1.15,10.07-.04,1.23.41,1.54.23,2.68-.11.94-.64,2.18-.69,3.36-.07,1.12.14,2.34.06,3.4-.14,1.32-.59,2.11-.69,3.36-.06,1.36-.13,3.63-.23,5.74-.11,2.1.08,3.94.07,4.37.02.54.45.98.42,1.35-.12,2.05-.9,2.56-.85,4.13.02,1.21.93,2.8.95,4.01-.05,1.42-.61,2.3-.85,4.13-.34,3.51-.1,6.92,2.19,7.28-.02,1.96.68,4.15.64,6.05-.05,1.42-.86,1.82-1.12,2.86-.84,3.03.26,9.63.61,13.68.1.83.66.86.65,1.96,0,.43-.68.67-.52,1.48,0,0,.78.4.82.57,1.14,2.44.1,5.83.44,7.57.39,1.91,2.04,3.05,1.65,4.56-.27,1.05,1.39,2.01.19,2.76-.21-.8-.41-1.54-.99-1.2-.07,2.03-.69,3.36.32,4.85.95,1.51.59,2.22.88,3.3.23.85.7.79.88,1.9.18,1.11-.29,1.42-.04,2.82.28,1.27,1.25,3.08,1.54,4.59.17.87-.15,1.02.14,2.1.38,1.42,1.21,2.48,1.52,3.86.42,2.02-.87,3.34.92,5.49.96-.07-1.45-3.58.19-2.92,1.21,1.99.69,2.56,1.59,5.25-1.38-.12-.72,1.65-.76,2.4-.13,1.8-.4,2.61.23,4.27.4,1.05,1.25,2.16,1.51,3.13.47,1.76.32,3.94.88,5.56.5,1.64,1.56,2.39,2.08,3.65.4,1.05,1.19,3.77,1.37,4.64.21,1.23-.36,1.62.06,2.97,1.32,4.22,4.07,8.12,4.37,12.43.72.42,1.47.03,2.18,1.31-.86,2.49.67,6.16,2.55,9.5.47.85,1.73,2.83,2.06,3.6.03.11.17,1.78.34,2.17.93,2.8,2.8,5.65,3.95,8.15,1.04,2.28.41,4.71,2.95,5.55-.34-1.25-1.74-3.32-.66-3.61,1.82,4.27,4.88,7.72,6.29,11.61.48,1.34.22,2.2.83,3.56.53,1.08,1.08,1.3,1.7,2.23,1.14,1.77,1.81,2.87,2.25,3.85.45.98.67,1.83,1.34,2.93.38.75.84.63,1.46,1.56,1.28,2.04,3.03,4.92,3.56,6,.15.33-.63.6-.48,1.17.49,1.82,2.77,3.28,1.82,3.84,1.14.37,2.29.79,3.76,3.32-.73.93-2.21-1.42-1.88.5,3.03,5.17,6.01,9.43,10.08,14.38,1.1,1.35,2.24,3.36,2.8,4.07,0,0,.35.15.68.25.35.15.69.3.76.34,1.45,2.23.65,3.12,2.01,4.77,1.26.15,3.56,4.17,4.59,3.47-.88,2.19,4.6,6.7,7.42,10.39,1.52,1.79,2.23,3.55,3.22,4.75.56.7,1.27.64,2.25,1.78.79.89,1.22,2.05,1.97,3.01.82,1,1.81,1.28,2.25,1.78.61.69,1.28,2.28,2.02,2.99,1.9,1.87,4.03,3.43,5.75,5.29,2.11,2.18,3.27,4.25,5.27,5.79.94.78,2.29,1.03,3.16,1.77-.72.5-2.14.21-.61,1.81,1.87.84,2.93-.24,5.54,2.23,1.3,1.42-2.31.25-.06,2.27,2.67,1.54,4.72,3.49,6.7,5.4,2.02,1.84,3.89,3.59,5.99,5.04.95.6,1.07-.35,1.77.01.78.4,1.31,1.48,2.66,2.4,2.4,1.67,1.53.02,3.29,1.56,1.86,1.7,1.29,2.52,3.86,4.39,1,.53.92-.43,1.8-.12-.2-.07,3.85,2.99,3.94,3.09,1.51,1.55-.23,2.56,1.97,3.5,2.34,2.12,1.64-.93,3.75.77.51,1.45-1.36.61-.34,1.92,2.02.92,1.47,1.62,3.49,2.54l.77-1.24c2.26,1.83,3.94,2.18,7.35,4.43-3.24,1.11,3.28,2.9,3.69,5.11,1.9.71,2.36-.76,4.64.46,1.15,1.34,1.9,2.54,3.78,3.62,1.3.75,2.42.39,4.32,1.1,2.1.78,4.95,2.52,5.07,2.73.64.8,1.89,2.05,2.8,2.48,1.99,1.05,4.94,1.12,6.65,2.73,1.79.74-1.43,1.48,1.32,2.21,1.41.72.83-1.01,1.42-1.3,3.25.96,4.11,2.8,6.11,3.91.85.44,2.36.59,3.46,1.08,1.93.83,3.2,2.13,5.83,2.83.42.86-2.43.28-.56,1.31.74.47,1.48.76,2.22.99.73.23,1.43.35,2.21.51,1.48.27,2.94.49,4.64,1.14,1.57.62,2.75,2.07,4.35,2.8,1.38.61,3.15,1.05,4.74,1.29,1.65.23,3.08.33,3.81.56,2.96.79,6.06,2.34,8.79,3.19.81.27,1.64.42,2.48.62.83.14,1.66.29,2.45.5.68.25,2.11,1.26,2.58,1.44,1.76.63,4.17,1.2,6.71,1.8,1.31.32,2.61.64,3.94,1.02,1.36.3,2.67.63,4.01,1.06,1.47.46,2.65,1.24,4.05,1.66,2.76.73,6.01,1.68,9.09,2.26,3.08.58,5.95,1.03,7.94,1.17,1.06.08,1.81-.3,2.94-.18,1.38.12,1.53.69,2.79.84,1.89.23,4.43-.33,5.16-.34,2.42-.1,4.97.56,6.49.52,1.87-.08,3.73-.45,5.64-.6,1.91-.15,3.9,0,5.87,1.17-.9.06-1.5.34-1.51.95,1.36.98,2.87-.22,4.29.74-.13,1.8-2.6,2.16-1.86,4.46,1.38.61,2.11,1.51,4.28,1.84.41,1.54-3.57.35-3.1,1.87,2.46-.17,4.98.13,7.32.66.3,1.14-1.58,2.31,2.75,2.98.06,1.14-3.41,1.4-1.68,2.4,3.45-.8,3.29.64,5.95,1.03,1.89.23,3.78.45,5.7.55.93.05,1.92.1,2.83.09l2.84-.09c3.82-.11,7.53-.37,11.12-.42,2.43-.04,4.59.05,6.73-.16,1-.14,1.48-.64,2.23-.78,1.45-.27,3.68-.38,5.23-.55,2.24-.29,3.67-.43,4.87-.51,1.18-.13,2.12-.08,3.36.01,2.19.21,3.45.36,4.53.74.93.3,1.39.18,1.59.92.32,1.19-1.78,1.33-2.06,2.32.04.6,2.09.05,2.34.53-3.62.6-.72,2.08-1.28,2.97-.39.59-3.16,1.88-3.68,2.45-.38.41.04.84-.68,1.1-1.17.43-2.85.76-4.59.86-1.74.1-3.67.19-5.33.39-1,.15-1.53.66-2.29.8-3.62.6-5.32.21-6.15,1.65.3.9,2.33.96,2.38,2.05-1.58.73-2.98,1.41-4.54,1.95-1.6.43-3.35.71-5.55.7-1.5,1.68-.47,2.57,1.52,2.95,2,.38,4.88.22,7.13-.51,1.02,1.31,5.05,1.09,7.96,1.47,2.05.61-1.57,1.89,1.65,2.06,1.86-.56,3.59-.72,5.33-.82,1.69-.09,3.33-.1,4.98-.11,2.66-.1,5.28-.8,7.91-1.02,1.91-.15,3.71.41,5.61.21,1.07-.1,2.68-.72,3.93-.81,1.41-.2,2.46.07,3.23-.01,1.3-.16,2.56-.69,3.86-.85,3.29-.27,9.11-1.1,13.42-1.64,1.13-.12,2.79-.08,3.19-.18,1.61-.37,2.38-1.13,3.8-1.32.83-.1,1.92.34,3.26.1,1.21-.26,2.73-.97,3.84-1.15,3.86-.61,7.47-.6,11.06-1.56-1.61,3.11-8.49,2.27-12.36,3.31-1.77.47-2.34,1.3-3.72,1.85-2.98,1.16-6.52,1.62-9.29,2.67-1.53.23,1.16-1.59-1.78-1.17-5.46,1.04-6.33,1.21-11.87,1.72l.2,1.41c-3.25.87-3.21-.36-5.62-.02-1.07,1.69-4.09,1.16-7.1,1.54-3.33.34-9.28,1.14-10.33,1.55-2.9,1.02-3.8.16-6.43.14-2.29-.12-3.64.3-5.62.22.78,1.56-1.62,1.23-3.18,1.58-.23.06-1.18.62-1.56.78-1.52.47-2.73.98-4.01,1.2-1.68.33-3.36-.02-4.86.08-1.01.09-1.58.49-2.45.66-1.42.38-1.49.15-2.45.66-.37.22.88.56.8.7-.03.13-1.48.4-1.65.68-.46.79.11,1.56-.84,2.11-.89.54-3.24.2-5.76,1.06-1.3.41-2.03,1.76-3.36,2.49-.64.35-2.68.23-3.32.59-.38.16.94.54.81.76-.53.75-2.22-.32-3.34-.14-.29.08.86.69.81.76-.11.03-2.33.2-2.5.24-.46.12-1.26.09-1.7.27-.23.06-.71.98-.88,1.03-1.41.2-2.71-.55-3.31-.52-.79.03-.7.8-2.52.61-1-.1-1.76-.87-3.29-.89-.11.03-1.14.55-1.68.57-1.27.04-2.87-.45-4.14-.42-1.87.08-1.78.66-3.37.42-.06.01-.57-.76-.76-.77-.8-.27-2.63-.03-3.32-.33-.89-.37-.23-1.53-2.31-2-3.32-.76-1.42-.05-2.37-1.32-.1-.15-1.64-.66-1.61-.54-.22-.61.51-1.05.99-1.3-2.18-.64-3.34-1.54-5.53-2.18,0-1.1,2.16-1.74.34-2.83-1.63.74-5.28-.11-6.6.18-.4.11-.61.9-.97.93-.83.1-2.32-.48-3.24-.47-.79.03-1.05.4-2.54.32-1.49-.09-4.88-.46-6.51-.82-.33-.09-.79-1.13-1.4-1.33-.8-.27-3.03.32-4.12-.36-1.59-.92-1.85-2.13-3.54-3.2-.43-.25-1.91-.28-2.4-.52-1.89-.9-.55-1.38-2.88-2.09-1.8-.56-3.72-.22-5.7-.55-1.16-.24-2.89-.99-4.71-1.42-1.57-.37-3.66-.91-5.48-1.34-1.82-.43-3.37-.74-4.12-.79-1.05-.03-1.32-.38-1.58-.43-2.17-.33-2.65-.08-4.12-.36-1.49-.33-1.63-.84-3.07-1.19-2.69-.68-6.34-1.78-8.68-2.31-1.05-.27-2.23-.13-3.32-.33-4.03-.69-6.33-2.21-8.65-2.44-.06.02-4.72-.99-4.85-1.02-1.31-.56-1.92-1.68-4.36-2.37-4.31-1.29-7.17-.58-9.98-1.47-1.32-.38-2.25-1.35-3.69-1.94-2.06-.85-4.24-1.24-6.22-2.24-2.05-1.04-5.2-3.67-7.37-3.58-1.93.09-6.31-3.49-8.79-4.54-1.51-.63-1.79-.31-3.26-.77-1.91-.52-2.98-1.09-3.88-1.71-.84-.63-1.49-1.25-2.59-1.93-6.24-3.94-9.78-3.23-14.45-6.07-.88-.56-1.61-1.22-2.28-1.89-.68-.73-1.35-1.41-2.2-1.85-1.52-.87-3.32-1-4.78-1.65-2.33-.96-6.32-3.55-9.56-4.94-1.91-.77-3.33-.82-4.79-1.71-1.17-.72-2.28-1.89-3.94-3.09-1.2-.84-3.69-1.94-4.32-2.44-1.69-1.32.15-1.02-1.63-2-1.7-.88-4.63-4.74-6.02-5.83-.23-.18-3.69-.78-3.51-2.17-.09.57.52,1.26-.17,1.63-1.07-.81-2.51-.73-3.97-1.62-1.1-.68-3.01-2.79-5.11-4.24-1.66-1.2-3.08-1.49-3.12-2.76-1.63-1.09-2.04.12-3.93-1.69.62-.65,1.93.15.23-1.65-3.04-.16-6.08-4.23-8.77-6.31-1.87-1.51-4.07-2.88-6.32-4.47-2.16-1.68-4.43-3.57-6.59-5.92-.99-1.87-1.71-5.03-4.27-6.36-.31.45,1.36,1.65.5,1.88-3.13-2.33-4.02-3.62-4.57-4.75-.49-1.15-.68-2.08-2.22-3.74-.99-.04.72,1.76.4,1.97-.27.13-2.01-2.02-2.52-.97.98,1.14,2.44,2.95,3.89,4.51,1.46,1.56,2.79,2.91,3.38,3.49.8.7,1.21.41,2.1,1.45.79.89,1.05,1.85,1.96,2.77,1.5,1.49,3.22,2.92,4.91,4.42.87.74,1.68,1.5,2.55,2.24.87.74,1.67,1.44,2.48,2.2,1.07,1.05,1.64,2.24,2.76,3.23,1.92,1.68,4.09,2.75,5.97,4.5,3.48,3.4,9.68,7.65,13.63,10.99.71.6,1.44,1.75,2.27,2.56,1.57,1.53,3.4,2.69,4.5,3.8,1.18,1.21,1.58,2.26,2.83,3.27-.07-.04,1.06-.16,1.07-.1.71.36.66.86,1.18,1.21-3.8.16,1.51,4.05.18,5.68-3.2-2.13-5.58-2.59-8.82-5.14-1.65-1.39-2.52-2.8-4.34-4.14-1.14-.85-2.47-1.23-3.82-1.96-2.5-1.34-2.88-2.09-4.05-3.06-.86-.68-1.19-.35-2.28-1.22-.78-.64-1.78-1.41-2.67-2.21-.9-.86-1.79-1.66-2.44-2.27-2.18-1.98-7.73-7.44-9.34-8.66-1.14-.85-3.28-1.74-4.38-2.67-.8-.7-1.92-2.6-2.67-3.37-1.88-2-4.87-4.98-6.65-6.58-1.19-1.02-2.4-1.67-3.38-2.57-.99-.96-1.57-2.2-2.62-3.39-1.97-2.34-4.85-5.1-7.96-8.05-1.5-1.49-3.14-3.06-4.71-4.59-.76-.77-1.58-1.59-2.34-2.36-.72-.85-1.42-1.63-2.13-2.48-1.9-2.3-3.44-4.87-5.1-6.74-2.29-2.62-5.38-5.51-7.51-7.99-2.14-2.54-3.01-5.29-5.04-7.86-1.66-2.12-4.26-4.29-6.39-6.77-2.33-2.79-4.61-6.02-6.51-8.81-2.64-3.93-4.33-5.91-6.45-8.82-1.53-2.27-2.77-5.11-4.38-7.24-.88-1.23-2.57-2.54-3.41-3.84-.82-1.24-.98-3.64-2.34-5.53-.1-.16-1.34-.68-1.68-1.93-1.61-1.22-.58,1.25-1.96.22-2.14-2.96.75-2.21-.6-4.54-1.65-1.39-1.79-3.48-2.58-4.37-.77-.83-1.32.54-2.2-1.61-1.58-2.93,1.27-.04.39-2.18-2.03-1.65-3.2-5.55-5.29-8.59-.98-1.38-1.87-1.51-2.93-3.18-.47-.85-.28-1.27-.88-2.39-.6-1.12-1.92-2.84-2.31-3.59-.89-1.71-1.05-3.01-2.04-4.64-.59-1.06-.5-.05-1.04-.45-3.39-2.63-3.81-11.24-5.13-12.53-.41-.38.33,1.92.06,1.81-1.05-2.34-.16-5.38-2.54-6.27.49,1.15,1.42,2.79,1.1,3.18-2.7-3.48-1.2-5.17-2.21-8.25-.56-1.86-1.93-4.91-3.25-7.79-1.41-3.22-3.43-7.8-4.46-10.03-.7-1.46-2.02-2.08-2.76-3.47-1.08-1.97-3.19-7.81-3.48-8.65-.42-1.11.13-1.56-.16-2.64,0,0-1.04-.7-1.22-1.38-.11-.4.41-.96.13-1.8-.36-1.12-1.04-1.37-1.32-3.12.91-2.07-.85-5.44-2.78-11.51-2-5.87-3.34-12.22-4.82-17.98-.76-2.85-1.49-5.58-2.11-8.1-.54-2.48-1.09-4.77-1.64-6.57-.54.02-1.2.32-1.37-1.46.21-1.28.85.2.88-1.03.04-.99-.63-5.08-1-6.69-.3-1.14-.49-.24-.86-.69-1.43-1.69-1.57-9.28-1.7-9.98-.06-.23-.96-1.76-1.07-2.4-1.24-4.85-.36-7.04-.83-10.15-.19-1.17-1.02-2.65-1.23-4.12-.17-.87.03-2.63-.1-4.24-.1-1.07-.49-1.15-.66-2.45-.12-1.13.17-1.63,0-3.42-.13-1.61-.54-1.81-.71-3.35-.09-1.26.32-1.55,0-3.42-.41-2.45-.88-3.73-1.14-5.85-.11-1.31.29-3.01.14-4.25-.18-1.35-1.08-2.88-1.3-4.17-.22-1.28-.11-2.9-.21-4.21-.13-1.18-.37-2.52-.59-3.81-.24-1.34-.34-2.65-.41-3.79-.07-1.63.36-1.86.3-3.44-.09-3.51-.39-8.74-.47-13.6.02-3.36-.14-6.67-.01-9.39.17-3.7.85-5.72.7-7.63-.18-2.03-1.2-3.1-1.2-5.17.07-1.54.99-4.05,1.23-5.88.17-.96-.22-1.28-.14-2.58.12-1.13.73-1.6.69-3.36-.04-1.27-.36-.21-.62-.93-.61-1.6.58-6.5.77-8.5.75-5.87.94-13.12,1.42-17.95.14-1.32.55-2.95.63-4.26.11-1.19-.25-2.07-.07-3.46.4-3.28,1.33-6.64,1.59-8.42.08-.39-.19-1.17.16-2.6.36-1.62.92-2.5,1.15-4.15.14-.83.09-1.73.03-2.63-.06-.9-.06-1.81.03-2.63.3-1.85,1.46-2.53,1.55-4.93.19-3.4,1.33-4.14,1.96-6.56.3-1.18-.16-1.97.1-3.5.21-1.28.97-2.76,1.4-4.1,2.04-6.04,1.11-6.58,1.9-10.21.16-.77.87-1.76,1.33-3.22.64-1.94.72-3.91,1.15-5.06.51-1.29,1.16-1.59,1.68-3.07,1.34-3.65,2.7-9.75,4.19-13.99,1.2-3.49,1.13-2.38,1.4-5.01.21-2.19.73-4.34,1.43-6.3.7-1.96,1.57-3.71,2.75-5.01.31-2.03-.18-2.94.31-4.54.76-2.4,2.62-4.79,4.06-6.94,1.57-2.13,2.72-3.96,2.08-5.44-1.07,1.69-2.27,6.34-3.19,5.18,2.16-4.91,4.48-9.25,6.4-13.24,1.98-4.01,3.55-7.72,4.79-11.04-.61-.69-1.67,3.56-2.2,1.81.71-2.81,4.4-8.19,4.35-10.44,2.56-.01,2.99-5.92,4.7-7.3-.07,1.54.48.42,1.25-1.25.77-1.67,1.97-3.82,2.86-4.36-.85-.2-2.13.69-1.88-1.08,2.37-3.01,4.52-6.58,6.3-8.4.72-.74.88.56,2.25-1.64.94-1.96.82-2.42,2.06-4.82,1.54-2.67,4.68-5.53,4.06-6.7-.79-.46-2.32,2.51-3.15,2.12,1.09-2.55,3.22-6.9,4.95-9.32.95-1.23,2.02-.91,3.11-2.05.58-.58,1.9-2.46,3.12-4.07,1.22-1.61,2.31-3,2.23-2.85.08-.15-1.9.88-1.93.76.07-1.79,1.79-1.52,2.36-2.58.19-.42-.72-1.09-.6-1.55.22-.79,1.49-2.17,1.81-3.05,1.54-2.24,4.04-1.57,4.29-3.35-.38-.27-1.18,1.05-1.63.99.89-1.7,1.73-3.33,2.77-5.13,1.04-1.8,2.48-3.71,4.41-5.88,1.86-.13-2.47,3.1-.57,2.9,2.89-2.66.91-2.74,3.32-5.16.5-1.54-1.93.09.57-2.9,1.22-1.61,1.44-.08,2.51-1.34-.43-1.17,1.53-1.81,2.27-2.68.93-1.1,1.62-2.63,2.51-3.6.1-.09,1.17-.44,1.66-.87.89-.79,2.2-2.48,2.11-2.82-.67-.43-2.66,2.6-3.77,3.7-.55-2.96,5.25-7.08,8.06-10.46,1.39-1.65,1.97-3.58,3.42-5.25,1.02-1.19,1.59-1.34,2.66-2.36,3.48-3.19,4.19-3.74,6.71-5.7-.55-2.05,5.08-5.87,7.67-8.52.48-.49,1.25-2.17,2.03-2.92,1.48-1.55,3.34-2.79,4.58-4.09.48-.49,1.55-2.18,2.15-2.9,3.62-4.26,5.41-4.62,5.2-6.09-.06-.47.92-1.35,1.98-2.18,1.06-.83,2.33-1.54,2.69-1.82,1.31-1.02,1.23-1.55,2.5-2.5.9-.73,1.22-.45,2.31-1.41.93-.86,1.03-1.62,2.3-2.81.06-.01.87-.17,1.6-.86,1.37-1.28,3.2-2.87,5.13-4.55,1.88-1.66,3.95-3.25,5.63-4.74.91-.49.26,2.12,3.7-.99,1.5-2.35-2.16.82-2.48-.37,4.25-2.6,5.71-4.88,7.46-6.33.85-.71,1.25-.34,2.34-1.3.89-.79,1.47-1.8,2.53-2.63,3.63-2.86,8.63-6.76,12.25-8.95,2.31-1.41,5.07-2.27,7.32-3.43,5.07-2.7,8.71-5.99,14.34-8.9l-.9-1.53c2.7-2,2.85-.76,4.43-1.25-.23-2.44,3.75-3.08,7.35-5.14-.17.05,1.64-1.17,2.2-1.57,2.16-1.49,4.98-3.04,7.12-3.74,1.7-1.86-2.56.26-.8-1.62,3.33-1.26,6.26-3.08,9.75-4.62,1.59-.67,3.12-.9,5.03-1.96,2.35-1.24,4.43-3.51,6.74-4.67,1.56-.78,4.23-1.32,5.97-2.09,2.19-.95,4.58-2.26,7.09-3.61,1.29-.65,2.62-1.37,3.95-2.1.7-.37,1.4-.68,2.1-1.05.71-.31,1.42-.62,2.19-.95,4.94-2.06,10.63-3.83,15.1-5.82,3.98-1.8,7.69-3.89,11.6-5.24,1.41-.44,3.04-.27,4.54-.61,3.82-1.02,6.54-2.24,9.1-3.41,2.57-1.12,4.9-2.23,7.83-3.13,1.42-.38,2.99-.68,4.39-1.17,1.14-.31,2.34-1.3,2.45-1.33,1.71-.46,3.74-.15,5.45-.61,1.7-.94,1.89-1.6,4.14-2.33,1.41-.44,3.93-.38,5.42-.72,3.22-.74,6.7-2.34,8.69-2.88.91-.25,1.13.12,1.83,0,1.25-.34,5.9-1.21,8.02-1.72,2.59-.57,5.32-1.79,7.93-2.31,2.19-.47,4.72-.6,6.33-.96,1.37-.37,2.36-1,3.53-1.19,1.34-.24,3.25.05,3.65-.06.46-.12,2.59-.82,3.56-1.07.23-.06,1.31-.35,1.81-.55-.06.02,1.4-.92.82-.83,1.1-.23,2.35.1,4.6-.14,1.96-.22,3.33-.77,4.53-.85,1.86-.13,3.68.54,5.51.29,3.97-.45,6.49-2.23,9.05-2.67,2.4-.4,5.15-.59,8.24-.68,3.09-.1,6.49.09,10.14.03,3.35-.04,6.83-.24,10.26-.43,1.69-.09,3.41-.24,5.11-.27,1.7-.03,3.3.03,4.91.09,3.84.19,8.64,1.04,11.92,1.2,5.97.17,13.03.35,19.33.62,3.15.13,6.14.37,8.64.8,2.5.43,4.57,1.1,5.9,1.96-.67-.43-.25,1.35-.18,1.39.85,1.11,1.56,1.05,1.67,1.69.09.34-.95.8-1.14,1.65-.52,2.15,1.25,1.49-2.17,2.6-3.49,1.12-2.95.61-8.29,1.18-2.5.24-3.83.72-4.56.31-.45-.31-1.08.29-.97.26-1.3-.08-3.61-.5-5.39-.51-1.27.04-2.64.4-3.63.36.11-.03-2.3-.6-3.54-.7-2.15-.04-4.21.7-6.32.78-1.57.05-3.85-.25-5.37-.21-4.17.14-8.06,1.12-11.64.98-1.29-.02-1.6-.49-3.57-.33-2.21.17-4.59,1.11-8.03,1.48-2.14.21-5.24-.18-8.04.08-1.86.13-3.11.71-4.42.82-2.33.2-4.11-.3-5.32-.04-.87.17-2.3,1.22-3.48,1.6-2.88-.27-6.19-.11-8.86.18-1.07.1-2.59.82-3.47.93-1.64.26-2.02-.25-3.53.03-2.05.31-1.41,1.11-3.39,1.46-3.35-1.12-5.07.2-7.89.83-.97.26-4.12-.12-3.46.74,2.14-.45,4.44-1.19,4.47.27-4.47.65-6.49-.09-8.96-.4-.3,1.18-3.71.75-6.04,1.62-1.83.67-.91,1.4-3.27,1.91-4.02.95-8.87-.06-11.3,1.81-.2.85,3.92-.87,2.78.6-2.23.35-2.92-.44-5.39-.08-1.34.24-3.37,1.33-5.02,1.77-1.37.37-3.17.24-4.38.5-.23.06-1.86,1.05-2.42,1.2-1.24.39-3.3.46-3.37,1.09.43.68,3.27-.33,3.7.35-4.72.6-10.51,2.94-11.95,2.78-.89-.13-.45-.06-1.76.04-5.64.6-4.96,2-10.04,3.3-1.6.43-3.27.33-4.31.79-2.03.85-3.28,3.26-6.39,3.05.85-.23.86-.9-.18-.68-1.7.94-2.44,2.3-4.51,3.22-2.94,1.34-6.24,1.31-9.27,2.55-2.09.86-2.01,2.06-4.48,3.09-.38.16-3.36.9-4.21,1.13-.8.21-2.82-.04-3.28,1.18-.03,1.04,3.15-.78,3.62-.18-2.44,1.14-5.37,2.29-8.01,3.37s-4.95,2.24-6.24,3.14c-1.96.22.71-1.23-1.21-.65-2.59.82-8.38,4.26-9.38,4.65-.45.12-.62-.26-1.74.34-1.18.62-1.54,1.33-2.94,2.01-2.95,1.52-6.58,2.8-9.44,4.42-1.22.69-.39.83-2.03,1.76-3.47,1.85-8.48,3.19-10.55,5.94.24.42,1.48-.4,1.84-.19-3.16,2.8-7.78,6.05-12.44,7.79-.78.27-1.93-.15-2.8.26-1.09.48-3,2.02-4.3,2.86-1.77,1.14-3.62,1.76-4.27,2.97.38,1.42,3.72-.93,4.79-.37-4.39,2.76-4.51,1.39-6.8,1.95-4.07,1.45-4.61,3.98-6.67,5.63-2.08,1.59-4.83,2.7-6.1,4.81,1.61-.61,3.63-1.95,5.88-3.35,2.27-1.34,4.6-2.88,6.68-3.99-.21-.55-.76-1.02.93-1.77,1.35-1.58,1.5.15,2.77-.38,1.97-.83,6.73-5.4,12.16-8.14,2.03-1.09,3.27-1.24,4.68-2.11,1.26-.76,2.41-1.93,3.45-2.63,1.73-1.07,4.84-3.13,5.96-3.49,1.78-.66,2.46.32,4.35-.86,2.09-.86.02-1.53,2.65-2.42,3.47.41,5.98-3.43,10.9-5.11-.24-.43-1.21.02-1.2-.6,3.81-1.27,7.69-2.06,10.76-3.37,3.02-1.24,2.08-1.59,3.72-2.28.23-.06,1.95-.22,3.33-1.01,1.37-.79,1.81-1.89,3.58-2.6,0,0,2.96-1.04,3.23-1.17,2.82-.88,6.49-.83,9.39-1.85.57-.15,1.85-1.29,2.99-1.84,4.24-2.17,7.28-2.68,10.67-3.47.16-.77-2.99-.66.42-1.64,3.71-1.42,1.53.93,2.91.62,2.33-2.03,6.3-2.24,9.78-3.35,1.24-.39,1.5-1.01,3.12-1.57-.23.06,1.12.07,1.74-.1,1.14-.31,1.73-.83,2.43-.96,2.11-.57,4.18-.57,5.91-1.16.91-.24,1.77-1.14,2.34-1.3,2.11-.57,3.93-.81,5.7-1.04,1.79-.17,3.48-.44,5.33-1.06,1.51-.53,2.24-1.45,4-1.93,2.22-.6,4.49-1.02,6.94-1.43,2.4-.4,4.92-.77,7.59-1.06.88-.12.96-.5,1.66-.63,1.06-.16,1.28.21,2.62-.03,5.32-.88,14.24-2.66,18.78-3.02.34-.09,1.86.35,3.48-.02,1.38-.31.6-.71,2.49-.97,2.01-.23,3.87.3,6.06.08.96-.07,2.57-.87,4.27-1.14,3.84-.48,9.26-.29,12.09-.68,1.3-.17,1.99-.78,3.42-.92,1.61-.13,3.48.47,5.24.42,3.29-.03,3.42-.67,4.31-.79,1.18-.14,3.15.38,4.35.3,0,0,2.48-.3,3.44-.37,4.28-.42,4.69-.28,4.31-1.46,1.29.26,2.57.47,3.97.7.69.06,1.39.18,2.08.24.7.12,1.39.18,2.15.28,2.91.38,5.96.6,9.19.59.97-.02.4-.11.9-.3,1.63-.74,6.08.14,8.72-.02,3.16-.05,5.44-1.33,8.78-.71.3.65-1.37.79-.08,1.06,3.37.74,7.94.25,11.28.64.82.09,1.7.4,2.59.77.89.37,1.73.76,2.5.92.65.13,5,.43,6.93.58,4.12.36,9.63,1.32,13.78,1.98,1.35.25,3.09-.1,4.42.1,1.28.21,2.93.92,4.22,1.18,1.22.22,3.05.22,4.34.48,1.55.32,1.84.73,3.32,1,1.66.29,3.73.04,5.28.35,1.03.21,1.61.79,3.31,1.19,1.77.44,3.56.51,5.18.87,2.47.56,4.49,1.48,6.7,1.99,2.47.56,5.2.5,7.79,1.27,4.02,1.12,7.61,2.9,11.58,3.79,1.1.25,1.23.04,2.61.4.99.28,2.73,1.28,4.09,1.59.45.06,1.91-.15,2.72.12,2.4.76,5.2,3,7.07,3.6,2.65-.59,3.43.49,6.79,1.66,2.21.75,4.11,1.46,5.85,2.03,1.71.7,3.22,1.33,4.74,1.96,5.03,2.13,11.31,3.49,16.53,5.64,3.6,1.6,5.12,2.47,7.88,3.68,3.26,1.45,5.92,3.17,9.33,4.76l3.91,1.82,3.88,1.95c2.55,1.33,5.15,2.58,7.76,3.9,2.55,1.33,5.16,2.64,7.69,4.1,2.54,1.52,4.97,3.06,7.49,4.7-1.09.96-5.7-2.8-6.31-1.24,1.62,1.27,6.24,4.61,8.19,4.82,2.55.41.12-1.37.36-2.29,1.88.65,3.83,1.78,5.74,2.98,1.97,1.18,3.8,2.58,5.59,3.56,1.01.58,2.46.75,3.34,1.3,0,0,.26.97.29,1.08,2.81,2.72,7.28,4.63,9.49,6.24,3.43,2.56,7.97,6.04,12.09,8.66,1.47.95,2.73.85,4.87,2.23-.16-.14,1.57,1.77,2.54,2.43,1.66,1.2,2.98,1.34,3.87,2.14.89.8,3.2,3.29,2.55,3.83-2.18-.39-4.09-4.09-5.26-3.23,3.6,3.18,7.06,5.61,9.59,7.55,1.57,1.29,2.87,2.95,3.74,3.7,1.14.85,2.98,1.34,4.02,2.03,3.28,2.23,7.58,6.2,9.23,8.02,3.99,4.18,11.24,9.61,12.49,12.21.49,1.15.89,2.63,1.43,3.52,2.29,3.53,4.24,3.99,6.36,5.98,1.63,1.52,2.62,3.38,3.98,4.6,0,0,1.77-.23,1.43,1.02-.73-.66-1.23-.71-1.73-.76,2.56,2.49,5.74,5.23,4.25,1.97,2.34,2.12,1.33,4.28,2.76,5.73-.09-.1,4.53,2.57,3.91,1.15-1.65-2.3-2.22-1.66-3.44-2.8,1.8-.79,5.78,4.25,8.37,7.76.81,1.19,1.19,2.85,1.94,4.05,1.16,1.82,2.24,2.45,2.49,3.6-.67,1.58-3.69-4.44-4.44-3.14,2.18,1.98,4.19,4.92,6.18,7.56,1.99,2.64,3.99,5.09,5.81,6.19-.97-1.33-1.51-2.46-1.53-3.19,2.63,4.11,6.42,6.88,6.56,9.22-1.95-.88-2.57-4.8-4.24-4.42.56,1.19,1.27,2.46,2.03,3.91.6,1.12,2.65,3.74,1.77,4.1-2.76-1.88-3.61-5.25-4.66-7.35-1.21-.41-2.39-1.62-3.53-3.14-1.18-1.45-2.37-3.15-3.42-4.57-1.81-2.44-3.94-4.68-5.52-6.69-1.11-1.41-.38-1.42-1.64-3.16-1.42-1.88-1.96-1.18-3.38-2.82-2.83-3.02-4.92-6.06-7.85-9.24-2.27-2.56-4.42-4.67-6.65-6.82-2.15-2.11-4.32-4.27-6.86-6.7-3.22-3.35-7.42-6.73-9.96-9.59-.96-1.08-1.64-2.49-2.7-3.49-1.31-1.24-3.02-1.93-4.28-3-2.09-1.64-4.74-3.79-6.57-5.62-1.34-1.35-1.42-2.12-2.86-3.38-1.1-.93-2.82-1.62-4.42-2.84-4.37-3.1-9.07-7.63-11.78-8.86-2.49-1.1-1.82-.86-3.63-2.38-1.26-1.06-1.7-.88-2.99-1.82-2.52-1.89-5.67-4.52-8.23-6.33-1.43-1.02-2.79-1.51-3.71-2.24-.85-.69-1.4-1.82-2.4-2.59-1.07-.81-2.43-1.12-3.8-2.09-3.28-2.23-7.19-5.64-9.01-6.74-1.08-.62-2.9-.81-4.17-1.44-2.77-1.21-4.62-2.67-6.84-3.66,1.33,1.78-.79.7-2,.05-4.14-2.24-3.37-3.24-5.96-5.17-1-.77-3.13-1.42-4.68-2.22-1.01-.58-1.31-1.48-2.68-2.27-.87-.5-3.64-1.52-5.49-2.49-2.06-1.09-5.17-2.88-6.9-3.64-1.51-.63-2.58-.53-4.18-1.26-2.84-1.25-5.7-3.29-8.27-4.68-1.79-.98-4.68-2.65-6.12-3.24,0,0-1.03.27-1.08.29-1.34,0-3.42-.91-5.73-2-2.31-1.09-4.8-2.43-6.93-3.33-1.24-.52-3.28-1.32-5.6-2.22-2.32-.9-4.94-2.03-7.6-2.84-5.22-1.71-10.09-3.27-11.28-3.38-3.07-.28-4.03-1.6-6.38-2.62-5.38-2.1-12.8-3.34-20.02-5.25-1.91-.52-3.98-.95-5.97-1.33-2.01-.44-4-.82-5.77-1.26-3.13-.75-6.27-1.98-9.11-2.56-2.34-.53-4.55-.37-6.9-.71-3.94-.59-7.67-1.73-10.16-1.91-1.93-.15-3.29.7-5.29.08-.58-.58-1.3-.99-2.17-1.25-.81-.27-1.77-.44-2.78-.6-2.02-.25-4.35-.3-6.82-.61-1.63-.17-2.64-.76-4.22-.94-2.89-.32-5.95-.36-8.58-.81-1.46-.22-1.98-.57-3.42-.67-.86-.01-3.05.45-3.5.39-.33-.09.18-.47-.85-.44-1.89.02-3.33,1.02-5.19.23-1.69-.4.72-2.09-2.42-1.97-1.04-.03-1.25.33-1.81.54-1.02.52.04.36-1.73.59-3.21.31-6.66-.72-11.11-.93-1.36-.06-3.41.49-5.17.53-1.4,0-2.62-.46-4.29-.5-.93-.06-1.9-.04-2.92.05-1.01.09-2.09.19-3.17.24-2.2.22-4.47.4-6.79.42-2.45-.02-4.63-.41-6.86-.3-1.8.12-3.25.63-5.09.82-5.87.66-14.81,1.22-18.82,1.08-1.29-.02-.77-.83-2.58-.53-2.29.12-.59,1.44-3.34,1.44-2.47.36-2.7-.5-5.18-.2-3.57,2.18-7.63,1.8-11.77,2.3-6.02,1-14.95,2.3-20.29,3.12-1.4.25-3.2,1.04-4.95,1.33-1.4.25-3.29.27-4.25.53-2.45.66-4.69,1.87-7.31,2.57-4.12,1.04-9.08,1.88-14.12,3.35-2.43.71-4.18,1.73-6.44,2.4-2.51.67-4.78.85-7.48,1.7-2.62.7-4.92,1.93-5.6,2.11-1.65.44-2.96.12-4.31.54-4.31,1.46-7.27,3.41-10.17,4.43-1.03.27-3.1.28-4.25.77-2.1.81-3.74,2.22-6.07,3.33-2.1,1.05-4.64,2.04-7.15,3.14-2.55,1.17-5.18,2.3-7.58,3.37-.88.36-3.08.82-4.05,1.27-1.35.67-2.12,1.66-3.67,2.26-.98.44-2.05.79-3.04,1.18-.99.39-2.03.85-3.08,1.25-2.09.86-4.18,1.73-6.37,2.87-1.12.61-2.39,1.56-3.7,2.15-1.96.89-4.36,1.29-6.41,2.27-1.81.97-4.55,2.62-5.83,3.52-1.19.81-3.44,2.87-3.64,3.96,4.17-2.21,8.83-4.87,11.99-6.26,5.92-2.5,12.47-5.84,18.93-8.85,6.56-2.86,12.91-5.59,18.14-7.48,1.07-.35,2.56-.26,3.41-.49.8-.21.46-.55.69-.61.71-.31.87.07.93.06,4.21-1.37,6.14-1.7,7.6-1.24,2.59-.14,5.71-2.14,7.23-2.18-.09,1.73.86,2.52-.22,4.63,2.15-.88,3.82-1.69,5.15-2.17,1.39-.49,2.52-.61,3.75.09.64-.78,1.77-.47,2.38-.7,1.58-.73,1.02-1.19,2.88-1.99,1.36-.61,1.91-.15,3.31-.64,1.85-.62,3.54-2.72,6.11-2.92,1.96.7-2.92,1.88-.43,1.58,2.7-2,5.64-2.18,7.88-2.72,1.02-.27.97-.69,2.32-.92,1.38-.31,2-.05,3.3-.46,3.54-1.13,4.91-2.84,7.78-3.31,1.57-.3,3.7.35,5.95-.13,1.32-.29,2.58-1.3,3.92-1.54,1.38.36,2.24.62,3.34-.29,1.59-1.34,4.78-1.28,7.29-1.71,2.1-.38,10.59-2.41,11.41-2.51,1.66-.2,2.59.34,4.24.09.28-.08,1.04-.89,2.4-1.07,1.18-.13,1.55.32,3.36.01,1.92-.33,3.61-1.09,5.76-1.3,1.43-.14,2.89.32,4.22.27,3.74-.15,6.84-.92,9.91-1.98,2.48.13,6.1,1.35,6.71-.03.18-.48-1.65-.23-1.7-.64,3.58-.29,7.17-.58,7.56.66.23-.73,1.98-1.02,3.32-1.26,1.2-.32,5.04-.56,6.7-.52,1.68.1,2.33.72,4.22.7,2.11-.08,3.98-.64,6.7-.76,5.08-.39,10.95.54,15.11.34,1.39-.07,2.78-.56,4.25-.53,1.05.03,1.15.42,2.51.49,1.1,0,1.18-.38,2.56-.26,1.06.08,2.24.86,3.3.94,1.43.1,2.9-1.02,4.24-.34.78,1.56-5.14-.51-3.45,1.47,6.39.85,9.03-.47,13.32,1.19,2.11-.32-.81-1.43.98-1.36.74.72,4.81,1.09,7.43,1.55,3.74.52,8.43.73,11.73.94.28-.99-5.53-.35-3.99-1.68,3.43-.19,7.1,1.21,10.85,1.55,2.46.32,4.87-.94,6.74.57,2.12.83-2.31.5-2.74.92.72,1.09,4.02.88,6.53,1.6,1.52.45,1.52,1.12,3.17,1.35.19.01,1.79-.6,2.71-.6,1.76-.04,4.25,1.3,3.46-.07-5.26-.73-10.13-.46-10.51-3.47,5.42,1.54,11.24,2.3,17.19,3.57,2.97.61,6,1.2,9.04,1.85,3.06.71,6.21,1.32,9.25,2.4,1.67,1.69-3.52.52-3.26,2.4l5.63,1.66c.19-.66-2.06-1.09-1.23-1.87,3.6,1.35,7.18,2.41,10.67,3.36,1.77.44,3.48.9,5.23,1.28,1.71.46,3.36.93,5.07,1.39,3.3.95,6.54,1.85,9.57,2.92,1.55.56,3.05,1.13,4.45,1.8.71.36,1.46.65,2.11,1.02.71.36,1.37.79,2.04,1.22-.22-1.28,2.38.22,2.23-1.02-1.34-.68-4.07-1.29-2.91-1.97,3.4.86,6.69,2.17,9.54,3.48,2.23,1.05,3.93,2.61,5.07,3.21,1.14.61,2.71.98,3.9,1.58.36.21,1.38,1.28,2.03,1.65.88.56,2.13.89,3.07,1.43,1.82,1.1,1.63,1.52,2.75,2.07,2.59,1.26,5.28,1.94,8.08,2.59,1.92,1.25-2.07.49.91,2.01,1.51-.28,2.16.09,4.26.87.96.41,1.2-.08,1.8.13,1.08.38,1.48,1.19,2.06,1.52,1.92,1.01,5.88,1.9,7.22,2.58,1.9.95,4.41,3.03,6.38,4.21.72.42,1.03.21,1.67.53.29.17.69.98,2.01,1.6,1.2.6,2.23.56,3.28,1.07.99.53.33,1.01,1.07,1.48.15.08,2.95.06,4.02,1.55.48,1.33-2.86.03-.93,1.53,3.04,1.56,5.72,2,7.77,3.47,2.23,1.48,3.1,2.89,4.57,3.84.36.21.29-1.18,1.28-.46-.16-.14.18,2.51,1.53,2.27,1.58.19.19-.42.78-1.18,2,.87,3.42,1.83,4.85,2.85.68.49,1.38,1.03,2.06,1.52.7.54,1.41,1.15,2.23,1.72,5.67,4.09,12.85,7.17,14.45,10.4-.58-.33-1.3-.99-1.54-.75,2.59,1.01,3.85,3.42,5.79,4.98,1.71,1.37,2.68,1.11,4.42,2.6,1.41,1.15,1.05,1.85,2.87,3.2.57-.4-.26-1.21.23-1.65,1.85,1.46,2.42,2.65,4.15,4.32.99.96,2.2,1.36,3.47,2.49,4.31,3.79,8.87,8.72,12.88,12.29,1.76,1.54,3.75,2.6,5.43,4.1-.02-.06.09,1.01.12,1.13.31.47,1.39,1.33,1.86,1.7.76.77,1.87,1.51,2.94,2.32,1.07.81,2.16,1.68,2.99,2.49,1.24,1.19,2.29,2.86,3.89,4.51,1.67,1.69,3.64,3.11,5.01,4.57.84.87,1.62,2.62,2.36,3.58.48.66.92.48,1.38,1.03,3.12,3.68,6.66,8.22,10.12,12.48,2.51,3.23,5.77,6.26,8.3,9.55,1.02,1.31,1.8,2.63,2.62,3.87.78,1.32,1.55,2.58,2.57,3.89,1.02,1.31,2.37,2.47,3.34,3.8.78,1.07,1.09,2.45,1.99,3.8,2.16,3.26,4.72,6.91,7.36,10.59,1.35,1.83,2.63,3.68,3.98,5.52.62.93,1.27,1.79,1.89,2.73.6.88,1.1,1.84,1.65,2.73.66,1.1.94,2.61,1.67,3.94,1.08,1.97,4.4,5.71,2.65,6.24-3.07-3.93-4.37-7.43-7.31-12.25-2.1-3.28-4.58-6.82-6.86-10.12-1.11-1.65-2.21-3.25-3.23-4.75-1-1.44-1.96-2.77-2.65-3.99-.75-1.2-.66-2.02-1.45-3.15-.5-.72-2.17-1.74-2.55-2.24-1.71-2.04-3.4-5.19-3.75-5.58-.7-.79-1.54-.74-2.18-1.55,0,0,.1-1,.01-1.1-.27-.54-1.22-1.38-1.62-1.94-2.84-4-6.68-8.76-8.29-8.39,1.68,2.84,5.19,6.17,6.96,8.44,1.68,2.17,2.98,4.51,4.68,6.98.5.72.88.56,1.28,1.12,1.59,2.07,3.71,4.98,5.85,7.95,1.07,1.48,2.19,2.95,3.13,4.41.94,1.46,1.81,2.87,2.61,4.06,1.81,2.87,3.53,4.97,5.22,7.63.73,1.14,1.35,2.32,1.99,3.55.58,1.25,1.23,2.54,2.01,3.85,1.34,2.26,2.98,4.51,3.97,6.38.65,1.29,1,2.6,1.59,3.9.8,1.62,3.21,4.69,1.61,4.87-1.35-2.99-3.7-5.6-5.22-8.54-.77-1.5-.78-2.47-1.6-3.9-.49-.91-1.18-1.21-2.05-2.62-1.58-2.69-2.98-5.67-4.96-8.73-5.94-9.63-14.97-19.65-19.26-26.31-.79-1.13-.72-2-1.55-3.06-1.15-1.34-3.04-2.24-4.57-3.84-1.53-1.6-2.34-3.28-3.95-5.41-4.73-5.57-12.53-13.97-20.1-21.27-1.15-1.1-1.04-1.61-2.1-2.61-3.19-3.23-6.43-5.54-9.24-8.5-2.79-2.91-4.14-3.83-6.68-6.26-1.15-1.1-1.84-2.31-2.9-3.07-1.14-.85-1.97-.75-3-1.64-.88-.8-1-1.68-2.08-2.74.02.06-1.33-.62-2.14-1.38-.81-.76-.59-1.06-1.68-1.93-1.39-1.09-3.41-1.77-5.13-2.96-2.44-1.6-5.42-4.52-8.51-6.69-1.06-.75-2.9-1.48-3.71-1.99-1.92-1.25-4.34-3.23-4.66-3.51-.8-.7-2.84-1.25-4.25-2.64-.92-.91-1.09-2.02-2.09-2.79-1.1-.93-2.25-1.11-3.57-2.16-.91-.67-1.81-1.53-2.71-2.38-.96-.84-1.92-1.68-3.09-2.41-3.3-2.29-7.02-3.85-10.89-6.23-1.4-.9-2.67-2.21-4.08-2.93-1.21-.65-3.18-1.16-4.66-1.92-5.4-2.82-10.93-6.83-15.91-9.03-1.33-.62-2.86-.88-4.01-1.3-2.19-.88-4.16-2.3-6.61-3.48-1.27-.64-2.42-.82-3.89-1.52-1.4-.66-2.37-1.56-3.61-2.08-2.68-1.11-6.86-2.37-8.72-2.91-2.13-.65-3.15-1.29-4.07-1.96-.91-.67-1.65-1.39-3.2-2.13-.63-.32-3.05-.89-4.75-1.53-1.51-.63-3.89-1.52-5.36-2.22-1.33-.62-1.71-1.37-2.83-1.92-2.54-1.27-4.25-1.73-5.65-1.96-1.45-.16-2.6-.16-4.02-.63-1.8-.55-3.45-1.94-5.22-2.63-1.42-.53-3.44-.54-4.97-.99-1.39-.42-2.47-1.23-3.82-1.72-1.08-.38-1.56-.13-3.24-.72-2.49-.86-6.89-2.24-9.54-2.81-1.11-.25-2.2-.02-3.36-.26-1.29-.26-2.69-.93-3.98-1.19-1.74-.33-2.92-.19-4.14-.42.52.11-1.91-.77-2.33-.96-1.22-.47-5.33-1.68-7.25-1.78-.24,0,.05.66-.17.72-1.58.24-7.73-2.2-7.16-2.11-1.48-.27-2.79.08-4.21-.21-.19-.01-1.73-1-2.27-1.16-.79-.21-1.05.16-1.7.03-.26-.05-.61-.45-1.51-.63-5.76-1.2-9.86-1.02-13.12-1.79-1.03-.21-2.88-1.18-3.95-1.32-.39-.08-1.15.49-2.52.37-1.5-.15-1.79-.74-3.2-.79-.93-.06-2.37.27-3.36.23-4.52,0-6.39-1.28-9.78-1.65-1.06-.08-2.61.52-4.18.33-3.65-.42-1.87-1.27-4.07-.37-.94.37-3,.19-5.45-.06-2.45-.26-5.26-.73-7.73-.61-3.16.05-6.05.89-8.28.76-1.73-.09-3.35-.87-4.89-.95-4.73-.32-11.9.02-17.27.24-1.09.05-2.39.64-3.28.76-1.24.15-3.06.21-4.83.2-1.74.1-3.33.1-4.2.03-1.25-.09-2.09-.96-3.35-.87-1.93.09-3.87,1.04-6.51,1.44-2.47.36-5.63.17-7.39.45-1.11.18-1.58.73-2.37.94-3.7.99-6.77.71-9.74,1.02-4.4.45-7.88,1.81-10.41,2.36-3.42.67-7.01.72-10.53,1.24-1.64.26-3.63,1.28-5.55,1.61-.36.04-1.79-.07-3.28.27-1.54.41-1.57.97-2.24,1.21-.91.24-3.07.15-4.84.63-2.39.64-4.18.81-6.37,1.28-.74.2-1.89.45-3.26.81-1.31.35-2.82.88-4.23,1.32-2.87.89-5.62,1.81-6.6,2.01-.4.11-.54-.4-1.69.09-.71.31-.7.8-2.17,1.25-2.96,1.04-4.99,1.21-6.17,2.02-2.87,1.81-7.94,4.32-10.79,3.68-2.07,2.51-4.63,2.09-7.62,2.77-4.07.97-4.08,1.4-7.54,3.06-2,.96-4.4,1.79-5.2,2.25-.17.05.38.51.24.67-.83.77-2.6,1.24-4.35,1.53-1.74.34-3.48.69-4.26.96-1.38.55-2.91,1.88-4.2,2.53-1.35.67-1.8.36-3.12.9-2.03.85-4.4,2.03-6.77,3.22-2.43,1.2-4.8,2.57-6.96,3.63-1.35.67-2.68.72-3.78,1.38-1.12.61-1.31,1.27-2.63,2.05-1.16.68-2.51,1.1-3.63,1.71-.31,1.36.63.75.03,1.94-.99.63-3.86,1.52-3.4,2.13.61.45,1.56.13,2.68-.48,1.06-.59,2.34-1.3,3.38-1.76,2.7-1.09,6.56-2.18,9.02-3.45,1.56-.78,2.08-2.02,3.9-3,2.07-1.17,3.44-1.53,4.53-1.76,1.1-.23,1.94-.28,3.11-.71,1.11-.42,3.11-2.05,4.45-1.86-1.04.46-2.33,2.46-.94,1.96,3.72-.69,4.07-3.04,6.11-4.08.75-.38,1.41-.2,1.62-.31,1.61-.61,2.83-1.73,4.01-.77-2.56.69-4.5,2.12-2.61,2.1,3.09-1.44,3.27-3.07,6-4.48,2.04-1.04,4.27-1.14,6.89-2.09-.11.03,1.49-.83,2.14-1.12,2.91-1.45,10.1-3.56,11.92-4.96-.06,1.6,2.58.96,3.56.75.34-.09,3.47-1.17,4.48-1.75.21-.12-.34-.58-.18-.68.2-.18,1.33-.29,1.54-.41.14-.16.3-1.18.45-1.28,1.77-.9,4.51-1.39,5.41-1.45-.12.46.51,1.69,1.45,2.23,3.05-.7,2.17-1.68.43-1.58,3.14-1.51,3.62.07,4.16.04,1.56-.11,3.52.15,4.59-1.54-1.44.33-2.62.46-3.27.08,1.99-1.45,5.13-1.13,7.78-1.96,1.71-.46,2.25-1.15,3.81-1.51,1.02-.27.88.56,1.75.39.97-.26,1.94-.95,2.99-1.35,3.24-1.11,7.49-2.13,10.97-2.57,1.31-.11,2.88.51,4.15.47,2.04-.12,10.06-1.17,10.35-1.25,1.97-.4,4.38-2.33,6.15-2.32,2.46.07,3.35,1.11,5.81,1.19.77-1.24,4.04-.65,4.78-.85.23-.06,1.09-.72,1.53-.9,1.39-.5,2.76-.62,4.18-.57.73-.01,1.47.03,2.22.08.74.05,1.55.07,2.4.09,1.37-.37.93-1.53,3.93-1.3.9.86-3.66,1.59.08,1.44,3.56-.16-1.33-1.78,2.26-2.25,4.69-.28,1.93,1.74,2.55,2,2.42.39,2.48-1.21,3.95-1.67,1.02-.27,2.88.02,4.03-.23.8-.21.75-.63,2.42-.77,1.01-.09,2.88.27,4.05.32,1.92.1,3.96-.02,5.61-.04,2.26,0,9.04-.9,10.49-.74,3.74.28,8.37,2.09,12.81,1.57,1.35-.67-.07-.47.05-1.42,4.02.2.37.94,3.16,1.53,2.2.45,4.7.45,7.07.42,2.43-.04,4.75-.05,6.53.69.25-.67-.84-.87-.64-1.47,3.01-.62,5.79.64,8.8,1.18,2.55.41,6.26,1.25,7.13,1.32,1.3.08,1.95-.46,3.28-.27,1.28.21,2.53,1.03,3.88,1.28,2.25.43,5.33.28,8.04.83,1.16.24,1.34.68,3.12.93,2.29.36,5.28.35,8.04.84,1.91.28,4.02.88,5.54,1.08,1.26.15,3.07-.15,4.06.13,1.39.42,2.36,1.75,3.71,1.99.31-1.36,8.24.48,10.54,1.08,1.06.33,2.57,1.63,3.65,2.01.68.25,2.18.15,3.93.78,3.98,1.43,8.09,2.65,11.42,4.14-1.17-.72-2.08-1.82.43-1.34,3.18,1.4.39.99,1.1,1.84,1.45.4,2.63.94,3.6,1.35.98.47,1.79.74,2.56.66,1.13-.12-.08-.53,1.73-.16.83.14,1.19.78,1.4.9,1.57.62,4.43.58,4.42,1.93,0-1.16,2.26-.24,3.53-.28,2.3,2.19,5.53,4.25,9.34,5,.13.03.2-.6.25-.68.96-.74,4.26,1.79,5.96,2.43,1.09.44,1.5.14,3.1.88,1.87.84,3.27,2.17,4.97,2.82,1.42.53,3.19.73,4.74,1.29,2.32.9,5.26,2.07,7.49,3.12,2.03.98,4.07,2.2,5.99,3.46.95.6,1.98,1.24,2.98,1.76.95.6,1.91,1.2,2.89,1.67,4.62,2.42,9.81,5.18,13.52,7.17,3.1,1.79,6.29,3.44,9.44,5.16,1.57.86,3.16,1.77,4.76,2.75.79.46,1.55.99,2.36,1.5.75.53,1.46,1.13,2.23,1.72,1.76,1.11,1.69-.52,3.44.54.87,3,4.92,4.48,8.25,6.63,1.46.89,2.53,1.7,3.52,2.41.98.71,1.97,1.42,3.1,2.22,2.96,1.95,6.87,5.36,8.3,6.38.68.49,1.95.88,2.14,1.14,1.54,1.42,2.22,3.06,3.79,4.35,4.32,3.6,10.11,6.07,13.39,10.32-1.8-1.04-4.02-2.46-4.97-2.82-.27-.11-1.71-.46-1.71-.46-1.4-.9-2.6-4.24-4.4-3.46,2.84,1.5,2.97,3.35,5.02,5.3,1.06,1,1.65.9,2.68,1.78,1.51,1.3,2.17,2.41,3.42,3.41,1.32,1.05,2.68,1.78,3.88,2.86,1.13,1.04,1.58,2.02,2.56,3.16.65.62,3.85,2.75,2.5,3.17-3.59-2.7-7.21-5.94-9.86-8.09-1.55-1.23-3.06-2.54-4.57-3.84-1.45-1.32-3.06-2.54-4.57-3.84-3.02-2.61-6.04-5.21-9.07-7.88-2.22-1.91-5.91-4.76-6.9-5.47-1.92-1.25-4.08-1.77-5.82-2.83-1.03-.64-2.08-1.39-3.1-2.22-1.07-.81-2.14-1.62-3.21-2.43-2.16-1.68-4.33-3.41-6.55-4.83-1.33-.86-2.33-.96-3.55-1.85-1.23-.95-2.23-2.39-3.71-3.15-1-.53-2.91-.62-4.02-1.12-1.74-.81-3.75-2.6-6-3.94-1.68-1.01-3.2-1.7-4.56-2.44-1.45-.65-2.71-1.23-3.94-1.93-1.44-.83-1.98-1.48-3.34-2.22-1.7-.89-3.67-1.15-5.28-1.94-1.47-.7-3.56-2.34-5.5-3.22-2.31-1.09-4.64-2.05-6.5-3.08-2.48-1.29-4.97-2.39-7.58-3.46-1.29-.51-2.55-1.09-3.84-1.59-1.35-.49-2.65-1-3.96-1.56-2.19-.88-3.64-1.95-5.74-2.73-3.2-1.22-6.6-2.07-9.85-3.28-2.13-.65-3.49-1.63-5.9-2.44-3.04-1.08-6.86-2.13-9.86-3.09-3.64-1.28-7.19-2.22-10.58-3.26-3.39-1.04-6.71-2.04-9.96-3-3.01-.96-6.38-1.03-9.42-1.68-1.48-.27-1.61-.79-2.98-1.09-2.15-.52-4.96-.99-7.02-1.35-3.03-.59-4.42-1.01-6.99-1.48-1.81-.37-3.61-.25-5.56-.71-1.44-.35-2.56-.9-3.84-1.11-1.02-.15-1.7.27-3.26.14.11-.03-1.29-.69-2.29-.79-1.65-.23-3.54-.45-4.72-.75.59.15-2.59-.34-2.35-.35-.87-.07-1.9.45-2.47.36-1.5-.15-3.66-.91-5.42-1.11-1.69-.16-2.54.07-3.96-.22-1.81-.37-3.58-.62-5.28-1.02-1.69-.4-3.29-.89-4.84-1.45-1.86.8-3.85.91-6.15.73-1.13-.12-2.39-.27-3.78-.45-.69-.06-1.39-.18-2.15-.28-.74-.04-1.49-.09-2.35-.1-1.79-.07-6.32-.13-8.72.02-1.44.08-2.15.64-3.19.61-.5-.05-.77-.83-2.36-.83-1.94.03-1.42.62-3.99.58-5.86-.02-12.19-1.07-18.2.18,1.9,1.87-.84,2.11-.7,3.54-3.85-.25-8.64.55-9.31,1.94,3.73.04,7.37-.51,10.96-.8,3.54-.22,6.96-.46,10.14-.21,1.49.09,2.6.58,3.9.66.99.04,1.45-.51,3.12-.41.99.04,1.43.78,2.34.77,0,0,1.12-.61,1.59-.67,6.48-.64,6.75,2.4,10.83,2.59.76-.81-3.39-1.96.07-1.79.28,2.43,1.87-.32,1.57-.3,1.64-.01,3.59.62,5.39.99,4.86.83,11.86,1.21,17.05,1.9,4.9.76,9.54,2.81,13.93,1.88-1.73-1.91-8.29-.4-8.3-2.96,2.26.92,4.41.53,5.45.74,1.31.32,1.52.87,2.99,1.15,2.18.39,5.4-.35,6.89,1.33-1.49-.09-3.32-.33-3.27.57,3.11,1.36,5.92.91,9.22,1.61,1.11.25,2.44,1.12,3.69,1.45,2.3.6,5.53.83,8.46,1.27.76.1.81.52,1.46.65,1.49.33,2.43.2,3.79.94,1.36.73,7.57,2.06,9.08,2.2.11-.03.57-.83,1-.82.86.01,3.02.78,2.92,1.11-.96-.17-1.79-.31-1.68.33.99.53,2.2.93,3.47,1.33,1.22.46,2.55.84,3.85,1.16,2.57.71,5.11,1.31,6.85,1.88,1.08.38,2.31,1.33,3.53,1.8.88.31,1.2-.08,2.35.35,1.87.6,3.9,1.33,5.94,2.13,2.03.74,4.17,1.44,6.27,2.22,2.16.76,4.32,1.53,6.4,2.25,1.08.38,2.1.78,3.12,1.18,1.04.45,2.02.92,2.98,1.34.98.47,1.02,1.07,1.87,1.51-.14-.08,1.45.16,2.28.55.42.19,3.63,2.63,3.03.84,3.06.95.69,2.13,3.76,3.08,1.22-.02,2.81.47,4.47,1.18,1.61.79,3.37,1.66,5,2.26,1.15.42,1.97-.16,3.11.69-.24,1.83,4.35,2.56,6.67,3.95,1.24.76,2.44,2.27,3.73,2.97.85.44,2.44.69,3.74,1.19,1.22.46,3.14,1.23,4.28,1.84,1.59.92,2.83,2.35,4.44,3.14,1.48.76,2.93.92,4.4,1.63,1.41,1.39-1.71.21-.04,1.66,1.93.82,3.88,2.62,6.66,3.89,1.46.65,2.07.42,3.71,1.32.94.54,2.07,1.58,3.17,2.26,3.3,2.29,8.3,5.7,11.67,7.55,1.8,1.04,3.41,1.34,4.92,2.4.91.67,1.91,2.11,2.71,2.81.78.64,2.16,1.01,3.34,1.97,1,.77,1.71,2.04,2.71,2.81.7.55,2.32,1.15,3.34,1.97.3.22.6.88,1.61,1.7,1.07.81,1.67.77,2.63,1.61,1.19,1.02,1.61,2.13,2.62,2.96,1.01.83,2.33.96,3.48,1.81.77.59,1.38,1.95,2,2.45.94.79,2.31,1.33,3.2,2.13,2.8,2.48,6.11,5.5,9.44,8.57.81.76,1.7,1.56,2.51,2.32.83.81,1.66,1.63,2.41,2.4,1.59,1.59,3.23,3.16,4.71,4.59.65.62,2.4,1.67,3.07,2.35,1.19,1.27.58,1.49,1.75,2.64,1,1.01,1.42.96,2.41,1.92.83.81,1.55,2.15,1.89,2.48,1.05.94,1.57.62,2.66,1.73.84.87.93,1.89,1.65,2.73.44.49,3.64,3.11,4.55,4.21,4.3,4.89,10.95,11.95,16.81,19.46,1.53,1.85,3.01,3.71,4.47,5.51,1.36,1.89,2.71,3.73,3.97,5.46,2.48,3.54,4.72,6.67,6.28,9.3.69,1.22,1.25,3.08,2.04,4.21,0,0,.96.17,1.03.21,1.76,1.11,2.11,3.09,3.02,4.44.98,1.38,3.05,4.31,3.86,5.74,1.19,1.94,2.96,3.97,3.96,5.65.43.68.53,1.99,1.04,2.96.47.85.91.67,1.52,1.79.44.74.9,1.53,1.43,2.36.47.85.94,1.7,1.43,2.61,1.03,1.8,2.08,3.65,3.17,5.68,1.09,2.03,2.26,4.09,3.49,6.2,1.14,2.2,2.18,4.48,3.29,6.8.98,2.06,2.03,4.4,2.85,6.31.94,2.13,1.07,3.98,1.67,6.02,1.23,3.69,3.06,6.62,3.23,8.65.06.23-.57.15-.65.3-.08.14.42,1.35.28,1.51-.36.46-1.53-.26-1.62-.12-.48,1.17.73,3.65-.36,3.45-.65-.13-2.7-2.08-3.84-4.09-.71-1.27-.68-2.99-1.25-4.42-.47-1.28-1.05-1.43-1.6-2.56-.4-.81-.12-1.13-.59-2.22-.54-1.32-1.1-1.35-1.66-2.54-.76-1.69-1.28-3.87-2.14-5.71-1.36-2.81-3.32-6.25-4.89-9.36-1.18-2.37-1.91-4.86-3.08-6.92-1.13-1.95-1.97-3.25-2.99-5.24-1.33-2.45-3-5.05-4.76-7.75-1.76-2.7-3.64-5.61-5.59-8.32-1.95-2.71-3.88-5.37-5.59-7.89-1.72-2.53-3.2-4.88-4.48-6.91-.54-.89-.58-1.92-1.25-2.84-2.41-3.32-5.98-6.82-8.36-9.78-.73-.9-1.2-2.42-1.82-3.36-.6-.88-2.05-1.95-2.68-2.7-1.55-1.9-3.58-4.47-5.31-6.38-3.12-3.43-5.68-7.75-8.8-11.43-.64-.8-2.03-1.65-2.87-2.52-2.76-2.8-5.78-6.32-7.97-8.11-1.09-.87-2.05-1.28-3.14-2.15-1.97-1.67-3.6-3.85-4.16-4.37-2.63-2.29-4.08-2.02-4.73-4.89-.97-.9-1.97-1.42-3.01-1.88-1.04-.45-2-.87-3.04-1.56-.38-.26-1.55-1.9-2.62-2.71-.54-.41-2.14-1.38-2.75-1.4,1.7,1.56,4.08,3.85,6.36,5.98,2.28,2.13,4.28,4.34,5.51,5.54,1.5,1.49,3.29,3.15,4.93,4.72,1.64,1.57,3.14,3.06,4.09,4.33.74.96.76,1.93,1.34,2.94.43.68,1.07,1.48,1.29,1.85,1.51,2.46,3,2.31,4.44,4.05.7.79,1.22,1.81,1.79,2.81.52,1.02,1.05,2.1,1.74,3.07,1,1.44,2.69,2.76,3.99,4.42.48.66.79,1.8,1.46,2.72.67.92,1.9,1.87,2.52,2.8,1.68,2.85,1.77,4.77,2.83,7.36-1.1.66-1.97-1.43-2.53-.79-.2.18,1.95,2.71.27,2.61-3.07-2.1-4.46-4.78-6.92-7.6-1.72-2.1-3.95-4.25-5.39-6-.66-.86-.37-1.37-.94-2.13-.54-.65-1.27-.88-2.23-1.96-1.6-1.65-3-3.89-4.66-5.77-1.65-1.82-3.55-3.44-5.14-5.27-.91-1.1-1.63-2.43-2.68-3.61-2.84-3.08-6.67-5.77-9.69-9.05-1-1.01-1.8-2.38-2.87-3.44-2.28-2.13-5-4.09-7.3-6.28-1.31-1.24-2.1-2.61-3.54-3.87-2.07-1.82-4.36-3.53-6.65-5.23-2.3-1.76-4.59-3.47-6.82-5.19-2.09-1.64-4.81-3.83-7.47-5.99-1.32-1.05-2.65-2.15-3.83-3.12-1.22-.89-2.36-1.75-3.27-2.42-1.13-.8-2.15-.95-2.67-1.3-.22-.12-1.01-1.5-2.13-2.24-.81-.51-1.15-.18-2.07-.91-.84-.63-1.16-1.58-2.12-2.24-.15-.08-1.11-.25-2.08-.91-4.6-3.04-11.36-6.65-15.91-9.71-1.17-.72-1.74-1.73-2.96-2.38-1.7-.89-3.77-1.31-5.58-2.16-1.6-.73-3.09-1.98-5.1-3.09-.92-.48-1.45-.16-2.88-.94-1.93-1.07-2.64-1.18-4.74-2.21-.98-.47-1.04-.94-2.56-1.57-1.58-.67-3.35-1.12-4.85-1.93-1.2-.6-1.66-1.87-2.95-2.57-.63-.32-1.35-.25-2.21-.51-3.48-1.14-8.02-3.04-12.53-5.06-1.11-.5-2.22-.99-3.33-1.49-1.15-.42-2.25-.86-3.28-1.32-2.12-.84-4.09-1.59-5.73-2.25-.89-.37-1.13.12-2.25-.43-.13-.03-.21-.8-.49-.91-2.41-1.49-5.38-1.18-7.25-1.78-1.58-.43-3.04-1.56-4.8-2.19-2.91-1.05-5.86-1.36-9.44-2.41-.93-.3-1.87-.6-2.82-.95-.95-.35-1.94-.64-2.89-.99-1.94-.64-3.88-1.28-5.65-1.72-1.1-.25-2.56-.23-3.74-.52-2.24-.62-4.57-1.34-6.84-2.07-2.3-.6-4.65-1.19-6.85-1.64-1.16-.24-2.74-.18-2.99-.23-1.03-.21-1.24-.77-2.86-.88-.82-.09-1.8.36-2.31.25-1.09-.2-1.45-.65-2.16-.76-1.36-.31-1.69.09-3.02-.11-4.79-.79-10.29-2.18-14.76-2.45-.86-.01-2.02.42-3.03.32-.11.03-1.87-.84-2.13-.89-1.09-.2-2.74,0-3.75-.34-1.19-.35-1.82-1.77-3.59-1.78-2.05.79-4.91.83-8.04.51-3.15-.13-6.67-.53-9.98-.56-2.69-.01-5.44.42-8.26.38-1.12-.07-2.42-.39-3.75-.34-1.33.05-1.71.46-3.01.38-1.97-.08-3.89-.61-5.97-.66-3.36-.01-6.74.34-10.46.61-3.24.2-5.62-.26-8.21.12-1.41.2-2.22.84-3.72.94-.84.04-2.77-.54-3.78-.45-5.03.13-11.75,1.93-14.87,1.91-.8-.03-.97-.65-1.55-.56-.47.07-1.97.83-2.88,1.08-3.73,1.12-6.79,1.09-9.61,1.48-1.58.24-3.19.85-5.13,1.13-2.41.34-4.24.59-5.12.95-.44.18-.15,1.26-.5,1.54-.51.38-2.29.55-2.86.95-.2.18.38.51.18.68-1.84,1.35-3.32,2.17-4.74,2.8-1.31.59-2.76,1.53-3.37,1.76-.82.34-2.13.26-2.89.59-1.56.78-1.89,1.36-3.33,1.93-1.05.4-2.49.49-3.53.95-1.38.55-1.61,1.04-2.68,1.39-3.18,1.1-3.31,1.07-4.79,1.95-.74.44-1.39.74-1.92,1.25-.93.86.37,1.37-.12,2.29-.4.78-3.27,3.07-4.25,3.52-.91.49-1.23-.04-3.54.7-1.01.33-1.13.79-2.67,1.2-1.48.4-3.25.38-5.09.82-4.5,1.21-11.01,3.56-15.71,5.61-.88.36-1.18,1.05-1.77,1.39-1.05.65-2.62.95-4,1.68-1.28.71-2.09,1.54-3.06,2.04-1.4.68-2.83,1.06-4.01,1.68-1.45.75-2.3,1.65-3.72,2.28-2.75,1.35-5.25,2.26-7.82,3.62-2.39,1.31-4.42,3.08-6.72,4.3-.64.35-1.4.68-2.11.99-.71.31-1.29.65-1.76.96-1.24.82-1.74,1.69-2.86,2.29-2.89,1.75-5.76,2.88-8.24,4.34-1.16.68-1.87,1.66-2.79,2.33-1.74,1.26-5.12,3.45-5.33,3.56-.52.32-1,.14-1.42.38-1.03.7-1.75,1.69-2.71,2.43-2.68,2.06-4.75,2.55-6.71,4.12-1.21.93-1.57,1.88-2.6,2.59-1.61,1.04-4.59,1.11-4.77,3.17,2.79.41,6.42-3.37,9.89-5.7,2.15-1.31,4.24-1.93,6.31-3.34.97-.69,1.9-1.55,2.85-2.11,2.72-1.46,6.76-2.79,9.12-4.03,1.22-.69,2-1.88,3.45-2.63,2.14-1.12,4.38-2.09,6.57-3.04,1.09-.48,2.19-.95,3.22-1.41,1.11-.42,2.15-.88,3.17-1.4,2.42-1.2,4.47-2.91,6.76-3.94.54-.27,2.34-.38,2.84-.58,1.12-.36,2.51-1.1,3.96-1.61,1.43-.57,2.86-1.19,3.8-1.75.64-.35,1.56-1.46,2.35-1.73.77-.33,1.62.36,2.36.16-.46.12.46-.55.5-.62,2.15-1.31,4.44-1.19,5.52-1.48,3.48-1.12,7.07-2.32,10.78-3.74,1.83-.67,3.71-1.42,5.6-2.11,1.88-.75,3.81-1.26,5.73-1.84,3.33-1.01,6.36-1.34,9.57-2.56,1.16-.43,2.1-1.05,3.31-1.31,2.28-.61,4.51-.48,7.05-1.03.97-.26,2.32-.93,3.34-1.2,2.28-.61,4.86-1,7.65-1.5,1.34-.24,1.46-.7,2.69-.9.29-.08,1.6.06,2.81-.21,1.14-.3,2.27-.85,3.39-1.03,2.57-.44,4.76-.24,7.08-.68,1.57-.3,3.09-1.01,4.74-1.45,4.59-1.11,9.64-1.85,13.23-2.33,1.36-.18,1.59.24,2.89.08,3.54-.46,6.82-1.65,9.78-1.77,1.22-.02,2.5.43,3.57.33.97-.02,2.48-.79,3.47-.93,1.37-.12,2.82.28,4.25.14,1.49-.15,3.15-.78,4.92-1.01,1.77-.23,3.5-.39,5.18-.47,1.72.03,3.36.01,5.01,0,3.25.04,6.48.03,9.69-.28.83-.1,1.91-.15,3.06-.21,1.16,0,2.32-.01,3.35-.04,1.14-.06,2.44-.47,3.57-.59.9-.06,1.93.15,2.83.09,1.2-.08,2.49-.49,3.57-.59,1.26-.09,2.59-.14,3.97-.21,1.33-.05,2.75,0,4.09,0,2.74,0,5.43,0,7.69.01,3.06.03,5.29.17,7.22.51,1.94.4,3.55.94,5.51,1.64-.16,2.6-2.94,3.59-1.44,5.57,2.65.33,4.98.37,7.1.29.64-1.03.58-.58.26-1.78,1.82-.06,3.67-.43,5.68-.67,1.99-.11,4.13-.07,6.56.56.92.24,1.18.78,1.95,1.12.89.37,2.01.44,2.73.85,1.4.9.59,1.98.94,2.37.96,1.08,2.26,1.59,3.81,1.91,1.49.33,3.17.68,4.92,1.06,1.38.36,4.38,1.33,4.67,1.49.14.08.62.93,1.09,1.78.47.85.91,1.58.93,1.64.53,1.51-.53,2.34-.73,2.76-.14.4.67.67.43,1.16-.39.84-1.58,1.4-.63,2.43-2.6-.16-4.73,1.02-7.88.65-.82-.09-2.88-1.18-5.19-1.6-2.42-.39-3.17-.43-5.24-1.34-1.24-.52-1.98-.99-3.23-1.33-2.04-.55-4.13-.6-5.34-1.01-.88-.31-1.61-.79-2.28-1.22-.72-.42-1.37-.79-2.22-.99-.39-.08-2.42.1-3.45-.11-2.18-.39-3.9-.66-6.09-.87-1.88-.17-3.68-.54-5.36-.88-1.72-.27-3.31-.51-4.76-.68-1.43-.11-2.68.23-4.15.01-1.53-.26-2.76-.97-4.01-1.06-2.51-.24-3.44.37-4.13.31-1.29-.02-2.36-.59-4.08-.86-3.5-.53-6.7-.16-8.89-.36-1-.1-2.31-.66-4.09-.92,0,0-.9.06-1.99.11-1.03.03-2.24.05-2.88-.02-1.09-.2-1.72-.94-2.72-1.04-1-.1-2.21.41-3.44.37-2.14-.04-3.53-.88-5.56-.71-1.68.33-1.5,1.68-4.08,1.64-2.15-.28.06-.93-1.45-1.32-1.5.1-2.01.72-3.42.92-.77.08-1.01-.34-2.08-.24-.84.04-.95.56-2.07.49-1.3-.08-1.51-.63-2.83-.52-1.27.04-2.53.8-3.4.97-4.46.89-7.05.12-9.68.34-2.57.2-3.33,1.01-4.04,1.08-1.47.21-2.67-.38-4.19-.16-1.36.18-3.1,1.2-4.68,1.44-.98.2-5.7.61-6.9.69-1.61.13-3.02-.35-4.22-.03-.06.02-1.57.97-1.9,1.12-4.43,1.92-9.41,1.79-14.87,3.07-2.51.67-4.43,1.68-6.59,2.07-1.4.25-2.82-.04-4.18.33-4.73,1.02-9.24,4-15.06,5.07-1.4.25-2.22-.08-3.51.33-.74.2-1.18,1.05-2.41,1.5-.88.36-2.72.55-3.38.84-2.2.9-4.29,1.52-6.51,2.35-3.51,1.25-6.42,2.7-9.71,3.64-.57-.76-1.01-1.26-4.39.26-.93,1.1-1.07.77-.12,1.62-2.74,1.4-4.49,1.69-6.1,1.82-.83.1-1.63.07-2.5.24-.87.17-1.77.47-2.92.96-.57,1.07-1.44,3.74-4.39,3.68,1.12-.6,2-1.21,2.2-1.81-4.25.53-5.48,3.48-7.54,5.13-1.77-.01-3.53.95-5.24,2.08-1.73,1.07-3.52,2.35-5.36,3.02-.84.29-1.9.2-2.81.69-1.67.82-3.26,1.73-4.86,2.83-1.6,1.1-3.25,2.21-5.17,3.28-2.34,1.3-3.7,2.15-5.37,3.21-1.09.72-1.54.41-2.57,1.11-.72.5-.61.9-1.58,1.4-1.72.89-3.07.82-4.59,1.78-.84.53-1.95,1.62-2.71,2.19-1.74,1.26-3.61,2-5.38,3.15-1.32.78-2.66,1.93-3.8,2.91-1.14.98-2.14,1.79-2.71,2.19-.72.5-1.88.5-2.64,1.07-1.23.88-2.22,2.18-3.68,3.12-.78.51-2.2,1.14-3,1.78-1.65,1.36-2.71,2.86-4.61,4.22-2.2,1.57-3.43,2.93-5.36,4.36-1.07.78-2.02.91-3.16,1.64-4.82,3.43-8.6,8.46-12.97,11.53-.72.5-1.7.7-2.49,1.4-.93.86-1.92,2.4-2.75,3.18-2.56,2.52-5.46,4.45-7.94,6.82-.89.79-1.33,1.88-2.13,2.77-.7.8-1.76,1.39-2.61,2.34-1.38,1.47-2.57,3.37-3.95,4.84-.96.99-2.38,2.28-3.94,3.74-1.49,1.5-3.05,3.2-4.36,4.71-1.11,1.33-1.88,3-2.37,3.44-1.24,1.06-1.49.15-2.61,1.43-.65.78-.93,2.02-1.66,3.13-3.38,5.6-6.68,8.56-11.19,14.28-2.05,2.81-3.39,5.79-5.56,8.87-.92,1.34-1.87,2.82-2.89,4.25-1,1.49-2.02,2.92-2.86,4.36-1.74,2.85-3.27,5.33-4.24,6.5-.7.8-2.01.72-2.37,1.86.74.04.34,1.25-.16,2.36.15-.35-1.88,3-1.43,2.4-1.35,2.01-2.33,2.03-3.26,3.8-.72,1.41-.6,3.21-1.39,4.83-.35.76-1.85,2.88-2.6,4.17-.56.88-.9.97-1.65,2.27-.55,1.12-.19,1.58-.65,2.8-.47,1.22-1.74,3.09-2.71,4.93-1.87,3.73-3.96,8.01-5.81,12.48-1.78,4.5-3.68,9.04-5.73,13-.6,1.2-1.69,2.34-2.2,3.64-.25.68-.11,1.19-.35,2.11-1.51,5.53-3.94,8.31-4.78,12.44-.21,1.03.06,1.81-.19,2.92-.52,2.15-1.97,5.41-2.13,5.94-.05.26.15,1-.24,2.08-.53,1.42-1.54,2.91-2.08,4.52-.3.93-.54,2.1-.73,3.19-.18,1.15-.32,2.22-.54,3.01-.87,2.92-2.91,4.87-3.01,7.88.78.4.84-1.87,1.53-1.81-1.1,3.41-.72,5.07-1.64,8.25-.43.91-1.33-.19-1.67,1.06-1.11,3.59-.86,6.82-1.61,10.37-.49,2.51-2.19,6.63-2.27,8.84-.09,1.49.63,3.25.37,5.02-.12,1.13-.91,2.07-1.17,3.36-.24,1.16-.77,3.74-1.16,6.17-.27,2.39-.54,4.6-.52,4.9.09,1.26,1.22,2.05,1.09,3.61-.4.11-.98-.23-1.12.6.59,2.22.42,5.44.29,8.83-.06,3.43-.18,7.06-.05,10.08-.37,2.48-1.58-1.1-1.53,2.73.02,1.46.96-.99,1.41.72-.42,1.15-.41,2.12-.26,3.12.15,1,.48,2.01.48,3.16M208.56-126.42c1.51.39,3.88-1.71,3.66-2.75-.22-1.04-3.13.41-3.66,2.75ZM199.55-116.99c-.75-1.2-4.49,1.69-4.86,3.5.93.3,1.61-.37,2.37-1.18.76-.81,1.53-1.81,2.51-2.26M161.05-75.02l1.83-2.75,1.99-2.61c-.15-1-3.31,2.47-3.57,3.09-.61,1.14-.92,2.26-.25,2.26ZM99.55,51.74c.36-1.62.62-3.15.39-4.01-.85-.44-2.28,4.94-.39,4.01ZM91.85,160.36l-.36-3.38c-1.22-.89-.61,4.56.36,3.38ZM87.78,138.82c.31,1.38-.31,4.78.95,4.01.21-1.7.41-3.95-.95-4.01ZM88.31,91.1c-1.37.37-2.28,2.2-1.87,4.65,1.08-.53,1.77-1.82,1.87-4.65ZM99.95,232.29c-.53-1.51-.95-3.1-1.42-4.62l-.68.18c.48,1.58.91,3.17,1.44,4.68l.68-.18-.02-.06ZM92.58,212.74l-1.03.27c.3,1.57.69,2.56,1.24,3.27.3-.69.28-1.91-.22-3.54ZM91.43,216.65c-1.5,1.68,1.19,8.53,1.46,12.05.64-.11.45-1.04,1.17-1.11.72-.5.71,3.1,1.62,1.7-1.1-4.1-2.06-8.35-4.24-12.65ZM98.1,244.07c-.35.52.61,2.03,1.2,3.34.28.6.5,1.63.81,2.35.31.71.68,1.16,1.1.68-.46-1.71-1.48-7.35-3.05-6.38M79.09,174.69c-1.35-.49-.15,3.09.16,3.56.73.23.62-3.4-.16-3.56ZM229.9-181.18c-.96-1.08-4.25,1.44-5.95,2.63-.47.31-.35.76-.93,1.1-.88.6-1.28.47-1.93,1.01-1.58,1.16-3.03,2.82-5.76,4.23-.53,1.67,1.92-.82,2.76-1.1.17-.05.3.65.45.55,1.18-.62,2-1.88,3.21-2.81,2.49-1.89,5.76-3.31,8.2-5.61M75.6,173.07c3.43,3.47-.83,4.43,0,0h0ZM72.88,87.73c-1.32,2.12-2.93,7.74-2.27,12.02.08.28,1.28-.22,1.42.05.18.44-.41,6.21.59,3.56.94-1.04-.16-1.97-.23-3.6-.02-1.89.05-4.16.38-6.32.26-2.21.44-4.27.16-5.78M71.86,112.65c-.75-.29-.96.5-1.4.68.04-1.9.97-1.6,1.19-3.55.14-1.07-.29-3.58-.48-4.99-1.41-.23-.97,3.67-1.29,4.98-.62,2.24-.04,6.9-.42,10.05-.11.94-.06,3.19-1.07,2.85-.13,2.23.99,1.87,1.09,3.61.4,1.96-.59,2.11-.68,3.6-.11,2.1,1.08,4.47,1.05,6.43.03,3.77-1.05,6.81-1.18,10.87-.07,3.62,1.28,5.7,1.63,9.26.17,1.54-.32,2.89-.23,4.39.05,1.57.55,1.81.63,2.82.12,1.13-.21,1.28-.15,2.18.2,1.41.7,1.95.75,2.79.15,1.48-.11,3.02-.06,4.35.06,1.81.47,3.35.44,5.07-.01.86-.32,2.22-.24,2.99.11,1.31.49,2.74.71,4.26.18,1.11-.09,1.73.23,2.93.46,1.71.88,1.23,1.62,2.62-.42,2.31.32,4.85.11,5.89-.08.39-.06,2.27.49,4.32,1.48-1.31,1.42.96,2.95,3.05.88,1.23,1.28,1.12,1.59,1.83,1.22,2.97.63,7.82,2.84,9.67,1.5-.77-.47-3.35-.9-4.94-.59-2.22-1.18-5.3-1.93-7.66-.78-2.23-1.4-2.25-2.08-6.15-.18-1.11.57-1.74.46-3.05-.1-1.74-.86-3.67-1.26-6.31-.84-4.04-.98-9.13-1.7-12.05-.31-1.14-1.1-2.27-1.23-3.45-.25-2.07.72-3.91.5-5.87-.02.37-.81-1.19-.99-2.78-.23-1.77-.04-3.1-.18-5.01-.11-1.56-.54-1.81-.63-2.82-.15-1.24-.25-2.74-.46-4.45-.1-.83-.16-1.73-.27-2.61-.06-.9-.07-1.87-.15-2.83-.19-3.91-.37-8.2-.4-12.21.02-1.29.39-2.42.55-3.62.39-3.09.19-6.82.31-10.02.12-2.53.58-4.67.3-7.09M74.88,72.19c-1.03-.64-2.08,3.85-1.39,4.83,1.23.71.89-3.29,1.39-4.83ZM83.44,217.38c-1.28-.21-.47,1.22.12,2.96.36,1.12,1.14,4.94,1.97,3.93-.15-2.16-1.34-3.42-2.07-6.82M138.58-97.6c.95-2.15,2.82-2.71,4.01-4.18.67-.91.71-1.9,1.56-3.28.86-1.33,1.38-1.22,2.01-2.06.75-1.06.85-2.3,1.15-2.75.85-1.14,2.98-2.32,4.47-3.82.49-.44,1.08-2.12,2.01-2.98.48-.49,1,.1,1.94-1.19.61-.9.35-2.11,1-2.89,1.33-1.64,3.31-2.9,4.72-4.5.98-1.12.46-1.71,1.14-2.81.77-1.24,1.64-1.17,2.19-1.87.36-.46-.02-.97.91-2.07,1.67-1.97,2.6-1.92,3.89-3.24.44-.42,1.46-1.61,2.67-3.03,1.22-1.36,2.6-2.83,3.58-3.95.94-1.04.63-1.51,1.04-2.05,1.05-1.32,1.97-1.32,3.57-3.52.85-1.14,1.77-2.49,2.87-3.88,1.08-1.45,2.54-2.82,4.28-4.32.39-.35.85-.23,1.33-.72.78-.94.56-.88,2.07-.92,1.55-.6.59-1.68,1.41-2.7.83-1.01,1.94-1.19,2.91-2.12.93-.86,1.16-1.83,2.27-2.93,1.93-1.92,5.18-3.89,6.77-5.47,1.15-1.16,2.12-3.01,3.25-4.04,1.42-1.3,3.27-2.16,4.79-3.3,1.06-.83.98-1.36,1.89-2.28,1.11-1.09,1.8-.79,2.55-1.42.49-.44.64-1.27,1.33-1.88,1.69-1.43,3.6-2.73,5.45-4.02,1.84-1.35,3.91-2.51,5.86-3.89,1.85-1.29,3.9-3.43,5.66-4.63.83-.53,1.8-1.03,2.79-1.66.99-.63,2.15-1.31,3.35-2.3.65-.54,1.35-1.58,2.12-2.09,1.34-.91,1.78-.66,2.67-1.2,1.26-.76,5.46-3.78,7.82-5.45-2.26-.68-4.47.65-7.02,2.49-.92.67-1.45,1.67-2.18,2.11-1.88,1.18-3.69,2.39-5.69,3.36-1.72.89-3.71,1.18-5.48,2.32-.58.34-1.74,1.93-2.04,2.19-1.31,1.02-3.01,2.21-4.95,3.4-.93.62-2,1.21-3.04,1.85-1.05.65-2.08,1.35-3.11,2.05-4.26,2.79-8.73,5.69-12.09,8.18-2.51,2.01-3.25,3.37-5.73,4.58-1.19.56-1.26.52-2.16.82-1.39.5-4.57,2.32-7.32,5.01-1.15,1.16-1.29,2.48-2.6,3.75-1.13,1.03-2.48,1.46-3.75,2.41-1.53,1.14-2.9,3.09-4.67,4.67-.99.87-2.2,1.81-3.33,2.84-1.13,1.03-2.33,2.03-3.35,2.97-2.47,2.18-4.59,3.37-7.06,6.46-1.14.98-1.47-.46-2.59.57-3.1,1.87-2.08,2.94-3.54,4.79-.95,1.23-3.33,4.19-5.23,6.22-.84.96-1.92,1.49-2.75,2.51-.84.96-1.64,2.76-2.4,3.81-1.13,1.46-3.18,2.93-4.8,4.64-2.22,2.42-4.34,5-6.13,7.19-1.74,2.17-3.02,3.98-3.87,4.7-.85.71-1.94.52-2.89,1.51-1.79,3.1-2.11,5.81-5.8,9.55-.7.8-1.57,1.21-2.25,2.07-.77,1-.84,1.87-1.75,3.27-1.07,1.69-4.56,5.55-6.93,9.66-.58,1.01-.77,2.59-1.31,3.52-.67,1.15-1.73,1.74-2.49,2.8-1.16,1.59-2.27,3.84-2.74,5.25-.5,1.54-1.74,3.52-3.24,5.69-1.35,2.25-2.88,4.74-4.06,7.19-.83,1.69-2.01,4.14-3.29,6.86-.68,1.34-1.4,2.75-2.12,4.17-.65,1.45-1.35,2.92-2.09,4.28.14,1.43.4.14,1.27.64-.81,2.23-1.6,1.77-1.55,3.34-.94.8-1.93.33-2.87,2.72.56.71,1.05-1.08,1.6-.86.21,1.47-2.29,5.13-3.12,7.48-.77,1.67-1.19-.35-.66-1.1-1.25.58-2.1,4.71-3.15,6.7.17.87.92,1.16,1.09,2.03-.1,1.43-1.16.92-1.24,1.06-.44.85-.14,1.99-.48,3-.38,1.32-1.15,2.99-1.65,4.1-.56,1.31-1.46,1.85-2.02,3.16-.45,1.04-2.5,5.92-2.8,6.85-.2.6.16.81-.15,1.5-.83,1.93-1.81,3.05-2.41,4.67-.59,1.68-1.1,3.41-1.46,5.27-.37,1.81-.73,3.67-1.21,5.51-.62,2.24-2.12,5.08-2.07,7.08.01,2.32-.82,2.17-1.81,4.88-.18.47-.01,1.77-.37,2.96-.33,1.06-.65,1.21-.85,2.06-.81,3.57-.82,7.42-1.58,10.97-.25,1.1-.99,2.46-1.13,3.53-.61,3.64-1.89,11.85-2.68,15.97-.74,4.53-1.64,10.75-2.09,14.53-.29,2.58.41,1.29.74,2.3-.1,2.35-1.16,4.09-1.44,6.48-.11,1.19.5,2.55.39,3.74-.14,1.99-1.1,4.32-1.31,6.51-.15,1.5.48,1.09.44,2.99-.03-.11-.22.79-.37,1.81-.14,1.07-.26,2.21-.29,2.58-.03-.11.49,4.32,1.31,3.74.14-1.99.53-3.5.58-5.83-.01-.73-.19-2.76-.06-3.64.3-1.85,1.27-3.02,1.53-4.99.06-.44-.62-1.42-.54-2.23.17-1.63.9-3.23,1.16-5.01.37-2.72.38-5.65,1.08-8.71.52-2.4,1.62-4.64,2.07-7.08.19-.9.07-2.95.13-3.63.16-1.69.56-3.38,1.02-5.09.4-1.69.84-3.46,1.32-5.11.93-3.36,1.82-6.65,2.5-9.58.27-1.05.22-2.38.5-3.61.35-1.44,1.36-2.44,1.55-3.34.28-1.23-.09-2.6.17-3.7.26-1.29,1.2-2.82,1.39-4.15.24-1.83.01-3.6.26-5.19.93-2.69.89.8,1.8-1.03.65-4.2,3.01-7.88,4.21-11.62.33-1.06.03-2.63.35-3.69.41-1.21,1.84-2.93,2.38-4.54.16-.53.12-2.53.31-2.95.47-1.22,1.57-2.56,2.14-3.87,1.13-2.62,1.74-5.59,3.01-8.13.66-1.4,1.81-2.8,2.6-4.42.9-1.89,1.45-3.93,2.17-5.34.61-1.14,1.46-1.37,2.08-2.26.57-.82.94-1.72,1.39-2.57.44-.85.86-1.82,1.23-2.71.73-1.84,1.48-3.81,2.52-5.86.53-1,1.59-1.83,2.2-2.97.47-.98.69-2.44,1.22-3.44.78-1.43,1.7-2.1,2.59-3.56.96-1.66,1.47-3.38,2.37-5.27.43-.91,1.48-1.98,2.01-2.98.71-1.23.14-1.75.38-2.24.51-1.05,1.59-1.34,1.98-2.18.28-.56-.26-.97.38-2.24,1.85-3.12,4.22-6.56,6.04-7.29.7-2.38,1.83-4.09,4.43-7.41.75-1.06,1.96-1.81,2.53-2.63.83-1.01,1.11-2.25,2.11-3.74,1.3-1.99,2.25-2.98,3.18-4.76,1.12-2.19-.89-.37.93-2.02.31-.21,2.64-2.9,3.56-4.49,1.68-2.16-.11-.4-.45-1.22M195.4,400.8c.3,1.57,1.24,1.44,3.12,3.01.65-.78-2.09-2.8-3.12-3.01ZM74.21,204.12c1.52,3.86,1.05,8.93,3.02,9.01-.09-1.93-1.32-9.71-3.02-9.01ZM212.68,417.46c.18.68.53,1.99,1.51,2.89,1.09,1.11,1.76.87,2.53,1.46,2.23,1.72,4.59,5.05,6.88,5.41,1.02-1.43-1.94-2.47-4.13-4.26-2.61-1.99-4.67-4.91-6.79-5.5ZM82.59,236.52c-1.21,1.18.73,6.15,1.6,8.72.68,2.07,1.6,4.15,2.43,6.12.39.99.76,1.93,1.08,2.88s.62,1.85.77,2.66c.21,1.23.98,3.21,1.61,4.88.52,1.26,1.23,1.87,1.43,2.6.4,1.48.16,2.89.7,4.45,1.09,3.37,2.63,6.19,4.18,8.76,1.53,2.52,3.04,4.74,4.46,6.61,1.61,2.13-.91.92-.02,2.44.71,2.19,1.49,1.67,2.29,3.78,1.33-2.55-1.61-7.13-3.15-10.62-1.23-2.78-3-6.39-4.61-9.93-.34-.82-1.46-2.72-1.42-2.55-.5-1.39-.34-3.32-.7-4.45-.37-1.37-1.34-2.26-1.42-2.55-.21-.55-.08-1.2-.51-2.12-.97-2.24-2.08-3.89-2.76-5.97-.06-.23.19-1.58.17-1.63-.17-.63-.55-.46-.58-.58-1.74-4.9-2.96-10.37-5.56-13.45M227.45,430.64c3.12,2.52,6.55,5.75,9.73,6.48-1.52-1.79-7.89-7.58-9.73-6.48ZM115.38,310.38c-1.63-.17.37,2.52,1.34,4.34,1.06,1.91,2.53,3.96,3.4,5.62,1.11,2.08,1.61,4.63,2.82,6.87.71,1.27,2.62,4.3,4.45,7.04,1.85,2.8,3.95,5.16,4.57,5.42.48.18,1.92,1.93,2.04,2.14,1.19,1.94.5,2.31,1.33,3.61.65,1.05,1.67,1.69,2.45,2.76.57.76,1.16,1.58,1.74,2.4s1.23,1.62,1.81,2.44c1.17,1.64,2.38,3.2,3.48,4.56,2.09,2.55,4.16,6.88,6.35,6.17-3.14-3.3-5.16-6.97-8-10.48-1.1-1.35-2.44-2.27-3.51-3.76-.72-1.09-1.23-2.78-2.04-3.97-.41-.62-1.85-1.21-2.29-1.95-.31-.47-.2-1.9-.86-3-1.07-1.73-2.53-3.53-4.04-5.51-1.45-1.99-2.96-4.21-4.36-6.46-1.09-1.78-1.65-3.64-2.63-5.27-.88-1.47-1.82-2.93-2.71-4.21-.85-1.36-1.63-2.67-2.29-3.78-.68-1.16-1.72-2.1-2.14-2.96-.39-.75.78-1.86-.81-2.1M238.25,438.17c3.47,2.24,7.66,5.82,12.63,8.88.29.17.88.56,1.6.97.71.36,1.61.79,2.45,1.17,1.67.77,3.28,1.32,3.58.81-.53-1.08-2.05-1.04-3.22-1.76-2.19-1.12-4.9-3.26-7.43-4.72-1.01-.58-2.53-1.03-3.29-1.56-1.4-.9-3.66-5.24-6.25-3.75M259.47,451.28c-.98,1.36,2.93,2.27,4.88,3.39,2.24,1.29,4.69,3.38,6.85,4.39,1.04.45,2.21.26,2.28.3,3.33,1.73,5.84,4.72,9.69,5.4-.96-2-4.5-2.88-6.33-3.79-1.07-.57-1.01-.83-1.87-1.27-1.36-.73-2.02-.49-2.82-.95-.36-.21-.55-1.38-.86-1.6-1.32-.81-1.91-.53-2.78-1.03-1.2-.59-1.7-1.31-3.05-2.05-1.77-.93-4.23-1.43-5.99-2.79ZM61.56,102.23c-1.13-.12-2.06,6.22-.26,5.86.29-1.66.9-4.39.26-5.86ZM154.96,369.24c-.11,1.43,2.9,4.22,4.86,6.51,1.05-1.08-3.6-6.6-4.86-6.51ZM151.25,365.66c1.04,1.37,1.52,2.7,2.96,3.29,1.19-.56-2.05-4.7-2.96-3.29ZM164.31,379.55c-.85,1.63,1.75,2.89,3.64,4.7.67-.91-2.15-3.02-3.64-4.7ZM160.57,376.04c0,.91,1.04,2.53,2.19,2.95.62-.65-1.19-2.61-2.19-2.95ZM288.45,467.42c1.95,1.8,6.76,3.37,10.61,5.21,2.31,1.09,4.01,2.89,6.1,2.7.42-.48-.46-.79-.34-1.25-1.28-.69-2.68-1.35-4.12-1.94-1.46-.65-2.95-1.22-4.39-1.81-2.92-1.11-5.8-2.05-7.86-2.9ZM332.85,485.72c-.66,1.4,2.33,1.63,4.09,1.83.18-.9-2.2-1.36-4.09-1.83ZM668.37-191.13c2.34,1.45,5.09,4.19,6.8,4.64.16-.53-1.36-2.13-3.06-3.45-1.68-1.26-3.55-2.1-3.74-1.19ZM229.13-205.92c1.18-1.05,4.67-2.41,3.38-3.1-1.18,1.05-4.67,2.41-3.38,3.1ZM617.84-224.56c-.07-.96.27-1.96-.18-2.94-2.29-1.03-3.43,1.77.18,2.94ZM248.67-218.65c1.38.36,2.8-1.85,3.79-2.48-1.45-.4-3.25,1.78-3.79,2.48ZM264.59-227.13c-.34-1.25-3.77,1.44-5.15,1.5-.28.56-1.34,1.15-.85,1.63,2.01-.23,3.29-2.77,5.98-3.19M278.18-233.58c-.41-1.54-2.91.29-4.41,1.3.86.26,2.48-.3,4.41-1.3ZM283.68-236.09c-.24-.67-.8-.7-1.47-.46-.65.3-1.47.88-2.27,1.34.43.68,2.03-.18,3.72-.94M306.73-245.25l2.84-1.01c.09-1.49-3.86-.06-2.84,1.01ZM84.79,280.27c.76,1.69,1.5,3.32,2.28,3.96.5-1.11-.77-5.59-2.28-3.96ZM533.29-257.65c.51-1.05-1.54-2.33-3.39-1.96.51.78,1.08,1.54,3.39,1.96ZM79.43,267.8c2.26,4.33,2.11,9.01,4.09,11.41.6.2.41-.96-.04-2.43-.4-1.48-1.01-3.33-1.4-4.32.05.17-1.26-6.07-2.69-4.58M75.04,255.74c.45,3.72,1.44,4.92,2.95,9.4,1.61-1.04-1.44-7.66-2.95-9.4ZM348.33-258.59l3.64-.98c.45-1.52-4.71-.26-3.64.98ZM419-270.03c-2.35-.1-2.74.49-4.54.61.1,1.07,5.39.75,4.54-.61ZM491.25-266.45c.91-1.16-3.15-1.05-3.7-.84-.43.66,3.24,1.63,3.7.84ZM499.49-265.31c.17-1.63-3.38-.56-5.17-1.06-.44.85,4.55,1.71,5.17,1.06ZM515.79-262.36c.98-1.12-3.08-1.25-3.64-1.04-.51.62,3.16,1.78,3.64,1.04ZM538.52-256.8c.59.15,1.31.32,1.84.48.59.15,1.03.21,1.16,0,.55-.45-.48-1.09-1.55-1.23-1.03-.21-2.07,0-1.49.83M448.42-269.8l3.76.15c-.53-.83-4.02-1.79-3.76-.15ZM680.9-186.5c1.92,1.68,3.43,2.56,3.87,1.22-.59-1.06-3.71-3.15-3.87-1.22ZM688.67-181.63c-1.22-1.38-2.42-2.64-3.36-1.84.28.6,1.02,1.31,1.76,1.79.74.47,1.4.66,1.6.06ZM656.72-204.54c1.19.35,2.37.89,3.53,1.56,1.1.68,2.17,1.49,3.24,2.3,2.07,1.58,4.1,3.23,6.02,4.24.52-1.24-1.96-3.2-3.46-4.26-1.14-.85-2.24-1.29-3.38-1.9-1.14-.61-2.31-1.33-3.69-2.61-.64.35-1.88-.17-2.28.61M672.97-193.52c1.55,1.47,1.86.78,3.22,2,.66-.73-.78-1.99-2.37-3.15.59,1.31-.34.34-.85,1.14ZM699.6-172.3c1.29-.41-1.38-1.95-2.4-3.02-1.67-1.69-4.24-4.66-5.06-3.4,1.76,2.46,4.45,3.38,7.46,6.42ZM242.46,455.71c-1.17.86-.15,1.93,1.68,3.09,1.56.13.04-1.9-1.68-3.09ZM624.5-225.91c-1.74-1.24-3.58-2.88-5.69-4.39-1.06-.75-2.17-1.49-3.37-2.09-1.25-.58-2.55-1.08-3.97-1.38-.96.75,1.69,1.74,2.95,2.57,2.63,1.86,5.25,3.65,10.08,5.29ZM167.8,400.33c-2.48-2.2-5.68-6.41-7.7-7.33-1.04-.03,3.55,5.27,4.58,6.15,1.1.93,2.79,2,3.11,1.12M568.95-250.31c.3-.93-3.09-1.98-4.16-1.87.36.88,2.81,2.05,4.16,1.87ZM638.87-217.38c1.34-.91-2.93-3.18-4.25-3.32-.41.96,2.41,2.16,4.25,3.32ZM532.17-262.72c-1.18,2.88-7.7-2.33,0,0h0ZM604.4-236.69c-.19-1.17-1.75-1.97-3.58-2.64-1.84-.73-3.94-1.26-5.25-1.83-1.4-.66-2.01-2.02-3.09-2.41-.62-.26-2.08-.24-3.13-.5-1.58-.43-2.8-1.32-3.65-1.1,1.35,2.32,6.01,2.84,9.03,4.1.69.3,1.81,1.53,2.5,1.83,2.09.96,5.02,1.89,7.16,2.59M274.6,474.49c-.31.88,2.24,1.96,3.28,1.99-.36-.88-1.99-1.97-3.28-1.99ZM185.12,417.34c-.87.42,3.78,4.78,4.09,3.42-.46-1.04-2.97-3.11-4.09-3.42ZM173.19,406.75c-.62,1.08,2.51,2.99,4,4.66,1.3,1.42,1.81,2.2,2.33,2.79.52.59,1.19,1.02,2.79,1.75.84.39,1.35,1.16,1.64.41-.79-.89-1.75-1.73-2.65-2.58-.9-.86-1.82-1.77-2.76-2.55-1.9-1.62-3.79-3.19-5.35-4.48ZM584.86-245.12c-.23-.85-1.54-1.66-3.16-2.45.26.97.99,2.54,3.16,2.45ZM505.22-267.64l3.03.59c1.35-1.58-3.67-2.55-3.03-.59ZM219.48,443.75c-1.35.18-.52,3.07-1.14,4.39,2.45.93,3.83,3.37,6.02,4.91,1.29.94,2.56.9,4.28,1.84,1.14.61,2.16,1.68,3.78,2.71,1.24.77,3.34,1.54,4.15,2.06,1.33.86,1.67,1.69,2.96,2.62.84.63,2.12,1.32,3.42,2.07,1.34.68,2.81,1.38,3.98,2.11,1.44.83,3.2,2.13,3.9,2.49,1.8.8,4.18,1.01,5.95,1.94,1.9.95,2.17,2.16,4.29,3.48.29.17,1.73.08,2.41.33.91.43,2.7,1.65,4.03,2.28,1.47.7,3.2,1.46,4.2,1.99,2.15,1.19,3.8,2.34,5.42,3.12,1.66.71,3.31,1.19,5.38.94,3.34,2.22,7.23,3.98,11.13,5.31,3.98,1.19,7.91,1.97,11.41,2.49-1.54-.5-2.31-2.25-3.84-2.94-1.18-.54-4.19-.83-5.27-1.21-2.75-.91-4.58-2.5-7.5-3.85-1.4-.66-3.38-.99-5.11-1.74-1.31-.56-2.84-1.25-4.57-2.01-1.67-.77-3.43-1.64-5.26-2.55-3.65-1.77-7.51-3.66-10.84-5.39-3.19-1.89-8.72-5.9-13.63-8.49-1.72-.94-3.94-1.51-5.52-2.61-2.15-1.43-3.69-3.28-6-4.86-1.26-.82-2.69-1.17-4.1-2.07-4.96-3-9.44-6.31-13.87-9.4M64.55-.98c-1.09,2.31-1.84,4.52-2.2,7.3,1.17.48,4.01-7.11,2.2-7.3ZM67.51-7.26c-1.12-.98-2.5,2.99-1,2.89,1.07-1.26.3-.93,1-2.89ZM91.99-65.54c-1.24,1.06-.44.85-1.41,2.7.92,1.16,2.92-2.55,1.41-2.7ZM383.84-270.49c-3.87,1.04-4.59-.05-7.63.46,1.31.56,7.18,1.98,7.63-.46ZM546.22-259.04c.32,1.2,2.4.52,3.65,1.1-.02-1.21-2.94-1.65-3.65-1.1ZM568.71-251.89c.69-.61-4.58-2.98-4.32-1.53.76.77,3.24,1.63,4.32,1.53ZM84.18,286.41c-.85-1.36-1.71-5.03-2.61-3.82.85,1.36,1.71,5.03,2.61,3.82ZM661.87-206.71l.61-.9c-1.25-1.01-1.83-.91-2.76-1.4-.2.6.68,1.4,2.18,2.22M431.68-276.9c-.32-1.2-2.41-1.49-5.11-1.31-2.68.23-5.99.87-8.72,1.18-1.26.09-1.36-.31-2.32-.23-.11.03-1.42.38-2.31.5-1.56.11-3.09.1-4.55.12-1.46.02-2.76.19-3.9.49-.57.15-.68,1.1-2.24.97l.1,1.07c1.5.15,2.3-.07,3.8-.41,1.6-.43,2.86-1.19,4.51-1.39,1.9-.2,6.15.18,10.01-.24,1.54-.17,3.27-.33,5.04-.56,1.84-.19,3.73-.21,5.69-.18ZM439.41-277.69c-1.31-.56-5.34-.34-5.35.76,1.78.26,5.72.85,5.35-.76ZM648.86-217.68c-1.43-1.45-2.16-2.84-5.39-4.41-.53,1.67,2.89,4.17,5.39,4.41ZM449.38-276.95l3.82.13c.79-1.37-4.59-1.64-3.82-.13ZM604.67-240.91c2.43,1.54,2.54.36,3.9.66-.42-1.11-4.31-2.2-3.9-.66ZM43.18,106.06c-.92-.24-1.18,1.05-1.19,3.06.92.24,1.18-1.05,1.19-3.06ZM527.88-267.79c3.63.8,4.41-.63,8.59.63.77-1.67-3.27-1.5-5.11-1.99-2.56-.66-4.95-2.09-6.79-1.66.94.78,2.77,1.45,5.11,1.99.67,1.35-2.47-.32-1.8,1.03ZM521.33-270.37c4.19.59-.53-2.42-2.04-1.47-.46.79,3.48.47,2.04,1.47ZM59.88-4.97c-.42,1.39-1.83,4.33-.48,3.91.37-.89.81-1.74,1.05-2.48.23-.73.15-1.26-.51-1.45M501.1-275.5c.77-1.24-5.69-1.65-4.65-.28,1.91.52,3.09.82,4.65.28ZM40.66,79.59c.08,1.2.35,1.98.42,3.18,1.66-.87,1.35-5.67-.42-3.18ZM491.95-277.5c-2.28-.3-4.63-.65-6.91-.95-.83,1.01,7.42,2.16,6.91.95ZM46.77,193.05c-.35-2.22-.81-4.17-1.82-3.6-.31,1.36.66,4.52,1.82,3.6ZM39.02,135.41c.14,1.67-.53,5.76,1.05,6.19-.39-2.82.86-6.15-1.05-6.19ZM45.37,187.82l-.61-3.86c-1.25-1.01-.31,5.21.61,3.86ZM449.5-280.82c1.65.23,2.04-.12,3.11-.22-.17-.63-1.33-.86-3.09-.82l-.03,1.04ZM461.89-280.36l3.09.15c.68-1.34-3.64-1.52-3.09-.15ZM434.73-281.26c.83-.1.32-.39-.01-.73-.48-.42-1.2-.84-3.9-.66.17-.05-.33.58-.75.38-.15-.08-4.22-.94-4.68.09.07,1.63,8.05-.27,9.34.91ZM256.16-245.61c1.79-.85,3.48-1.6,4.12-2.39-.67-.92-5.04,1.47-4.12,2.39ZM289.74-261.74c-1.31-.32-5.14,1.99-7.46,2.67,1.47.46,5.36-1.62,7.46-2.67ZM301.05-265.57c-1.45-1.08-4.71.65-6.98,1.75.7,1.03,4.49-1.02,6.98-1.75ZM323.15-274.66c4.09,2.5-8.4,3.04,0,0h0ZM337.23-277.46l-.27-1.02c-1.8.36-2.96.79-3.74,1.31.76.34,2.59-.14,4.01-.28ZM365.82-284.2c-.8-1.62-5.04-.36-8.03.57,2.02,1.17,4.76-.24,8.03-.57ZM265.55-253.61c-1.32.78-4.58,1.59-3.34,2.36,1.29.02,3.88-1.47,3.34-2.36ZM379.03-287.07c-.62-1.18-5.23.3-7.99.49.66,1.1,6.2.35,7.99-.49ZM384.55-287.88c-.15-1-3.85-.25-4.79.37,1.14.37,3.64.37,4.79-.37ZM408.33-290.47c1.95.45,2.05-.79,2.33-.87,1.45-.27,4.3.8,3.9-.92-1.23.21-2.82-.04-3.97.21-.17.05.17.63.07.71-.82.34-3.13-.08-2.33.87ZM275.84-259.85c-1.39.49-2.47,1.03-3.14,1.51-.65.54-.93,1.1-.72,1.66,2.53-.13,4.38-2.09,3.85-3.17ZM463.34-292.03c2.02,0,4.12.12,4.05-.84-2.26-.25-4.39-.23-4.05.84ZM38.17,215.85c-1.85-.06.16,3.56.71,5.6.69,2.8.85,6.6,2.49,6.78-.2-5.07-1.72-7.35-3.14-12.39M504.69-288.29c.06-.93-2.84-1.25-3.9-.9-.06.93,2.84,1.25,3.9.9ZM541.83-282.02c9.32,3.11-3.19,2.44,0,0h0ZM34.58,201.08c-1.28.46.38,3.25.61,4.78.35,1.98-.12,5.03.96,6.33,1.37-1.95-.33-7.6-1.59-11.16M23.74,122.37c-.2,2.43-.76-.77-1.4,0,.92,1.83,1.43,4.86,1.65,8.65.33,3.75.62,8.25.88,13.06.28,4.01.75,8.03,1.07,10.39.05.66-.46,2.62-.35,3.26.27,1.7,1.13,2.38,1.47,3.88.03.11.25,2.74.4,3.98.17,1.54.52,4.01.9,6.53.43,2.51.77,5.16.9,7.02.1,1.74-.69,4.03.42,7.27.18.68.71.36.94,1.46.4,1.97,0,3.42.44,4.82.47,1.52.8,2.29,1.51,3.81.4.81.96,3.58,1.71,2.96.42-2.31-.78-4.06-1.26-6.31-.29-1.08-.27-3.28-.25-3.22-.17-.63-.91-1.34-.94-1.46-.27-1.7.4-1.69.37-2.48-.05-1.09-1.68-6.26-1.9-7.79-.21-1.47.25-3.18,0-4.82.05.17-.13-.7-.31-1.62-.11-.88-.19-1.84-.11-1.56-.2-.74-.81-.51-.9-1.53-.23-2.44.28-4.89-.05-7.24-.23-1.53-1.17-2.31-1.47-3.88-.08-.28.08-2.22.05-3.25-.11-1.31-.55-1.38-.64-2.39,0-.67.33-.82.23-1.65-.29-2.91-.95-11.52-.92-15.98,0-1.59.55-1.61.57-2.41.14-1.32-.47-1.76-.37-3.2.04-.74.64-.78.7-2.38.03.11-.76-.1-.7-.79.07-1.54.19-1.58.33-2.41.43-2.25-.26-2.8-.41-5.62-.11-2.23.28-3.74.37-6.38.17-3.46-.4-7.88-.23-12.02.06-1.84.59-3.27.55-4.78-.01-.73-.11-1.56-.27-2.37-.1-.83-.14-1.67-.11-2.47.25-4.09,1.13-7.62,1.06-11.99,0-1.16-.51-2.12-.48-2.49,0-.43.46-1.47.59-2.35.27-2.39.17-4.38.39-5.59.36-1.86,1.15-2.32,1.59-3.84.31-1.12.3-2.76.52-3.98.39-1.75,1.11-2.92,1.28-3.88.57-3.81.73-8.43,1.53-12.73.45-2.19,1.91-4.96,1.87-7.82-.05-.17-.53-.83-.56-.95.15-1.5.97-2.52,1.17-3.85.19-1.33-.41-2.21-.28-3.34.29-2.58.91-5.25,1.7-8.02.42-1.39.83-2.84,1.21-4.35.45-1.52.82-3.09,1.35-4.75.31-1.12.31-2.28.33-2.41.19-.66.75-1.06,1.05-2.23.29-1.18.15-2.85.45-4.02.32-1.31.71-1.23,1.05-2.23.44-1.34.14-1.75.55-3.2.57-1.74,1.33-3.47,2-5.29.49-1.35.14-1.75.75-3.13.62-1.57,1.14-1.22,1.76-2.79.26-.62.02-1.96.73-3.19-1.27-.64-1.34,2.07-2.03,3.59-.5,1.11-1.55,2.43-2.03,3.59-.36.95-.71,1.9-1.01,2.83-.23.98-.45,1.95-.74,2.94-.45,1.95-.89,3.96-1.53,5.9-.56,1.8-2.53,7.63-3.21,8.3-.66.73-.86.9-.96,1.42-.12.46-.22,1.22-.68,3.17-.67,2.74-1.75,5.53-2.26,7.74-.51,2.21-1.4,6.17-2.37,10.27-.79,4.12-1.61,8.36-2.27,11.1-.39,1.51-.02,2.44-.23,3.23-.61,1.81-1.9,2.95-2.33,4.53-.7,2.63-.06,5.69-1.21,8.01.7.12.76-2.16,1.64-1.41-.39,1.51-.6,3.45-1.51,3.03.9,3.36-1.88,11.67-1.92,18.57,0,.67-.3,1.85-.2,2.43.02.06.62.93.66.86-.06.69-1.5,2.84-1.28,6.38,1.17,1.4.71-.98.48,2.49-.09,1.25.5,2.55.51,3.28,0,1.4-.44,1.77-.48,3.24-.18,3.65.37,8.44.23,11.34-.02,1.29-.14,2.66-.33,3.99-.06,1.36-.2,2.68-.22,3.96-.1,2.59-.03,4.89.84,6.55ZM62.33,287.81c-.67,1.83,1.97,9.17,3.82,10.62.88-1.03-1.62-4.69-2.45-6.85-.67-1.83-.16-3.31-1.38-3.78ZM54.07,266.97c-2.5.91.62,4.35,1.36,8.05,2.55.17-.03-4.45-1.36-8.05ZM41.72,229.78c-1.98-.08.36,4.54,1.08,7.21.27,1.02-.02,2.44.27,3.28.45,1.46,1.37,2.62,2.09,4.38.61,1.6,1.09,3.37,1.62,5.12.57,1.68,1.09,3.37,1.65,4.8.51,1.21.62,1.42,1.19,1.27-.17-.63.07-.87-.18-1.6-.17-.63-1.16-1.15-1.19-1.27-.35-1.07-.3-2.72-.64-3.98-1.33-5.87-4.61-13.34-5.85-19.11M207.61-222.9c-1.37.37-4.15,1.6-4.86,2.83.98.23,4.05-1.51,4.86-2.83ZM215.66-228.17c.32-1.55-4.5,1.88-4.19,2.34-.32,1.55,4.5-1.88,4.19-2.34ZM249.89-249.18c-1.8.79-1.28,1.38-3.38,2.19-.52-1.93,5.5-2.94,4.52-5.24-2.53.37-1.92,2.16-2.39,2.47-1.33.97-2.9.78-3.74,1.55-.83.77-1.34,1.82-1.29,2.72-2.01,1.15-4.75,2.31-5.52,3.31,1.39.18,3.72-1.61,5.82-2.66,2.41-1.26,7.49-2.56,5.86-4.32M557.88-276.8c.18-.9-2.65-1.67-3.76-1.49-.18.9,2.65,1.67,3.76,1.49ZM564.7-274.36c1.19.11,3.8,1.67,3.91.91.33-.58-.65-1.05-1.87-1.51-1.21-.41-2.64-.76-3.2-1.22.17.63,2.35,1.02,1.1,1.84M573.03-271.53l.34-1.01-3.04-1.08c.5.72.17,1.54,2.7,2.08ZM593.29-264.03c1.71.7,3.43,1.4,5.21,2.14.9-1.22-5.14-4.6-5.21-2.14ZM59.52,282.1c.23-.73-2.16-7.6-3.1-6.55.97,3.16,2.06,3.6,3.1,6.55ZM631.91-246.56c4.3,1.23,7.53,3.96,11.6,5.49.4-.35-.24-.91-1.25-1.49-1.01-.58-2.34-1.2-3.36-1.84-2.72-1.71-5.77-3.76-7.04-2.14M694.88-206.77c-.42-1.78-6.96-6.61-8.52-7.42l-.63.84c1.55,1.47,6.49,4.85,9.15,6.58ZM608.49-258.77c-.05-.66-1.69-1.74-3.66-2.5-1.99-.81-4.11-1.46-5.06-1.57-.34,1.25,2.51,1.4,3.61,1.84.91.43,1.72.94,2.57,1.39.81.52,1.63.84,2.6.83M628.03-249.43c.25-.68-1.3-1.66-3.19-2.56-1.89-.9-4.09-1.83-4.98-2.63l-.47.98c1.58.67,5.85,3.62,8.64,4.21ZM650.51-237.03c.49,1.15,5.08,3.46,5.24,2.25-1.13-1.47-3.96-2.23-5.24-2.25ZM674.87-221.54c.46-.79-.44-1.65-1.68-2.41-1.24-.76-2.9-1.48-3.94-2.18-2.46-1.66-4.44-4.05-6.72-4.36-1.09-.87-1.44-.59-1.72-.27,2.98,2.68,10.53,7.43,14.08,9.28M682.88-216.25c-1.01-1.93-2.55-2.24-5.5-4.81-.47.07-.94.13-1.74-.33-.09,1.49,5.91,5.19,7.18,5.15M230.15-238.34c.47.61,2.99-1.59,4.31-2.13-.47-.85-3.71,1.18-4.31,2.13ZM174.79-202.34c-2.5,2.07-4.79,3.78-6.63,5.56-1.86,1.72-3.45,3.3-4.78,4.7.49,1.15,2.01-1.39,3.25-2.46,2.78-2.39,9.1-5.91,8.16-7.8ZM192.21-216.82c-1.21,1.18-4.9,2.9-3.48,3.43,1.38-.31,4.36-2.63,3.48-3.43ZM61.43-56.13c1.43-2.4,1.08-3.28,1.42-4.71-1.52.04-2.8,4.59-1.42,4.71ZM68.25-72.6c-2.43,4.37-3.78,6.62-4.68,9.43.64-.11,2.21-2.24,3.39-4.45,1.25-2.17,2.17-4.42,1.35-5M202.96-224.1c-.43-.92-1.06-1.67-3.02-.11-.92,1.59,1,1.44,3.02.11ZM208.36-227.62c-.67-1.59-3.08.34-3.78,1.62.52.59,2.12-.51,3.78-1.62ZM58.74-52.06c-.71-.6-1.78.66-2.76,2.45-.86,1.82-1.59,4.09-1.76,5.29,1.11.25,1.76-.72,2.32-2.27.56-1.55,1.17-3.61,2.2-5.47ZM102.22-131.72c-2.91,3.95-5.61,6.63-8.09,11.26-1.8,3.29-3.8,7.24-7.28,10.86-.82.83-.52.81-1.21,1.18-2.11.99-7.28,11.1-7.54,14.46-1.84,1.77-3.19,4.03-4.3,6.52-1.1,2.49-2.03,5.18-3.33,7.85,2.39-1.56,3.73-5.88,5.66-8.96,1.52-2.3,3.86-5.18,6.05-8.63.89-1.46.8-2.04,1.34-2.98,2.82-4.72,8.02-11.97,11.2-17.88,1.19-2.15,2.06-4.39,3.53-6.43.63-.84,1.06-.83,1.24-1.06,0,0,.27-.38.61-.9.35-.52.84-1.2,1.26-1.92.83-1.44,1.48-2.9.9-3.23M223.51-238.51c2.14-1.37,5.23-2.8,6.07-4.01-.54-.65-6.89,2.76-6.07,4.01ZM48.97-30.65c-.52-1.02-1.57.06-2.11,1.48-.53,1.42-.78,3.01.12,2.96.69-1.77,1.28-2.05,2.04-4.45M107.38-134.99c1.01-1.25.45-1.95,1.58-3.9,1.15-2.08,3.38-4.26,4.64-5.94s1.58-2.74-.64-2.39c.38.51-1.52,2.3-1.77,2.73-.93,1.53-.73,1.84-1.52,2.97-1.52,2.3-3.63,4.21-4.61,6.72.52,1.26,1.67-.38,2.39-.21M236.67-248.19c-2.49,1.4-7.1,3.36-5.86,4.56,1.05-.4,2.95-1.28,4.44-2.1,1.49-.82,2.4-1.74,1.43-2.4M156.29-189.15c1.96-1.8,4.37-3.73,3.53-4.6-1.88,1.17-5.12,3.69-3.53,4.6ZM179.49-212.13c-2.89,2.66-5.69,6.1-8.83,8.53-1.31,1.02-2.49,1.64-3.61,2.25-1.12.6-2.17,1.25-3.31,2.23.14,2.34,4.02-.95,6.98-3.09,1.92-1.49,5.16-4.43,6.06-5.4,1.34-1.4.68-1.1,1.85-2.88-.56.88,2.27-1.34.86-1.57M181.4-210.94c2.3-2.57,2.27-2.68,5.17-3.95-.13-.94,2.09-2.45.68-3.17-2.02.42-1.43,1.73-2.87,2.96-1.32.78-1.83,0-3.64,1.89,1.11.5.17,1.54.65,2.2M252.09-255.56c2.95-1.28,3.27-3.5-.65-1.29l.65,1.29ZM196.02-224.01c-.67.91-2.2,2.05-2.87,2.96,1.28.69,3.79-2.24,2.87-2.96ZM255.13-258.57c.6,1.79,6.12-1.76,5.9-2.8-.41-.38-3.54,2.05-5.9,2.8ZM124.27-160.13c-.49.68-1.57,1.64-2.33,2.46-.74.87-1.12,1.52-.4,1.69,1.22-.69,3.69-3.55,2.68-4.13M143.29-179.13c-.46-1.28-2.94,1.09-3.39,2.37.95.11,2.79-.75,3.39-2.37ZM122.81,396.4c-.49.68,2.22,2.82,2.71,3.06.58-1.01-1.81-3.11-2.71-3.06ZM129.21-164.45c2.14-2.95,5.95-6.72,7.78-9.46-2.23-.56-9.1,8.17-7.78,9.46ZM215.23-236.41c1.84-1.35,3.55-3.39,1.82-3.23-2.75,1.35-3.76,3.51-1.82,3.23ZM296.8-277.3c-1.95-.45-10.67,2.55-9.71,4.31,2.89.08,3.87-1.95,5.87-2.91,1.52-.71,2.76-.19,3.84-1.39ZM104.99,374.1c-.61-.69-.53-.16-.31.21-.33,1.49-1.81-1.96-2.08-.48,1.61,2.13,2.96,3.29,4.06,3.06-.82-1-1.99-2.4-1.68-2.84M229.41-246.12c-.61-.45-3.21,1.9-2.8.02-1.87.99-2.97,1.89-2.3,2.57,2.81-2.28,3.86-.85,5.1-2.59ZM189.47,458.87c6.47,3.21.09,3.76,0,0h0ZM316.84-284.31l-.37-1.37c-2.05.55-2.28,1.28-3.77,1.86.37.69,2.18.15,4.14-.5ZM332.95-290.7c-1.45.51-4.92.77-3.82,1.69,2-.29,4.24-.34,3.82-1.69ZM342.62-292.44c-.64-1.23-5.99.2-6.35,1.58,2.33-.2,4.22-.64,6.35-1.58ZM26.55,217.8c-1.48.4.32,3.03.67,4.09.23.85.41,2.45.85,3.19.03.11.9.61.9.61.32,1.2.51,3.28.88,4.89.39,1.91,1.01,3.76,1.67,5.53.66,1.78,1.26,3.57,1.93,5.4.61-.47.33-3.56.19-4.32-.26-1.21-.82-2.59-1.44-4.01-.62-1.42-1.17-2.98-1.69-4.49-.15-.57.23-.98-.09-1.68-.05-.17-.88-.56-.9-.61-.38-1.42.06-1.84-.46-3.29-.74-2.06-1.78-3.67-2.46-5.32M247.41-257.54c.54-.51,1.47-1.13,2.59-1.73,1.06-.59,2.37-1.18,3.63-1.7,2.46-1.09,4.81-2.08,5.48-2.57-.76-.77-3.01.14-5.51,1.29-1.25.58-2.54,1.23-3.79,1.81-1.19.56-2.33,1.11-3.18,1.34l.8,1.62v-.06ZM289.99-276.75c.18-2.06-3.89-.18-5.76,1.06.41.38,1.39.18,2.46-.17,1.14-.31,2.36-.75,3.3-.89ZM217.71-241.71c-.42-1.78-5.16.35-7.02,2.74.37.69,1.53.26,2.85-.52,1.37-.79,2.96-1.71,4.18-2.16M241.29-255.1l3.64-1.89c.04-1.66-5.03,1.04-3.64,1.89ZM303.05-281.78c-.17-.63-1.14-.37-1.89-.47-2.04-.31-1.71-.46-5.64,1.27,1.51.63,3.58.81,7.6-.82M20,184.73c-1.14,1.22.53,8.34,1.38,10.61,1.52-1.38-.54-7.48-1.38-10.61ZM283.23-276.04l-3.02,1.24c-.08,1.54,4.16-.2,3.02-1.24ZM307.6-283.73c2.77-1.05,6.9-3.19,4.86-3.74-2.4.83-4.36,1.72-6.08,2.6-.09.82.87.74,1.22,1.14ZM111.1,389.17c1.42,2.12,1.98,1.48,3.41,3.6.85-.47-2.62-4.3-3.41-3.6ZM90.06,359.61c-2.6-3.08-1.97,1.75.22,2.87.9-.3-1.55-2.82-.22-2.87ZM21.9,196.12c-.85.23-.19,3.16.48,4.08.85-.23.19-3.16-.48-4.08ZM223.73-246.13c3.15-1.7,4.98-3.29,4.93-4.61-1.77-.01-1.71,1.13-2.64,1.99-.89.79-4.2,2.1-2.29,2.63ZM396.61-303.25c.14-1.75-3.78-.21-5.79.27.79.89,4.26-.04,5.79-.27ZM319.15-287.98c-2.46-.74-1.03-1.13,1.38-1.47,2.4-.4,5.76-.81,7.11-1.72-.46-.36-1.22-.46-2.59-.1.13-.89,3.3-1.8,1.14-2.13-4.09.67-5.23,2.8-7.55,3.73-1.55.6-4.03.23-5.54,1.67,1.72.27,3.48.47,6.05.03ZM266.54-269.07c.08-1.06-.82-1-2.67.05.7-.8,1.85-1.53,3.19-2.2,1.36-.61,2.91-1.21,4.4-1.79,2.98-1.17,5.64-2.42,6.04-4.12-3.54.46-5.46,2.87-8.17,4.14-.75.39-1.62.56-2.65.83-1.02.27-2.18.77-3.56,1.5.17-.04-.12.7-.62.65-.87-.07-5.14,3.15-9,4.24-.59,1.68,2.66-1.02,2.71-.12.63.75-4.32,1.64-2.53,2.39,3.99-1.74,7.66-3.52,8.49-5.2,1.33-.05,1.77.93,4.32-.49M424.49-306.02c1.63.17,1.82-.73,2.47-.79,1.11-.18,3.82.81,3.28-.76-3.19-.06-5.18.47-5.75,1.54ZM54.58,303.07c.73,1.15.27,1.45.77,2.42.37.69,1.23.95,1.35,1.16.24.43.46,1.71.86,2.76.35,1.07.93,1.88,1.63,1.52-.46-1.71-3.26-9.19-4.55-7.87M46.11,284.23l1.89,4.55c1.05-.4-.71-5.85-1.89-4.55ZM133.22,417.04c.42,1.11,2.28,2.81,3.81,4.41,2.98-.49-2.9-6.05-3.81-4.41ZM43.89,277.08c-.84-2.22-1.67-4.19-2.56-3.4-.06,1.84,1.6,3.9,2.56,3.4ZM37.83,260.83c-1.62-1.27-1.34-3.42-2.62-5.21-.11.52-.28.99-.74,1.11,1.04,2.28,2.13,4.31,3.36,4.1ZM123.81,407.66c1.46,1.56,2.91,3.12,3.56,2.34-.51-1.45-3.04-3.82-3.56-2.34ZM34.67,254.05c-.46-1.28-.83-2.64-1.24-3.94-1.46-.89.56,5.52,1.24,3.94ZM337.72-295.21c-2.7-.07-4.82.01-8.19,1.34.72,1.09,5.39-.83,8.19-1.34ZM279.29-277.06c6.33-.96,1.66-4.04,0,0h0ZM366.77-302.08c.38-1.32-3.09-.82-4.2.03.26.73,2.17.33,4.2-.03ZM384.76-304.89c1.19-.56,1.13-1.46,2.27-2.01-1.43-.1-9.88,1.18-12.31,2.14-.12,1.37,3.76-.09,5.88-.17,2.1-.14,2.59.34,4.18.1M487.36-305.79c1.41-1.11-5.34-2.17-4.92-.82.92.49,2.87.7,4.92.82ZM285.23-279.93c2.57-.87,3.62-1.76,3.41-2.74-3.02.81-3.69,1.72-3.41,2.74ZM10.66,98.37c-1.64,1.17-.28,4.41.1,5.83,1.43-1.72.38-4.07-.1-5.83ZM11.72,90.95c-1.6-.06-1.44,6.24-.69,7.44,1.22-1.36.71-4.64.69-7.44ZM398.59-308.84c-3.52.52-8.59.53-10.77,1.48-.04,1.23,5,.67,5.91.43,1.59-.43,5.89-1.03,4.84-1.97M427.72-309.69c2.23,1.48,4.85-.14,7.46-.41-.47-.85-2.29-.79-3.36-.69-.23.06.2.98.05,1.08-1.43.57-4.1-1.4-4.15.01ZM452.67-309.98c-1.9.2-6.46-.89-5.86.47,1.31.56,6.55.99,5.86-.47ZM104.4,386.03l-3.65-4.51-.55.45,3.65,4.51.55-.45ZM10.92,121.66c.1-1.92-.07-3.21-.38-4.17-1.19-.35-2.01.23-1.73,3.33.47-.31.52-1.48,1.07-1.69.82-.34-.15,3.76,1.1,2.51M14.07,50.97c.01,2.56.01,5.06.03,7.62,1.43-2.64,1.67-6.97-.03-7.62ZM400.29-307.95c2.56-.02,2.99-.68,4.95-.9-.84-.63-3.22-.42-5.88-.07.49.23.92.48.93.97ZM524.72-302.38c-1.56-.13-4.84-1.45-4.23-.08,1.93.58,4.06,1.47,4.23.08ZM532.08-300.88c-2.67-.63-3.73-1.62-4.19-.16.38.26,1.37.55,2.37.64.95.11,1.85.05,1.88-.5M11.83,81.77l.27-3.31c-1.31-.81-1.71,3.87-.27,3.31ZM12.52,74.33c.36-3.21.13-5.22-.8-5.95-1.05,1.99-.36,5.71.8,5.95ZM545.68-296.83l4.05.99c1.15-1.16-4.48-2.58-4.05-.99ZM16.61,42.91l-1.41-.23c-.14,1.75-1.44,5.33-.76,5.82,1.17.05,1.55-3.1,2.17-5.58ZM16.73,31.05c-1.13,2.62.41,2.88.24,4.33-.13,1.56-1.65,3.19-.93,4.95,1.35.92.91-2.99,1.26-4.85.38-1.99,2.31-8,1.29-9.98.07-1.12.03.36-.25,2.02-.29,1.66-.67,3.66-1.67,3.56M157.02-205.56c-1.24-.52-6.64,4.83-7.74,6.41,1.29.51,6.64-4.83,7.74-6.41ZM252.39-269.91c-.66-.86-2.22-.32-3.87.61-.85.47-1.74,1.02-2.54,1.47-.78.51-1.56,1.03-2.15,1.31-2.37,1.18-5.38,2.72-8.65,4.39-1.6.86-3.33,1.69-4.99,2.56-.87.42-1.72.89-2.52,1.29-.85.47-1.64.93-2.44,1.38-1.55.84-3.22,2.33-4.85,3.31-1.7.94-3.57,1.26-4.73,1.94-1.36.85-2.58,2.22-3.97,3.2-1.54,1.08-3.2,2.2-4.85,3.31-1.65,1.12-3.38,2.19-5.09,3.32-3.44,2.2-7.06,4.39-10.4,6.75-2.7,2-5.22,4.21-7.92,6.21-2.39,1.8-5.48,3.48-7.65,5.16-1.55,1.27-2.66,2.85-4.12,4.21-3.62,3.35-8.36,6.15-11.48,9.79l.71.85c2.86-1.19,2.59-2.4,4.31-3.96,2.17-1.92,4.39-3.68,6.56-5.36,2.18-1.68,4.33-3.42,6.51-5.1,3.32-2.66,7.15-5.21,10.77-7.89,1.7-1.19,3.23-2.51,4.76-3.65,1.58-1.16,3.12-2.24,4.68-3.27,1.71-1.13,2.81-1.36,4.41-2.46,1.89-1.36,3.92-3.37,5.87-4.74,1.39-.98,2.87-1.38,4.44-2.35,1.26-.76,2.37-1.86,3.38-2.43,1.7-.94,3.75-1.49,5.41-2.37,1.28-.71,1.32-1.21,2.7-2,1.12-.6,1.48-.4,2.3-.98,2.14-1.37,4.03-2.97,6.25-4.24,5.27-2.88,12.98-6.47,19.24-10.22M435.2-311.15c.81.76,6.1.44,4.99-.73-2.88-.27-3.55.4-4.99.73ZM458.55-310.82l.05-1.42c-3.81.59-7.8-1.08-8.41.73,3.25.05,6.17.24,8.36.69ZM26.06-5.42c-.94,2.2-.13,2.23-.85,4.13,1.03.21,2.33-4.53.85-4.13ZM511.23-307.85c-2.99-.23-3.91-1.39-5.79-.89,4.05,2.15-1.79-.31-1.9,1.55,2.53,1.03,7.33.72,7.76-.67M602.39-279.95c-1.27-2.47-8.06-2.96-10.62-5.02-.17.29-1.06-.08-1.71-.21.96,1.51,9.6,4.62,12.27,5.25M638.68-264.79c-.7-1.46-4.42-2.36-5.35-2.41.14,1.67,4.58,2.98,5.35,2.41ZM627.27-270.02c-.23.73,3.13,1.66,4.39,2.48.44-.85-3.22-2.43-4.39-2.48ZM651.79-257.32c-1.57.3,2.67,1.3,4.5,2.21,2.34,1.2,3.87,2.38,5.79,3.39-.7-2.62-7.32-4.75-10.3-5.66M669.61-248.01c-2.2-1.61-4.99-4.03-6.14-2.87,1.17.72,2.42,1.73,3.51,2.41,1.1.68,1.99,1.05,2.62.46ZM716.55-212.7c1.87.6,4.25,1.73,6.18,4.38,2.61-1.43-8.57-8.99-6.18-4.38ZM11.88,51.44c-.69-.3-2.64,4.73-1.06,4.92.54-.94.81-2.9,1.06-4.92ZM11.88,48.94c.69-.61,1.35-5.91.37-5.89-1.04,3.39.1,3.33-.37,5.89ZM710.3-220.97c-1.92-.77-5.57-4.61-6.18-3.04,2.46,1.9,2.6,3.09,4.18,2.84.51-.14,1.86,1.03,2.01.2ZM748.95-184.73c.76-.81-3.47-4.99-3.77-3.38,1.49,2.16,2.09,2.55,3.77,3.38ZM17.55,20.89c.84-2.79.97-4.59,1.22-6.61-.9.97-3.04,6.67-1.22,6.61ZM534.39-303.63c1.71.21,5.52,1.94,5.07.47-1.76-.2-5.58-1.92-5.07-.47ZM597.79-284.14c6.27,1.98,8.98,3.21,15.22,5.07-.24-1.82-3.65-1.77-5.32-2.54-2.32-1.15-4.16-3.46-8.17-4.52-1.04.46-.46,1.04-1.65,2.03M701.02-226.9c.78-.27.2-.85-.75-1.44-1.01-.58-2.35-1.26-3.1-1.79-1.9-1.38-3.32-3.26-5.44-3.91.9,2.44,7.71,5.99,9.32,7.2M758.86-174.39c.42-.24-.4-1.48-1.4-2.74-1.01-1.26-2.4-2.35-2.92-2.45-.65.3.2,1.41,1.37,2.62,1.12,1.22,2.53,2.37,2.95,2.57ZM768.31-164.85c-1.79-1.9-3.97-4.79-5.29-5.41-.69.85,4.78,7.14,5.29,5.41ZM58.25-93.95c-.93.62-1.22.45-1.23-.71,1.34-2.98,2.66-4.19,3.78-6.62.55-1.12.56-2.22,1.13-3.29,1.79-3.35,4.17-6.3,6.6-10.92,1.66-2.7,1.23.71,2.08-.68,1.15-1.41.47-1.65.02-1.96.92-1.59,1.2-.75,2.03-1.76.83-1.01.59-1.44,1.15-2.32,1.41-2.27,2.14-2.28,3.32-4.92.62-1.33.58-1.5.84-2.54.13-.65,1.17-2.69,2.43-5.04,1.28-2.29,2.95-4.69,4.06-6.03,2.15-2.47,2.9-2.18,5.23-4.63-.38-.75,1.65-2.51,1.97-3.82.07-.2-.66-.19-.55-.46.66-1.4,2.06-2.81,2.82-4.29.15-.35-.21-.8.01-1.1,1.11-2.01,2.92-5.05,5.74-7.51,1.09-.96,2.11-1.24,3.57-2.6-1.09-.44-.47-1.76.26-3.12,1.03-1.62,2.8-2.76,4.15-4.34,1.53-1.81,1.63-3.49,3.01-5.38,1.06-1.5,3.35-3.46,5.26-5.68,1.11-1.33,1.98-3.09,3-4.28,1.64-2.09,3.69-3.55,4.85-4.9.74-.87,1.47-2.47,1.97-2.91.24-.25,6.09-3.71,5.75-5.2-.3-1.57.31-.88,2.22-2.67.86-.9,2.37-3.68,3.37-2.67,2.19-1.87.48-1.84,1.6-3.36.85-1.14,2.17-1.25,3.45-2.63.38-.41.05-1.42,1.46-2.28,2.36-1.67.62.5,2.23-.11,1.37-1.71,1.27-2.11,2.75-3.42.65-.54,1.84-1.1,2.96-1.71,1.06-.59,2-1.21,1.93-1.92-.23-2.01.2-.17,2.46-2.43.62-.65.9-2.8,2.25-4.14,2.26-.91,9.79-6.95,10.47-9.21,2.01-1.39,4.61-3.74,5.36-3.02,1.75-1.69-1.59,0-.14-1.67,3.68-2.45,5.78-3.01,10.07-6.84,2.93-2.49,5.29-6.91,8.51-6.06.76-1.73,3.47-2.76,5.4-4.44.2-.17,1.39-2.08,2.35-2.83.86-.66,2.14-1.12,3-1.78,1.67-1.3,4.44-3.93,7.71-5.85,1.53-.9,3.47-1.17,4.88-2.04,1.71-1.13,1.12-1.52,2.65-2.42.58-.34,2.76-.62,2-1.88,1.55-1.27,2.52-.86,4.05-1.76,1.59-.91,1.49-1.5,2.75-2.26,2.75-1.59,4.02-1.63,6.19-3.31.31-.2,1.36-.61,1.54-.84.08-.14-.45-.55-.3-.65,1.58-1.16,4.9-2.9,6.16-3.42,1.42-.62,3.5-.82,5.07-1.6,1.83-.92,1.73-1.74,3.51-2.83,1.63-.99,2.21-.65,3.34-1.2,1.75-.77,2.64-1.99,3.72-2.52,1.69-.76,5.71-2.14,8.96-3.68,1.29-.65,1.78-1.33,3-2.02,1.27-.71,3.24-1.11,4.9-1.98.74-.44,1.15-1.16,2.17-1.68,1.79-.85,4.64-2.04,6.53-2.73,1.28-.47,1.67-.14,2.59-.57,1.21-.51,1.91-1.3,3.1-1.87,1.4-.68,3.24-1.36,5.07-2.03,1.89-.69,3.84-1.4,5.67-2.07,1.88-.75,3.9-1.84,5.73-2.51,2.01-.72,4.67-1.25,6.77-2.06,1.45-.51,2.61-1.43,4.06-1.94,1.71-.7,4.88-.94,7.69-2.06.9-.3,2.28-1.28,3.25-1.54,5.86-1.81,12.53-2.68,17.03-5.48-1.86-.11-3.83.29-5.92.92-2.02.66-4.09,1.58-6.23,2.28-1.41.44-3.69.81-5.2,1.33-1.68.57-1.56,1.03-2.38,1.37-1.26.52-1.4,0-1.82.06,0,0-.87.41-1.85.86-.98.45-2.02.91-2.3.98-.8.21-1.99.11-3.49.63-1.68.57-3.56,1.75-5.74,2.51-5.13,1.8-14.15,3.91-17.53,6.34-.47.31,1.54-.17,1.77-.23-3.12,1.33-6.14,1.71-9.29,2.92-1.22.45-1.93,1.68-2.95,2.19-1.31.59-1.6.18-2.65.59-.55.21-1.43.57-2.47,1.03-1.02.52-2.27,1.1-3.5,1.73-2.54,1.23-5.19,2.49-6.9,3.19-.72.26-1.44.08-2.62.7-.42.24-1.1,1.15-1.35,1.34-.7.37-1.74.59-2.47,1.03-1.06.59-2.15,1.55-3,2.02-.43.24-2.17.58-3.36,1.14-3.14,1.51-7,3.95-10.12,5.52-2.04,1.03-4.6,1.96-6.38,3.05-1.2.75-2.33,2.03-3.54,2.72-2.07,1.16-4.49,1.93-6.4,2.99-2.3,1.23-9.85,5.38-10.46,6.52-1.23,1.79-.45.61-3.59,2.55-1.36.85-2.07,2.08-2.65,2.42-1.26.77-1.09.05-3.4,1.22.23-.06-.11.52-.59.77-.17.05-.26-.3-.94.13-1.32.78-1.9,1.79-3.38,2.86-3.73,2.71-8.54,5.28-10.3,6.66-2.26,1.82-3.42,4.09-5.58,5.82-.8.64-1.65,1.12-2.56,1.6-.91.49-1.8,1.03-2.62,1.62-4.74,3.28-9.39,8.25-14.19,11.73-1.33.97-2.57,2.03-3.88,2.14-1.44,2.58-5.02,5.86-9.12,9.46-4.19,3.5-8.57,7.66-11.98,11.56-.17,1.88,2.33-1.78,2.67-.96-.17,1.2-4,3.76-5.56,5.45-2.09-.29,4.33-3.66,2.29-3.97-1.57,1.64-1.96.65-3.5,2.65-.65.78.39.99-.58,1.93-.76.81-1.65,1.6-2.52,2.44-.87.84-1.8,1.7-2.73,2.56-1.86,1.72-3.76,3.51-5.43,5.24-1.04,1.13-1.56,2.37-2.59,3.56-.97,1.17-2.39,2.23-3.71,3.68-1.42,1.54-2.28,3.35-3.62,4.93-2.55,3-5.58,5.83-8.16,8.96-1.07,1.26-2.09,2.69-3.03,4.17-.95,1.47-1.88,3.01-2.92,4.38-1.09,1.39-4.2,4.6-6.1,7.31-.53.75-.94,2.2-1.66,3.13-2.32,2.94-4.68,6.01-7.12,8.98-2.38,2.96-4.71,5.9-6.47,8.87-.72,1.17-.32,1.98-.68,2.68-1.56,3.28-4.57,6.41-6.74,9.92-1.45,2.34-1.57,3.71-4.21,7.53-.63.84-2.28,2.87-2.16,2.65-.9,1.64-.86,2.73-1.61,4.03-.67,1.15-1.76,2.3-2.54,3.49-1.18,1.96-2.08,4.52-3.37,7-.53,1-1.3,2-1.78,2.92-.72,1.41-1.31,3.1-2.12,5.08-.75,1.97-1.75,4.19-3.09,6.68-.74,1.36-1.21,1.42-1.93,2.83-.78,1.43-.83,2.36-1.29,3.15-1.92,3.32-3.46,4.16-3.48,6.85-.04,1.23-1.38,3.3-2.58,6.3-1.25,3.08-1.9,6.12-3.39,9.69-.37.89-.87,1.76-1.37,2.62s-.93,1.77-1.36,2.68c-1.15,2.99-1.78,5.9-2.91,8.95-.92,2.5-2.46,5.42-3.2,7.87-.78,2.34-.67,4.57-1.36,6.77-.84,3.03-2.82,9.05-3.62,11.34-.25.68-.87,1.09-1.16,2.26-.34,1.25-.11,1.86-.41,3.47-.28,1.48-2.08,5.44-1.92,6.49.05.66.7,1.03.52,1.93-.31,1.79-1.42,3.13-1.78,4.75-.34,1.68.63,4.16-1.29,8.4,2.26-.24,2.09-7.7,4.06-7.62,1.2-2.58,1.18-5.62,1.81-7.38.59-1.68.98-1.12,1.64-3,1.1-2.73-.66-1.1-.65-2.88-.02-.97,1.11-2.92,1.36-4.02.12-.46-.26-2.55.37-4.31.51-1.97,1.36.98,1.84-2.02,1.28-3.21-.54-.65-1.08-1.3l1.71-4.79c1.46-2.28-.82,4.92,1.14,2.2.89-2.37,2.02-4.75,2.54-7.15.24-1.16-.43-1.16-.4-1.97.09-.82.53-1.91.62-2.48.27-2.39,2.05-11.04,5.12-14.36,0,0-.28,2.82.29,1.08.18-.47.23-2.32.96-3.25.36-.46.45.31.96-.5.27-.38,1.3-1.99,1.38-2.14.92-1.59.17-1.88.42-2.55.49-1.35,1.81-2.13,2.07-2.75.65-1.45.25-2.02.8-3.39.56-1.31,1.39-1.41,2.07-2.75.66-1.4-.12-1.37,1.16-4.09,1.02-2.35,2.58-4.72,3.77-7.11,1.19-2.39,2.08-4.77,2.01-7.07,1.3-1.99,2.57-3.62,3.81-5.6M163.08-215.3c1.36-1.77,5.21-4.26,5.21-5.6-.34.09-7.2,5.04-5.21,5.6ZM642.3-264.48c1.99,1.05,4.17,2.36,5.36,2.47-.15-1-5.2-4.16-5.36-2.47ZM209.2-250.71c-1.53,1.14-5.9,3.04-4.6,3.79.68-.18,2.2-.89,3.32-1.74,1.13-.79,2-1.64,1.22-2.04M37.77-51.26c-1.18,2.88-2.36,5.76-3.55,8.64.58,1.25,1.21-1.18,1.64-2.09.76-1.73,3.1-6.44,1.91-6.55ZM127.91-185.02l1.21-1.18c-.33-.09,0-.49.33-.82l-.51-.53c-.46.55-.66.48-.88.36l-1.21,1.18c.33.1,0,.49-.33.82l.51.53c.46-.55.66-.48.88-.36ZM215.16-255.54c-1.86,1.05-1.96,1.81-3.29,2.77,1.36.3,4.95-1.81,3.29-2.77ZM134.91-192.38c-.48-1.58-4.72,2.42-5.2,3.16,1.26.15,3.17-1.4,5.2-3.16ZM231.37-264.77c-1.12-.07-4.48,2.42-5.98,3.19-2.17,1.25-7.26,3.65-6.93,4.9,2.27-.85,3.85-1.58,6-3.13.86-.66,1.71-1.8,1.87-1.9.37-.22,6.13-1.03,5.08-3.13M147-204.22c.93-.86-.21-.8-.07-1.38,0,0,.82-1.5,1.04-1.38-.71-.36-3.4,2.56-4.74,2.37-1.63,1.9-.34,1.01.31,1.62-1.38,1.47-2.01.91-3.02,1.72-1.95,1.62-1.88,3.68-5.86,6.15,1.11-.18,2.31-.5,3.42-1.34,1.3-1.08.67-1.58,1.91-2.89.97-.93,5.09-3.32,7.05-4.88M62.58-102.19c-.89,1.46-1.73,2.9-2.62,4.36.57.09,4.11-4.03,2.62-4.36ZM151.57-209.29c1.71-1.37,2.62-2.53,1.86-3.06-1.71,1.37-3.23,2.76-1.86,3.06ZM159.71-216.71c-.41-1.29-2.68.72-4.66,2.41.64.8,2.85-1.19,4.66-2.41ZM164.98-222.34c-1.31.35-3.66,2.51-2.87,3.21,1.37-.37,4.12-2.63,2.87-3.21ZM172.65-227.62c1.23-.88,1.21-1.42,2.56-2.27-.36-1.12-2.16.15-4.06,1.7.21.8,1.02.4,1.57.62M178.62-232.46c1.16.24,2.36-2.34,4.79-3.54-1.4-2.25-4.35,2.2-4.79,3.54ZM202.57-248.57c1.8-1.03,1.42-2.21,2.11-3.07.59-.77,2.88-1.56,1.78-2-3.38,2.43-5.05,2.57-7.12,4.65.85.44,3.17-1.15,3.28.4M83.26-137.31c-2.78,2.82-2.48,3.71-1.79,3.35.77-.33,2.1-1.72,1.79-3.35ZM184.59-237.29c1.85-1.29,3.6-2.73,5.53-3.98-.89-1.04-6.52,2.78-5.53,3.98ZM195.05-244.48l2.86-1.86c.13-1.56-4.9,1.31-2.86,1.86ZM242.4-273.03c2.03-1.52,1.04-1.8-.72-1.33-1.77.47-4.25,1.69-5.21,2.86,1.81-.3,4.63-1.85,5.94-1.53ZM246.7-275.89c1.82-.73,2.91-1.45,3.7-2.15-.19-.92-5.74,1.36-3.7,2.15ZM182.42-238.78c-1.3.17-3.83.72-4.78,2.2.53,1.08,3.63-.36,4.78-2.2ZM187.27-242.34c-.32-1.87-5.47,1.46-3.48,2.52,1.14-.3,2.83-1.49,3.48-2.52ZM189.71-244.82c-.46.12-.63,1.08-.33,1.06.41-.05,1.1-1.58.99-1.55,1.71-1.13,6.14-3.05,7.16-4.72-.87-1.66-5.15,1.75-8.68,4.04-.51,1.29,2.6-.09.81,1.19M119.76-185.82c-2.34.14-4.34,5.01-7.82,7.95,2.15.28,5.79-5.27,7.82-7.95ZM286.94-294.54c1.71-.46,2.06-.98,3.08-1.5-.38-.51-1.66-.29-3.47.5l.39.99ZM304.42-301.72c-1.26-.15-5.06,1.17-4.65,2.22,1.49.09,5.24-1.16,4.65-2.22ZM324.38-306.52c3.03-.99,4.6-2.21,7.11-3.31-2.18-1.06-8.55,1.8-7.11,3.31ZM349.12-313.52c1.32-.78,2.65-1.5,5.77-1.91-.85-2.03-5.45.85-9.39,1.17,1.12.31,3.49-.2,3.67.72M166.71-229.75c1.78-1.33,2.83-2.41,2.01-2.98-1.85,1.29-3.45,2.63-2.01,2.98ZM378.37-320.5c-1.14-.37-2.99-.24-5.23.06-.39.35-.79.7-.65,1.21,2.02.49,4.26-.72,5.88-1.27ZM380.21-320.02c2.68-.23,3.27-1,5.01-1.34-.45-.31-2.04-.31-3.29.03-1.31.35-2.33.87-1.71,1.37M405.8-323.15c2.59-.14,5.65-.11,5.07-1.36-2.39-.27-6.01-.34-5.07,1.36ZM470.44-325.23c7.4-1.55,4.98,2.87,0,0h0ZM482.39-323.43c4.22.7,4.39-.69,5.41-1.69-4.43-.83-5.17.29-5.41,1.69ZM447.99-325.86c.32-.63-.03-1.03-.84-1.3-.79-.21-2.02-.25-3.52-.15-.56,1.31,1.77,1.36,4.3,1.47M502.19-321.78c2.11.35,4.13.6,5.17.38.44-.85-6.57-2.2-5.17-.38ZM542.32-315.27c.9.86,7.65,2.59,6.91.96-3.19-.98-5.4-1.24-6.91-.96ZM555.7-311.6c2.11.59,4.28,1.17,4.45.21-1.51-.39-1.66-.96-3.23-1.33-.7.13-1.08.53-1.23,1.12ZM568.58-309.32c-2.81-1.14-3.66-.67-5.22-.8.62,1.17,5.77,2.85,5.22.8ZM627.81-287.13c-.31-.47-.54-.89-.35-1.31-2.79-1.08-5.27-2.37-7.33-3.22-2.1-.78-3.91-1.15-5.24-.42.88,1.23,1.42.29,2.56.66,1.6.49,3.43,1.4,5.19,2.27,1.82.86,3.63,1.71,5.2,2.08M705.16-241.06c2.67,1.54,1.54-.41,1.08-1.45-2.15-.95-5.37-3.62-6.51-2.89,2.57,2.3,5.54,2.66,5.43,4.34ZM716.44-232.92c1.11-1.09-6.7-7.23-7.51-5.92,2.76,2.55,3.74,3.02,7.51,5.92ZM205.22-263.74c-1.5-.15-2.9,1.02-4.68,2.35.51.78,3.97-1.37,4.68-2.35ZM350.52-333.11c.78.64,4.96-.84,7.11-1.05.41-.96-1.33-.19-.96-.17-1.35,0-4.1-.73-6.14,1.22Z" fill="#00538a" fill-rule="evenodd"/>
</svg>